<?xml version="1.0" encoding="UTF-8" standalone="no"?>
<!-- Created with Inkscape (http://www.inkscape.org/) -->

<svg
   width="223.62988"
   height="237.68372"
   viewBox="0 0 223.62988 237.68372"
   version="1.1"
   id="svg1"
   xml:space="preserve"
   xmlns="http://www.w3.org/2000/svg"
   xmlns:svg="http://www.w3.org/2000/svg"><defs
     id="defs1" /><g
     id="layer1"
     transform="translate(-1569.7296,-721.91815)"><path
       style="fill:#42322d;fill-opacity:1;stroke:none;stroke-width:0.40384"
       d="m 1671.2831,959.35917 c -19.0156,-1.64936 -36.3949,-7.72471 -52.2973,-18.28166 -16.5124,-10.96205 -28.8956,-24.9345 -37.6487,-42.48046 -4.2443,-8.50806 -6.8114,-15.36467 -8.9774,-23.97828 -2.2277,-8.85928 -2.6435,-12.85818 -2.6298,-25.29019 0.012,-10.52353 0.09,-11.75003 1.1325,-17.68983 4.1703,-23.76448 14.5169,-43.418 31.6223,-60.06718 16.8832,-16.43284 37.3757,-26.5163 61.1062,-30.06764 9.1057,-1.36271 24.3029,-1.46715 31.9895,-0.21986 1.4069,0.2283 2.6777,0.41646 2.8239,0.41817 0.1462,0 -0.08,1.13881 -0.5032,2.527 -0.423,1.38824 -0.9898,4.03634 -1.2596,5.88466 l -0.4905,3.3607 -1.2274,-0.21678 c -3.4499,-0.60936 -13.8952,-1.1086 -18.1886,-0.86943 -17.2265,0.95976 -35.3703,6.45134 -48.2589,14.60647 -17.5737,11.11959 -32.1723,28.23139 -39.352,46.12648 -4.7707,11.89087 -6.7745,22.51801 -6.7509,35.80341 0.047,26.30614 9.4152,49.1911 27.9181,68.19643 16.0591,16.49527 35.0254,25.98713 58.7707,29.41235 5.4326,0.78367 20.2702,0.65028 26.0477,-0.23415 12.0284,-1.84138 21.6491,-4.92982 32.348,-10.38445 15.512,-7.90852 28.4828,-19.92197 38.3683,-35.53651 2.8796,-4.54842 7.1937,-13.27657 9.0643,-18.33884 1.9124,-5.17505 3.9415,-13.26549 4.8111,-19.18236 0.9407,-6.40171 1.2308,-16.48661 0.6505,-22.61501 -1.2448,-13.14533 -5.6071,-28.00695 -10.9314,-37.24189 -0.9036,-1.5673 -1.5923,-2.88992 -1.5303,-2.93922 0.062,-0.0491 1.1121,-0.77888 2.3337,-1.62139 1.2216,-0.84252 3.2736,-2.43717 4.5599,-3.54373 2.7545,-2.3695 2.2652,-2.67975 5.9148,3.75069 3.4054,6.0003 5.8009,11.61001 7.8929,18.4836 3.471,11.40382 4.77,20.17631 4.768,32.19831 0,11.34454 -1.3347,20.64333 -4.4284,30.89372 -12.8348,42.52706 -48.3662,72.71917 -92.4388,78.54808 -5.855,0.77436 -19.4177,1.09111 -25.2092,0.58879 z m -1.2115,-23.64051 c -21.007,-2.55501 -42.0667,-13.89393 -55.9281,-30.11258 -10.3889,-12.15579 -17.1133,-26.15317 -20.0482,-41.7318 -1.2194,-6.4728 -1.4835,-18.44285 -0.5662,-25.66695 1.6713,-13.16242 6.043,-24.91647 13.2397,-35.59744 6.9476,-10.31094 15.5228,-18.82898 25.47,-25.30001 4.2065,-2.73656 12.4956,-6.90668 17.237,-8.67179 7.1252,-2.65257 17.8109,-4.9913 23.8265,-5.21486 l 3.0288,-0.11255 v 3.81939 3.8194 l -4.0384,0.50624 c -9.561,1.19843 -17.5872,3.57152 -26.2496,7.76111 -14.3642,6.94727 -24.6394,15.96934 -32.3399,28.39578 -16.1914,26.12825 -15.6955,59.76206 1.252,84.92685 9.338,13.86564 24.9476,25.69154 41.0012,31.06258 5.1092,1.70941 12.3322,3.3136 16.674,3.70326 3.751,0.33661 3.7007,0.26475 3.7007,5.29289 0,4.1993 0.5119,3.94409 -6.2595,3.12048 z m 16.7436,0.28516 c -0.1024,-0.1024 -0.1861,-2.03901 -0.1861,-4.30352 v -4.1173 l 3.0028,-0.27214 c 15.6954,-1.42227 31.687,-8.50012 45.0541,-19.94078 11.9935,-10.26511 20.527,-24.3033 24.2352,-39.8687 1.6658,-6.99227 2.1159,-10.8796 2.1041,-18.1728 -0.019,-12.06882 -2.6901,-24.22985 -7.4667,-34.00124 l -1.6586,-3.39296 0.7671,-1.29295 c 0.4219,-0.71116 1.4209,-2.62229 2.22,-4.247 l 1.453,-2.95399 1.8654,2.80543 c 8.3594,12.57131 12.8396,31.27384 11.6166,48.49334 -1.7661,24.86844 -14.4667,48.42419 -34.1353,63.31113 -11.8269,8.95159 -23.8014,14.24581 -38.1955,16.88713 -3.8373,0.7041 -10.3843,1.35807 -10.6761,1.06635 z m -24.8204,-21.60656 -4.6441,-1.31049 -1.3267,-1.99495 c -1.6584,-2.49403 -7.0146,-13.12933 -7.8563,-15.59976 l -0.6276,-1.84164 2.2803,-0.27855 c 11.3096,-1.38151 16.3957,-1.88979 21.1148,-2.11021 l 5.5077,-0.2572 0.063,4.85835 0.063,4.85829 -1.7341,0.23106 c -0.9538,0.12711 -4.0965,0.44845 -6.984,0.71408 -2.8875,0.26564 -5.3835,0.59872 -5.5467,0.74017 -0.3099,0.2685 2.5906,6.62659 4.8453,10.6218 0.719,1.27376 1.3072,2.40954 1.3072,2.52397 0,0.45748 -2.0387,0.0931 -6.4615,-1.15492 z m 32.711,1.23173 c 0,-0.0722 1.1097,-2.1166 2.466,-4.54318 2.9144,-5.21448 4.4593,-8.56756 4.0607,-8.81385 -0.1578,-0.0976 -2.5541,-0.38486 -5.3251,-0.63836 -2.7709,-0.25351 -5.9921,-0.55378 -7.1582,-0.66727 l -2.1201,-0.2063 v -5.03724 -5.03723 l 1.3124,0.202 c 0.7219,0.11111 3.4932,0.31593 6.1586,0.45522 7.0073,0.36612 21.6054,2.12709 21.6054,2.60625 0,1.22573 -4.2075,10.17517 -7.1333,15.17248 -2.1887,3.73856 -2.2253,3.77495 -4.4388,4.41845 -5.3521,1.55588 -9.4276,2.45895 -9.4276,2.08903 z m -71.9234,-29.89409 c -5.643,-8.52466 -9.2094,-18.46789 -10.2696,-28.63242 l -0.2844,-2.72591 h 5.2615 5.2615 l 0.2628,1.7163 c 1.9454,12.69887 3.5026,17.84436 8.5246,28.16787 1.4721,3.02607 1.8406,2.56384 -3.374,4.23084 l -2.9362,0.93858 z m 111.2978,2.33062 c -1.5548,-0.53965 -3.0537,-1.06547 -3.331,-1.16853 -0.3466,-0.12883 0.2399,-1.67362 1.8773,-4.94542 3.9528,-7.8981 5.9672,-14.59958 6.9343,-23.06893 l 0.5145,-4.50607 h 5.3007 5.3007 l -0.3356,3.49608 c -0.681,7.09489 -2.9006,14.67071 -6.2501,21.33293 -2.6229,5.21701 -5.7189,9.90705 -6.516,9.87115 -0.3674,-0.0165 -1.94,-0.47155 -3.4948,-1.01121 z m -89.8639,-4.83965 c -2.0672,-5.4371 -4.8321,-20.7213 -4.8354,-26.72916 v -2.12014 h 18.5766 18.5767 v 5.24994 5.24988 h -13.1248 c -12.2362,0 -13.1248,0.048 -13.1248,0.70752 0,1.03128 1.4605,8.5943 2.4936,12.91227 0.4902,2.04917 0.8112,3.80495 0.7133,3.90179 -0.098,0.0968 -2.1447,0.53315 -4.5484,0.96957 l -4.3702,0.7935 z m 68.7407,-0.1313 c -3.4473,-0.5841 -3.7382,-0.70415 -3.5173,-1.45166 0.785,-2.6572 3.0806,-12.85994 3.2953,-14.64633 l 0.2549,-2.12019 h -13.1804 -13.1804 v -5.24988 -5.24994 h 18.5766 18.5766 v 2.34778 c 0,5.81854 -2.2,18.44263 -4.4996,25.82003 -0.4752,1.52467 -0.5411,1.53041 -6.3257,0.55019 z m -100.4555,-41.43898 c 1.2106,-11.21263 4.8263,-21.45105 10.8043,-30.59433 1.3421,-2.05259 2.5033,-3.80187 2.5806,-3.88723 0.1037,-0.11448 7.1756,2.23125 7.7221,2.56141 0.046,0.0281 -1.2486,2.71328 -2.8778,5.96722 -4.1154,8.21959 -6.5137,16.10544 -7.4539,24.50916 -0.2038,1.82147 -0.4348,3.37559 -0.5134,3.45373 -0.079,0.0781 -2.4786,0.20299 -5.3332,0.27755 l -5.1903,0.13554 z m 132.4397,2.32379 -4.8888,-0.12656 -0.2588,-3.11778 c -0.1423,-1.71481 -0.6577,-5.06321 -1.1453,-7.44087 l -0.8867,-4.3231 1.9958,-1.72943 c 1.0977,-0.95121 2.7417,-2.52678 3.6534,-3.50126 l 1.6577,-1.77178 1.2435,2.98697 c 1.4105,3.38849 2.5605,7.47755 3.488,12.40339 0.6729,3.57362 0.8388,6.98014 0.3329,6.83428 -0.1666,-0.048 -2.5029,-0.14426 -5.1917,-0.21386 z m -105.5614,-2.23484 c 0,-5.43379 2.6138,-20.9141 4.5231,-26.78867 l 0.9287,-2.85716 4.6442,0.78936 c 2.5543,0.43411 4.6998,0.84015 4.7678,0.9023 0.068,0.0621 -0.3458,1.72319 -0.9195,3.69124 -1.1358,3.89599 -3.0406,13.6177 -3.0406,15.51835 v 1.18465 h 13.1248 13.1247 v 4.84604 4.84611 h -18.5766 -18.5766 z m 47.2493,-2.76765 v -4.89987 l 18.1362,0.15474 18.1363,0.15473 0.2238,1.41345 c 0.1231,0.77739 0.3473,2.91269 0.4984,4.74513 l 0.2746,3.33169 h -18.6346 -18.6347 z m 29.362,-15.32921 c -8.778,-1.28347 -15.2277,-9.29736 -15.2277,-18.92075 0,-4.22587 0.7731,-6.10353 8.9873,-21.83001 1.4501,-2.77637 3.3469,-6.32456 4.215,-7.8848 l 1.5782,-2.83681 -1.4941,-2.93216 c -4.0084,-7.86594 -4.537,-16.40979 -1.5855,-25.62366 3.1798,-9.9268 11.7939,-17.77062 22.7349,-20.70179 2.0499,-0.54919 3.7576,-0.99902 3.7949,-0.99957 0.2674,-0.006 3.4922,11.01703 3.2474,11.0982 -0.046,0.0154 -1.2972,0.33253 -2.7794,0.70471 -11.901,2.98807 -18.6359,13.29449 -16.4505,25.17422 0.5673,3.08409 2.6201,7.48957 4.7162,10.12119 l 1.6497,2.07122 -8.329,15.69774 c -7.7934,14.68853 -8.3378,15.85354 -8.4677,18.1208 -0.1124,1.96253 0.038,2.72779 0.7924,4.02642 2.2897,3.94287 7.3319,4.89827 10.7356,2.03427 0.7125,-0.59954 2.9227,-4.35023 5.6456,-9.58059 2.4611,-4.72743 6.2757,-11.95726 8.477,-16.06634 l 4.0023,-7.47104 3.3943,-0.24921 c 7.5673,-0.55554 13.5734,-4.04031 17.4746,-10.13888 4.1169,-6.43574 4.357,-15.24274 0.5916,-21.7044 l -0.8163,-1.40064 1.033,-0.82046 c 1.3064,-1.03774 7.5124,-4.93743 8.3731,-5.26146 0.4979,-0.1875 1.0393,0.56359 2.3525,3.26341 3.2242,6.62875 4.279,13.52942 3.1006,20.28246 -1.3061,7.48461 -4.2091,13.0191 -9.628,18.35567 -2.6334,2.59334 -3.8928,3.47551 -7.2982,5.11207 -3.7901,1.82141 -5.636,2.40557 -9.6336,3.04868 -1.3951,0.22444 -1.5879,0.45076 -3.3747,3.96178 -5.5367,10.87961 -11.829,22.31243 -13.3386,24.23586 -4.0742,5.19082 -11.6561,8.11063 -18.4729,7.11387 z m -47.9391,-19.35221 c -6.0258,-0.33589 -17.5127,-1.50382 -19.182,-1.95028 l -1.0679,-0.28555 2.2383,-4.4324 c 1.231,-2.43783 3.4703,-6.22805 4.9762,-8.4228 l 2.7379,-3.99041 5.4518,-1.35399 c 2.9985,-0.74469 5.5895,-1.31104 5.7577,-1.25854 0.1682,0.0524 -0.3013,1.00366 -1.0433,2.11369 -1.6129,2.41273 -5.1182,8.81025 -5.1182,9.3412 0,0.20663 0.4089,0.4003 0.9086,0.43041 0.4998,0.0303 3.5947,0.17972 6.8778,0.33259 l 5.969,0.27793 -0.1134,4.7025 -0.1134,4.70256 -1.4134,0.0485 c -0.7774,0.0265 -3.867,-0.0883 -6.8657,-0.25544 z m 18.8462,0.13958 c -0.148,-0.14807 -0.2691,-2.32881 -0.2691,-4.84605 v -4.57688 h 2.0464 c 1.763,0 2.0161,0.0978 1.8276,0.70669 -0.5095,1.64638 -1.451,6.70755 -1.451,7.80032 0,0.97233 -0.1692,1.18514 -0.9423,1.18514 -0.5183,0 -1.0635,-0.12116 -1.2116,-0.26922 z m 5.4189,-32.51292 c -2.7575,-0.40444 -5.12,-0.84125 -5.2499,-0.97078 -0.3828,-0.38156 -0.5485,-7.84267 -0.1743,-7.84146 1.2479,0.006 7.7387,0.95187 8.4989,1.24089 0.6381,0.24264 0.9294,0.67951 0.9294,1.3942 0,0.57246 0.2901,2.31618 0.6446,3.87493 0.3545,1.55875 0.5817,2.87988 0.5048,2.93579 -0.077,0.0559 -2.396,-0.22918 -5.1535,-0.63357 z"
       id="path13" /></g></svg>
