<?xml version="1.0" encoding="UTF-8" standalone="no"?>
<!-- Created with Inkscape (http://www.inkscape.org/) -->

<svg
   version="1.1"
   id="svg1"
   width="217.97864"
   height="218.29202"
   viewBox="0 0 217.97864 218.29202"
   xmlns="http://www.w3.org/2000/svg"
   xmlns:svg="http://www.w3.org/2000/svg">
  <defs
     id="defs1" />
  <g
     id="g1"
     transform="translate(-897.80872,544.88995)">
    <g
       id="group-R5">
      <g
         id="g955"
         transform="translate(556.6407,-740.54462)"
         style="opacity:0.15;fill:#6d4136;fill-opacity:1">
        <path
           id="path712"
           d="m 3786.42,3408.3 c 6.36,-6.36 16.67,-6.36 23.03,0 0.3,0.3 0.4,0.7 0.67,1.02 -8.98,5.66 -18.09,11.11 -27.31,16.42 -2.29,-5.84 -1.1,-12.73 3.61,-17.44"
           style="fill:#6d4136;fill-opacity:1;fill-rule:nonzero;stroke:none"
           transform="matrix(0.13333333,0,0,-0.13333333,0,666.66667)" />
        <path
           id="path713"
           d="m 3865.37,3352.37 c -6.36,-6.35 -6.36,-16.66 0,-23.02 6.35,-6.36 16.67,-6.36 23.02,0 6.36,6.36 6.36,16.67 0,23.02 -6.35,6.36 -16.67,6.36 -23.02,0"
           style="fill:#6d4136;fill-opacity:1;fill-rule:nonzero;stroke:none"
           transform="matrix(0.13333333,0,0,-0.13333333,0,666.66667)" />
        <path
           id="path714"
           d="m 3944.31,3273.43 c -6.35,-6.36 -6.35,-16.67 0,-23.03 6.36,-6.36 16.67,-6.36 23.03,0 6.36,6.36 6.36,16.67 0,23.03 -6.36,6.36 -16.67,6.36 -23.03,0"
           style="fill:#6d4136;fill-opacity:1;fill-rule:nonzero;stroke:none"
           transform="matrix(0.13333333,0,0,-0.13333333,0,666.66667)" />
        <path
           id="path715"
           d="m 4023.27,3194.48 c -6.37,-6.36 -6.37,-16.67 0,-23.03 6.36,-6.36 16.66,-6.36 23.02,0 2.1,2.11 3.25,4.68 3.96,7.37 -4.69,6.82 -9.49,13.55 -14.37,20.22 -4.54,0.3 -9.16,-1.1 -12.61,-4.56"
           style="fill:#6d4136;fill-opacity:1;fill-rule:nonzero;stroke:none"
           transform="matrix(0.13333333,0,0,-0.13333333,0,666.66667)" />
        <path
           id="path716"
           d="m 4098.29,3099.69 c 0.55,-2.01 1.5,-3.85 2.85,-5.56 -0.97,1.84 -1.88,3.72 -2.85,5.56"
           style="fill:#6d4136;fill-opacity:1;fill-rule:nonzero;stroke:none"
           transform="matrix(0.13333333,0,0,-0.13333333,0,666.66667)" />
        <path
           id="path717"
           d="m 3590.04,3506 c -6.95,1.89 -13.92,3.7 -20.93,5.41 0.61,-0.93 1.03,-1.96 1.85,-2.79 5.19,-5.19 12.91,-5.9 19.08,-2.62"
           style="fill:#6d4136;fill-opacity:1;fill-rule:nonzero;stroke:none"
           transform="matrix(0.13333333,0,0,-0.13333333,0,666.66667)" />
        <path
           id="path718"
           d="m 3649.9,3452.71 c -6.35,-6.37 -6.35,-16.67 0,-23.03 6.37,-6.36 16.67,-6.36 23.03,0 6.36,6.36 6.36,16.66 0,23.03 -6.36,6.35 -16.66,6.35 -23.03,0"
           style="fill:#6d4136;fill-opacity:1;fill-rule:nonzero;stroke:none"
           transform="matrix(0.13333333,0,0,-0.13333333,0,666.66667)" />
        <path
           id="path719"
           d="m 3728.85,3373.76 c -6.35,-6.36 -6.35,-16.67 0,-23.03 6.36,-6.36 16.67,-6.36 23.03,0 6.36,6.36 6.36,16.67 0,23.03 -6.36,6.35 -16.67,6.35 -23.03,0"
           style="fill:#6d4136;fill-opacity:1;fill-rule:nonzero;stroke:none"
           transform="matrix(0.13333333,0,0,-0.13333333,0,666.66667)" />
        <path
           id="path720"
           d="m 3807.8,3294.81 c -6.36,-6.36 -6.36,-16.67 0,-23.03 6.36,-6.36 16.67,-6.36 23.03,0 6.35,6.36 6.35,16.67 0,23.03 -6.36,6.36 -16.67,6.36 -23.03,0"
           style="fill:#6d4136;fill-opacity:1;fill-rule:nonzero;stroke:none"
           transform="matrix(0.13333333,0,0,-0.13333333,0,666.66667)" />
        <path
           id="path721"
           d="m 3886.75,3215.86 c -6.36,-6.36 -6.36,-16.67 0,-23.03 6.36,-6.35 16.66,-6.35 23.02,0 6.37,6.36 6.37,16.67 0,23.03 -6.36,6.36 -16.66,6.36 -23.02,0"
           style="fill:#6d4136;fill-opacity:1;fill-rule:nonzero;stroke:none"
           transform="matrix(0.13333333,0,0,-0.13333333,0,666.66667)" />
        <path
           id="path722"
           d="m 3965.7,3136.91 c -6.36,-6.36 -6.36,-16.66 0,-23.02 6.36,-6.36 16.67,-6.36 23.03,0 6.35,6.36 6.35,16.66 0,23.02 -6.36,6.36 -16.67,6.36 -23.03,0"
           style="fill:#6d4136;fill-opacity:1;fill-rule:nonzero;stroke:none"
           transform="matrix(0.13333333,0,0,-0.13333333,0,666.66667)" />
        <path
           id="path723"
           d="m 4044.64,3057.97 c -6.35,-6.36 -6.35,-16.67 0,-23.03 6.36,-6.36 16.67,-6.36 23.03,0 6.36,6.36 6.36,16.67 0,23.03 -6.36,6.35 -16.67,6.35 -23.03,0"
           style="fill:#6d4136;fill-opacity:1;fill-rule:nonzero;stroke:none"
           transform="matrix(0.13333333,0,0,-0.13333333,0,666.66667)" />
        <path
           id="path724"
           d="m 4123.59,2979.02 c -6.36,-6.36 -6.36,-16.67 0,-23.03 6.36,-6.36 16.67,-6.36 23.03,0 6.35,6.36 6.35,16.67 0,23.03 -6.36,6.36 -16.67,6.36 -23.03,0"
           style="fill:#6d4136;fill-opacity:1;fill-rule:nonzero;stroke:none"
           transform="matrix(0.13333333,0,0,-0.13333333,0,666.66667)" />
        <path
           id="path725"
           d="m 3434.44,3530.01 c 6.36,-6.36 16.67,-6.36 23.03,0 0.2,0.2 0.26,0.47 0.45,0.67 -8.34,0.85 -16.79,1.32 -25.19,1.91 0.58,-0.86 0.95,-1.82 1.71,-2.58"
           style="fill:#6d4136;fill-opacity:1;fill-rule:nonzero;stroke:none"
           transform="matrix(0.13333333,0,0,-0.13333333,0,666.66667)" />
        <path
           id="path726"
           d="m 3513.39,3474.09 c -6.36,-6.36 -6.36,-16.67 0,-23.03 6.36,-6.36 16.67,-6.36 23.03,0 6.35,6.36 6.35,16.67 0,23.03 -6.36,6.36 -16.67,6.36 -23.03,0"
           style="fill:#6d4136;fill-opacity:1;fill-rule:nonzero;stroke:none"
           transform="matrix(0.13333333,0,0,-0.13333333,0,666.66667)" />
        <path
           id="path727"
           d="m 3592.34,3395.14 c -6.36,-6.36 -6.36,-16.67 0,-23.03 6.36,-6.36 16.67,-6.36 23.03,0 6.35,6.36 6.35,16.67 0,23.03 -6.36,6.36 -16.67,6.36 -23.03,0"
           style="fill:#6d4136;fill-opacity:1;fill-rule:nonzero;stroke:none"
           transform="matrix(0.13333333,0,0,-0.13333333,0,666.66667)" />
        <path
           id="path728"
           d="m 3671.29,3316.19 c -6.36,-6.36 -6.36,-16.67 0,-23.02 6.36,-6.37 16.67,-6.37 23.02,0 6.36,6.35 6.36,16.66 0,23.02 -6.35,6.36 -16.66,6.36 -23.02,0"
           style="fill:#6d4136;fill-opacity:1;fill-rule:nonzero;stroke:none"
           transform="matrix(0.13333333,0,0,-0.13333333,0,666.66667)" />
        <path
           id="path729"
           d="m 3750.24,3237.24 c -6.36,-6.35 -6.36,-16.67 0,-23.02 6.35,-6.36 16.66,-6.36 23.02,0 6.37,6.35 6.37,16.67 0,23.02 -6.36,6.36 -16.67,6.36 -23.02,0"
           style="fill:#6d4136;fill-opacity:1;fill-rule:nonzero;stroke:none"
           transform="matrix(0.13333333,0,0,-0.13333333,0,666.66667)" />
        <path
           id="path730"
           d="m 3829.19,3158.29 c -6.36,-6.35 -6.36,-16.66 0,-23.02 6.35,-6.36 16.67,-6.36 23.02,0 6.36,6.36 6.36,16.67 0,23.02 -6.35,6.37 -16.67,6.37 -23.02,0"
           style="fill:#6d4136;fill-opacity:1;fill-rule:nonzero;stroke:none"
           transform="matrix(0.13333333,0,0,-0.13333333,0,666.66667)" />
        <path
           id="path731"
           d="m 3908.13,3079.35 c -6.36,-6.36 -6.36,-16.67 0,-23.03 6.36,-6.36 16.67,-6.36 23.03,0 6.36,6.36 6.36,16.67 0,23.03 -6.36,6.35 -16.67,6.35 -23.03,0"
           style="fill:#6d4136;fill-opacity:1;fill-rule:nonzero;stroke:none"
           transform="matrix(0.13333333,0,0,-0.13333333,0,666.66667)" />
        <path
           id="path732"
           d="m 3987.08,3000.4 c -6.36,-6.36 -6.36,-16.67 0,-23.03 6.35,-6.36 16.67,-6.36 23.02,0 6.36,6.36 6.36,16.67 0,23.03 -6.35,6.36 -16.67,6.36 -23.02,0"
           style="fill:#6d4136;fill-opacity:1;fill-rule:nonzero;stroke:none"
           transform="matrix(0.13333333,0,0,-0.13333333,0,666.66667)" />
        <path
           id="path733"
           d="m 4066.03,2921.45 c -6.37,-6.36 -6.37,-16.67 0,-23.03 6.36,-6.35 16.66,-6.35 23.02,0 6.37,6.36 6.37,16.67 0,23.03 -6.36,6.36 -16.66,6.36 -23.02,0"
           style="fill:#6d4136;fill-opacity:1;fill-rule:nonzero;stroke:none"
           transform="matrix(0.13333333,0,0,-0.13333333,0,666.66667)" />
        <path
           id="path734"
           d="m 4168,2842.5 c -6.35,6.36 -16.67,6.36 -23.02,0 -6.36,-6.36 -6.36,-16.66 0,-23.03 6.35,-6.35 16.67,-6.35 23.02,0 6.36,6.37 6.36,16.67 0,23.03"
           style="fill:#6d4136;fill-opacity:1;fill-rule:nonzero;stroke:none"
           transform="matrix(0.13333333,0,0,-0.13333333,0,666.66667)" />
        <path
           id="path735"
           d="m 3376.88,3472.44 c 6.35,-6.35 16.67,-6.35 23.02,0 6.36,6.36 6.36,16.67 0,23.03 -6.35,6.36 -16.67,6.36 -23.02,0 -6.36,-6.36 -6.36,-16.67 0,-23.03"
           style="fill:#6d4136;fill-opacity:1;fill-rule:nonzero;stroke:none"
           transform="matrix(0.13333333,0,0,-0.13333333,0,666.66667)" />
        <path
           id="path736"
           d="m 3455.83,3416.52 c -6.36,-6.36 -6.36,-16.67 0,-23.03 6.35,-6.35 16.66,-6.35 23.02,0 6.36,6.36 6.36,16.67 0,23.03 -6.36,6.36 -16.67,6.36 -23.02,0"
           style="fill:#6d4136;fill-opacity:1;fill-rule:nonzero;stroke:none"
           transform="matrix(0.13333333,0,0,-0.13333333,0,666.66667)" />
        <path
           id="path737"
           d="m 3534.77,3337.57 c -6.36,-6.36 -6.36,-16.66 0,-23.02 6.36,-6.36 16.67,-6.36 23.03,0 6.36,6.36 6.36,16.66 0,23.02 -6.36,6.36 -16.67,6.36 -23.03,0"
           style="fill:#6d4136;fill-opacity:1;fill-rule:nonzero;stroke:none"
           transform="matrix(0.13333333,0,0,-0.13333333,0,666.66667)" />
        <path
           id="path738"
           d="m 3613.72,3258.62 c -6.36,-6.35 -6.36,-16.67 0,-23.02 6.36,-6.36 16.67,-6.36 23.03,0 6.36,6.35 6.36,16.67 0,23.02 -6.36,6.36 -16.67,6.36 -23.03,0"
           style="fill:#6d4136;fill-opacity:1;fill-rule:nonzero;stroke:none"
           transform="matrix(0.13333333,0,0,-0.13333333,0,666.66667)" />
        <path
           id="path739"
           d="m 3692.67,3179.67 c -6.36,-6.35 -6.36,-16.66 0,-23.02 6.36,-6.36 16.67,-6.36 23.02,0 6.36,6.36 6.36,16.67 0,23.02 -6.35,6.37 -16.66,6.37 -23.02,0"
           style="fill:#6d4136;fill-opacity:1;fill-rule:nonzero;stroke:none"
           transform="matrix(0.13333333,0,0,-0.13333333,0,666.66667)" />
        <path
           id="path740"
           d="m 3771.62,3100.73 c -6.36,-6.36 -6.36,-16.67 0,-23.03 6.35,-6.36 16.67,-6.36 23.02,0 6.36,6.36 6.36,16.67 0,23.03 -6.35,6.36 -16.67,6.36 -23.02,0"
           style="fill:#6d4136;fill-opacity:1;fill-rule:nonzero;stroke:none"
           transform="matrix(0.13333333,0,0,-0.13333333,0,666.66667)" />
        <path
           id="path741"
           d="m 3850.56,2998.75 c 6.36,-6.36 16.67,-6.36 23.03,0 6.36,6.36 6.36,16.67 0,23.03 -6.36,6.36 -16.67,6.36 -23.03,0 -6.35,-6.36 -6.35,-16.67 0,-23.03"
           style="fill:#6d4136;fill-opacity:1;fill-rule:nonzero;stroke:none"
           transform="matrix(0.13333333,0,0,-0.13333333,0,666.66667)" />
        <path
           id="path742"
           d="m 3929.52,2919.81 c 6.36,-6.36 16.66,-6.36 23.02,0 6.36,6.35 6.36,16.67 0,23.02 -6.36,6.36 -16.66,6.36 -23.02,0 -6.37,-6.35 -6.37,-16.67 0,-23.02"
           style="fill:#6d4136;fill-opacity:1;fill-rule:nonzero;stroke:none"
           transform="matrix(0.13333333,0,0,-0.13333333,0,666.66667)" />
        <path
           id="path743"
           d="m 4008.46,2863.88 c -6.35,-6.35 -6.35,-16.66 0,-23.02 6.36,-6.36 16.67,-6.36 23.03,0 6.36,6.36 6.36,16.67 0,23.02 -6.36,6.36 -16.67,6.36 -23.03,0"
           style="fill:#6d4136;fill-opacity:1;fill-rule:nonzero;stroke:none"
           transform="matrix(0.13333333,0,0,-0.13333333,0,666.66667)" />
        <path
           id="path744"
           d="m 4087.41,2784.94 c -6.36,-6.36 -6.36,-16.67 0,-23.03 6.36,-6.36 16.67,-6.36 23.03,0 6.35,6.36 6.35,16.67 0,23.03 -6.36,6.36 -16.67,6.36 -23.03,0"
           style="fill:#6d4136;fill-opacity:1;fill-rule:nonzero;stroke:none"
           transform="matrix(0.13333333,0,0,-0.13333333,0,666.66667)" />
        <path
           id="path745"
           d="m 4189.38,2705.99 c -6.36,6.36 -16.67,6.36 -23.03,0 -6.35,-6.36 -6.35,-16.67 0,-23.03 6.36,-6.36 16.67,-6.36 23.03,0 2.23,2.22 3.39,4.98 4.05,7.83 0.07,2.17 0.12,4.35 0.17,6.53 -0.57,3.16 -1.78,6.23 -4.22,8.67"
           style="fill:#6d4136;fill-opacity:1;fill-rule:nonzero;stroke:none"
           transform="matrix(0.13333333,0,0,-0.13333333,0,666.66667)" />
        <path
           id="path746"
           d="m 3240.36,3516.85 c -6.35,-6.36 -6.35,-16.67 0,-23.02 6.36,-6.37 16.67,-6.37 23.03,0 6.36,6.35 6.36,16.66 0,23.02 -6.36,6.36 -16.67,6.36 -23.03,0"
           style="fill:#6d4136;fill-opacity:1;fill-rule:nonzero;stroke:none"
           transform="matrix(0.13333333,0,0,-0.13333333,0,666.66667)" />
        <path
           id="path747"
           d="m 3319.31,3437.9 c -6.36,-6.36 -6.36,-16.67 0,-23.03 6.36,-6.35 16.67,-6.35 23.03,0 6.36,6.36 6.36,16.67 0,23.03 -6.36,6.36 -16.67,6.36 -23.03,0"
           style="fill:#6d4136;fill-opacity:1;fill-rule:nonzero;stroke:none"
           transform="matrix(0.13333333,0,0,-0.13333333,0,666.66667)" />
        <path
           id="path748"
           d="m 3421.29,3335.93 c 6.35,6.36 6.35,16.66 0,23.02 -6.36,6.36 -16.67,6.36 -23.03,0 -6.36,-6.36 -6.36,-16.66 0,-23.02 6.36,-6.36 16.67,-6.36 23.03,0"
           style="fill:#6d4136;fill-opacity:1;fill-rule:nonzero;stroke:none"
           transform="matrix(0.13333333,0,0,-0.13333333,0,666.66667)" />
        <path
           id="path749"
           d="m 3477.21,3280.01 c -6.36,-6.36 -6.36,-16.67 0,-23.03 6.36,-6.36 16.66,-6.36 23.03,0 6.35,6.36 6.35,16.67 0,23.03 -6.37,6.35 -16.67,6.35 -23.03,0"
           style="fill:#6d4136;fill-opacity:1;fill-rule:nonzero;stroke:none"
           transform="matrix(0.13333333,0,0,-0.13333333,0,666.66667)" />
        <path
           id="path750"
           d="m 3556.15,3201.06 c -6.35,-6.36 -6.35,-16.67 0,-23.03 6.36,-6.36 16.67,-6.36 23.03,0 6.36,6.36 6.36,16.67 0,23.03 -6.36,6.36 -16.67,6.36 -23.03,0"
           style="fill:#6d4136;fill-opacity:1;fill-rule:nonzero;stroke:none"
           transform="matrix(0.13333333,0,0,-0.13333333,0,666.66667)" />
        <path
           id="path751"
           d="m 3635.1,3099.08 c 6.36,-6.35 16.67,-6.35 23.03,0 6.36,6.36 6.36,16.67 0,23.03 -6.36,6.36 -16.67,6.36 -23.03,0 -6.35,-6.36 -6.35,-16.67 0,-23.03"
           style="fill:#6d4136;fill-opacity:1;fill-rule:nonzero;stroke:none"
           transform="matrix(0.13333333,0,0,-0.13333333,0,666.66667)" />
        <path
           id="path752"
           d="m 3714.05,3020.14 c 6.36,-6.36 16.67,-6.36 23.03,0 6.35,6.36 6.35,16.66 0,23.02 -6.36,6.36 -16.67,6.36 -23.03,0 -6.36,-6.36 -6.36,-16.66 0,-23.02"
           style="fill:#6d4136;fill-opacity:1;fill-rule:nonzero;stroke:none"
           transform="matrix(0.13333333,0,0,-0.13333333,0,666.66667)" />
        <path
           id="path753"
           d="m 3792.99,2941.19 c 6.37,-6.36 16.67,-6.36 23.03,0 6.37,6.36 6.37,16.66 0,23.03 -6.36,6.35 -16.66,6.35 -23.03,0 -6.35,-6.37 -6.35,-16.67 0,-23.03"
           style="fill:#6d4136;fill-opacity:1;fill-rule:nonzero;stroke:none"
           transform="matrix(0.13333333,0,0,-0.13333333,0,666.66667)" />
        <path
           id="path754"
           d="m 3871.95,2885.27 c -6.36,-6.36 -6.36,-16.67 0,-23.03 6.36,-6.36 16.66,-6.36 23.03,0 6.35,6.36 6.35,16.67 0,23.03 -6.37,6.35 -16.67,6.35 -23.03,0"
           style="fill:#6d4136;fill-opacity:1;fill-rule:nonzero;stroke:none"
           transform="matrix(0.13333333,0,0,-0.13333333,0,666.66667)" />
        <path
           id="path755"
           d="m 3973.92,2783.29 c 6.36,6.36 6.36,16.67 0,23.03 -6.36,6.36 -16.67,6.36 -23.03,0 -6.35,-6.36 -6.35,-16.67 0,-23.03 6.36,-6.35 16.67,-6.35 23.03,0"
           style="fill:#6d4136;fill-opacity:1;fill-rule:nonzero;stroke:none"
           transform="matrix(0.13333333,0,0,-0.13333333,0,666.66667)" />
        <path
           id="path756"
           d="m 4029.84,2704.34 c 6.36,-6.35 16.67,-6.35 23.03,0 6.35,6.36 6.35,16.67 0,23.03 -6.36,6.36 -16.67,6.36 -23.03,0 -6.36,-6.36 -6.36,-16.67 0,-23.03"
           style="fill:#6d4136;fill-opacity:1;fill-rule:nonzero;stroke:none"
           transform="matrix(0.13333333,0,0,-0.13333333,0,666.66667)" />
        <path
           id="path757"
           d="m 4108.8,2625.4 c 6.35,-6.36 16.66,-6.36 23.01,0 6.37,6.35 6.37,16.66 0,23.02 -6.35,6.36 -16.66,6.36 -23.01,0 -6.37,-6.36 -6.37,-16.67 0,-23.02"
           style="fill:#6d4136;fill-opacity:1;fill-rule:nonzero;stroke:none"
           transform="matrix(0.13333333,0,0,-0.13333333,0,666.66667)" />
        <path
           id="path758"
           d="m 3182.8,3459.28 c -6.36,-6.35 -6.36,-16.67 0,-23.02 6.36,-6.36 16.66,-6.36 23.02,0 6.36,6.35 6.36,16.67 0,23.02 -6.36,6.36 -16.66,6.36 -23.02,0"
           style="fill:#6d4136;fill-opacity:1;fill-rule:nonzero;stroke:none"
           transform="matrix(0.13333333,0,0,-0.13333333,0,666.66667)" />
        <path
           id="path759"
           d="m 3261.74,3380.33 c -6.35,-6.35 -6.35,-16.66 0,-23.02 6.36,-6.36 16.67,-6.36 23.03,0 6.36,6.36 6.36,16.67 0,23.02 -6.36,6.37 -16.67,6.37 -23.03,0"
           style="fill:#6d4136;fill-opacity:1;fill-rule:nonzero;stroke:none"
           transform="matrix(0.13333333,0,0,-0.13333333,0,666.66667)" />
        <path
           id="path760"
           d="m 3340.69,3301.39 c -6.36,-6.36 -6.36,-16.67 0,-23.03 6.36,-6.36 16.67,-6.36 23.03,0 6.36,6.36 6.36,16.67 0,23.03 -6.36,6.36 -16.67,6.36 -23.03,0"
           style="fill:#6d4136;fill-opacity:1;fill-rule:nonzero;stroke:none"
           transform="matrix(0.13333333,0,0,-0.13333333,0,666.66667)" />
        <path
           id="path761"
           d="m 3419.64,3222.44 c -6.36,-6.36 -6.36,-16.67 0,-23.03 6.36,-6.36 16.67,-6.36 23.03,0 6.35,6.36 6.35,16.67 0,23.03 -6.36,6.36 -16.67,6.36 -23.03,0"
           style="fill:#6d4136;fill-opacity:1;fill-rule:nonzero;stroke:none"
           transform="matrix(0.13333333,0,0,-0.13333333,0,666.66667)" />
        <path
           id="path762"
           d="m 3498.59,3120.47 c 6.36,-6.36 16.67,-6.36 23.03,0 6.35,6.35 6.35,16.67 0,23.02 -6.36,6.36 -16.67,6.36 -23.03,0 -6.36,-6.35 -6.36,-16.67 0,-23.02"
           style="fill:#6d4136;fill-opacity:1;fill-rule:nonzero;stroke:none"
           transform="matrix(0.13333333,0,0,-0.13333333,0,666.66667)" />
        <path
           id="path763"
           d="m 3577.54,3041.52 c 6.36,-6.36 16.67,-6.36 23.02,0 6.36,6.36 6.36,16.67 0,23.02 -6.35,6.37 -16.66,6.37 -23.02,0 -6.36,-6.35 -6.36,-16.66 0,-23.02"
           style="fill:#6d4136;fill-opacity:1;fill-rule:nonzero;stroke:none"
           transform="matrix(0.13333333,0,0,-0.13333333,0,666.66667)" />
        <path
           id="path764"
           d="m 3656.49,2985.6 c -6.36,-6.36 -6.36,-16.67 0,-23.03 6.35,-6.36 16.66,-6.36 23.02,0 6.36,6.36 6.36,16.67 0,23.03 -6.36,6.35 -16.67,6.35 -23.02,0"
           style="fill:#6d4136;fill-opacity:1;fill-rule:nonzero;stroke:none"
           transform="matrix(0.13333333,0,0,-0.13333333,0,666.66667)" />
        <path
           id="path765"
           d="m 3735.43,2906.65 c -6.36,-6.36 -6.36,-16.67 0,-23.03 6.36,-6.36 16.67,-6.36 23.03,0 6.36,6.36 6.36,16.67 0,23.03 -6.36,6.35 -16.67,6.35 -23.03,0"
           style="fill:#6d4136;fill-opacity:1;fill-rule:nonzero;stroke:none"
           transform="matrix(0.13333333,0,0,-0.13333333,0,666.66667)" />
        <path
           id="path766"
           d="m 3814.38,2827.7 c -6.36,-6.36 -6.36,-16.67 0,-23.03 6.36,-6.36 16.67,-6.36 23.03,0 6.36,6.36 6.36,16.67 0,23.03 -6.36,6.36 -16.67,6.36 -23.03,0"
           style="fill:#6d4136;fill-opacity:1;fill-rule:nonzero;stroke:none"
           transform="matrix(0.13333333,0,0,-0.13333333,0,666.66667)" />
        <path
           id="path767"
           d="m 3893.33,2725.72 c 6.35,-6.35 16.67,-6.35 23.02,0 6.36,6.37 6.36,16.67 0,23.03 -6.35,6.36 -16.67,6.36 -23.02,0 -6.36,-6.36 -6.36,-16.66 0,-23.03"
           style="fill:#6d4136;fill-opacity:1;fill-rule:nonzero;stroke:none"
           transform="matrix(0.13333333,0,0,-0.13333333,0,666.66667)" />
        <path
           id="path768"
           d="m 3995.3,2669.81 c -6.36,6.35 -16.66,6.35 -23.02,0 -6.37,-6.37 -6.37,-16.67 0,-23.03 6.36,-6.36 16.66,-6.36 23.02,0 6.37,6.36 6.37,16.66 0,23.03"
           style="fill:#6d4136;fill-opacity:1;fill-rule:nonzero;stroke:none"
           transform="matrix(0.13333333,0,0,-0.13333333,0,666.66667)" />
        <path
           id="path769"
           d="m 4074.25,2590.86 c -6.35,6.35 -16.67,6.35 -23.02,0 -6.36,-6.36 -6.36,-16.67 0,-23.03 6.35,-6.36 16.67,-6.36 23.02,0 6.36,6.36 6.36,16.67 0,23.03"
           style="fill:#6d4136;fill-opacity:1;fill-rule:nonzero;stroke:none"
           transform="matrix(0.13333333,0,0,-0.13333333,0,666.66667)" />
        <path
           id="path770"
           d="m 4130.17,2511.91 c -6.36,-6.36 -6.36,-16.67 0,-23.03 6.36,-6.35 16.67,-6.35 23.03,0 6.36,6.36 6.36,16.67 0,23.03 -6.36,6.36 -16.67,6.36 -23.03,0"
           style="fill:#6d4136;fill-opacity:1;fill-rule:nonzero;stroke:none"
           transform="matrix(0.13333333,0,0,-0.13333333,0,666.66667)" />
        <path
           id="path771"
           d="m 3069.31,3457.64 c 5.28,5.28 5.92,13.15 2.43,19.35 -9.88,-3.92 -19.67,-8.01 -29.36,-12.31 0.74,-2.56 1.88,-5.02 3.9,-7.04 6.36,-6.36 16.67,-6.36 23.03,0"
           style="fill:#6d4136;fill-opacity:1;fill-rule:nonzero;stroke:none"
           transform="matrix(0.13333333,0,0,-0.13333333,0,666.66667)" />
        <path
           id="path772"
           d="m 3125.23,3401.72 c -6.36,-6.36 -6.36,-16.67 0,-23.03 6.36,-6.36 16.67,-6.36 23.03,0 6.36,6.36 6.36,16.67 0,23.03 -6.36,6.36 -16.67,6.36 -23.03,0"
           style="fill:#6d4136;fill-opacity:1;fill-rule:nonzero;stroke:none"
           transform="matrix(0.13333333,0,0,-0.13333333,0,666.66667)" />
        <path
           id="path773"
           d="m 3204.18,3322.77 c -6.36,-6.36 -6.36,-16.67 0,-23.03 6.36,-6.35 16.67,-6.35 23.02,0 6.37,6.36 6.37,16.67 0,23.03 -6.35,6.36 -16.66,6.36 -23.02,0"
           style="fill:#6d4136;fill-opacity:1;fill-rule:nonzero;stroke:none"
           transform="matrix(0.13333333,0,0,-0.13333333,0,666.66667)" />
        <path
           id="path774"
           d="m 3283.13,3243.82 c -6.36,-6.36 -6.36,-16.66 0,-23.02 6.35,-6.36 16.67,-6.36 23.02,0 6.36,6.36 6.36,16.66 0,23.02 -6.35,6.36 -16.67,6.36 -23.02,0"
           style="fill:#6d4136;fill-opacity:1;fill-rule:nonzero;stroke:none"
           transform="matrix(0.13333333,0,0,-0.13333333,0,666.66667)" />
        <path
           id="path775"
           d="m 3362.08,3141.85 c 6.35,-6.36 16.66,-6.36 23.02,0 6.36,6.35 6.36,16.67 0,23.02 -6.36,6.36 -16.67,6.36 -23.02,0 -6.37,-6.35 -6.37,-16.67 0,-23.02"
           style="fill:#6d4136;fill-opacity:1;fill-rule:nonzero;stroke:none"
           transform="matrix(0.13333333,0,0,-0.13333333,0,666.66667)" />
        <path
           id="path776"
           d="m 3441.02,3062.9 c 6.36,-6.36 16.67,-6.36 23.03,0 6.36,6.36 6.36,16.67 0,23.02 -6.36,6.36 -16.67,6.36 -23.03,0 -6.36,-6.35 -6.36,-16.66 0,-23.02"
           style="fill:#6d4136;fill-opacity:1;fill-rule:nonzero;stroke:none"
           transform="matrix(0.13333333,0,0,-0.13333333,0,666.66667)" />
        <path
           id="path777"
           d="m 3519.97,3006.98 c -6.36,-6.36 -6.36,-16.67 0,-23.03 6.36,-6.36 16.67,-6.36 23.03,0 6.36,6.36 6.36,16.67 0,23.03 -6.36,6.36 -16.67,6.36 -23.03,0"
           style="fill:#6d4136;fill-opacity:1;fill-rule:nonzero;stroke:none"
           transform="matrix(0.13333333,0,0,-0.13333333,0,666.66667)" />
        <path
           id="path778"
           d="m 3598.92,2928.03 c -6.36,-6.36 -6.36,-16.67 0,-23.03 6.35,-6.36 16.67,-6.36 23.02,0 6.36,6.36 6.36,16.67 0,23.03 -6.35,6.36 -16.67,6.36 -23.02,0"
           style="fill:#6d4136;fill-opacity:1;fill-rule:nonzero;stroke:none"
           transform="matrix(0.13333333,0,0,-0.13333333,0,666.66667)" />
        <path
           id="path779"
           d="m 3677.87,2849.08 c -6.36,-6.36 -6.36,-16.67 0,-23.02 6.35,-6.36 16.66,-6.36 23.02,0 6.36,6.35 6.36,16.66 0,23.02 -6.36,6.36 -16.67,6.36 -23.02,0"
           style="fill:#6d4136;fill-opacity:1;fill-rule:nonzero;stroke:none"
           transform="matrix(0.13333333,0,0,-0.13333333,0,666.66667)" />
        <path
           id="path780"
           d="m 3756.81,2770.13 c -6.35,-6.35 -6.35,-16.67 0,-23.02 6.37,-6.36 16.67,-6.36 23.03,0 6.36,6.35 6.36,16.67 0,23.02 -6.36,6.36 -16.66,6.36 -23.03,0"
           style="fill:#6d4136;fill-opacity:1;fill-rule:nonzero;stroke:none"
           transform="matrix(0.13333333,0,0,-0.13333333,0,666.66667)" />
        <path
           id="path781"
           d="m 3835.76,2668.16 c 6.37,-6.36 16.67,-6.36 23.03,0 6.35,6.36 6.35,16.67 0,23.02 -6.36,6.37 -16.66,6.37 -23.03,0 -6.36,-6.35 -6.36,-16.66 0,-23.02"
           style="fill:#6d4136;fill-opacity:1;fill-rule:nonzero;stroke:none"
           transform="matrix(0.13333333,0,0,-0.13333333,0,666.66667)" />
        <path
           id="path782"
           d="m 3937.74,2612.24 c -6.37,6.36 -16.67,6.36 -23.03,0 -6.35,-6.36 -6.35,-16.67 0,-23.03 6.36,-6.36 16.66,-6.36 23.03,0 6.36,6.36 6.36,16.67 0,23.03"
           style="fill:#6d4136;fill-opacity:1;fill-rule:nonzero;stroke:none"
           transform="matrix(0.13333333,0,0,-0.13333333,0,666.66667)" />
        <path
           id="path783"
           d="m 4016.69,2510.27 c 6.35,6.35 6.35,16.66 0,23.02 -6.36,6.36 -16.67,6.36 -23.03,0 -6.36,-6.36 -6.36,-16.67 0,-23.02 6.36,-6.37 16.67,-6.37 23.03,0"
           style="fill:#6d4136;fill-opacity:1;fill-rule:nonzero;stroke:none"
           transform="matrix(0.13333333,0,0,-0.13333333,0,666.66667)" />
        <path
           id="path784"
           d="m 4095.63,2431.32 c 6.36,6.35 6.36,16.67 0,23.02 -6.36,6.36 -16.67,6.36 -23.03,0 -6.35,-6.35 -6.35,-16.67 0,-23.02 6.36,-6.36 16.67,-6.36 23.03,0"
           style="fill:#6d4136;fill-opacity:1;fill-rule:nonzero;stroke:none"
           transform="matrix(0.13333333,0,0,-0.13333333,0,666.66667)" />
        <path
           id="path785"
           d="m 2988.72,3423.1 c -6.36,-6.36 -6.36,-16.67 0,-23.02 6.35,-6.37 16.66,-6.37 23.02,0 6.36,6.35 6.36,16.66 0,23.02 -6.36,6.36 -16.67,6.36 -23.02,0"
           style="fill:#6d4136;fill-opacity:1;fill-rule:nonzero;stroke:none"
           transform="matrix(0.13333333,0,0,-0.13333333,0,666.66667)" />
        <path
           id="path786"
           d="m 3067.66,3344.15 c -6.36,-6.36 -6.36,-16.67 0,-23.03 6.36,-6.35 16.67,-6.35 23.03,0 6.36,6.36 6.36,16.67 0,23.03 -6.36,6.36 -16.67,6.36 -23.03,0"
           style="fill:#6d4136;fill-opacity:1;fill-rule:nonzero;stroke:none"
           transform="matrix(0.13333333,0,0,-0.13333333,0,666.66667)" />
        <path
           id="path787"
           d="m 3146.61,3265.2 c -6.35,-6.36 -6.35,-16.66 0,-23.03 6.36,-6.35 16.67,-6.35 23.03,0 6.36,6.37 6.36,16.67 0,23.03 -6.36,6.36 -16.67,6.36 -23.03,0"
           style="fill:#6d4136;fill-opacity:1;fill-rule:nonzero;stroke:none"
           transform="matrix(0.13333333,0,0,-0.13333333,0,666.66667)" />
        <path
           id="path788"
           d="m 3225.56,3163.23 c 6.36,-6.36 16.67,-6.36 23.03,0 6.36,6.36 6.36,16.67 0,23.03 -6.36,6.35 -16.67,6.35 -23.03,0 -6.36,-6.36 -6.36,-16.67 0,-23.03"
           style="fill:#6d4136;fill-opacity:1;fill-rule:nonzero;stroke:none"
           transform="matrix(0.13333333,0,0,-0.13333333,0,666.66667)" />
        <path
           id="path789"
           d="m 3304.51,3084.28 c 6.36,-6.36 16.67,-6.36 23.03,0 6.35,6.36 6.35,16.67 0,23.03 -6.36,6.35 -16.67,6.35 -23.03,0 -6.36,-6.36 -6.36,-16.67 0,-23.03"
           style="fill:#6d4136;fill-opacity:1;fill-rule:nonzero;stroke:none"
           transform="matrix(0.13333333,0,0,-0.13333333,0,666.66667)" />
        <path
           id="path790"
           d="m 3383.46,3005.33 c 6.36,-6.35 16.66,-6.35 23.02,0 6.36,6.36 6.36,16.67 0,23.03 -6.36,6.36 -16.66,6.36 -23.02,0 -6.36,-6.36 -6.36,-16.67 0,-23.03"
           style="fill:#6d4136;fill-opacity:1;fill-rule:nonzero;stroke:none"
           transform="matrix(0.13333333,0,0,-0.13333333,0,666.66667)" />
        <path
           id="path791"
           d="m 3462.4,2949.41 c -6.35,-6.36 -6.35,-16.66 0,-23.03 6.36,-6.35 16.67,-6.35 23.03,0 6.36,6.37 6.36,16.67 0,23.03 -6.36,6.36 -16.67,6.36 -23.03,0"
           style="fill:#6d4136;fill-opacity:1;fill-rule:nonzero;stroke:none"
           transform="matrix(0.13333333,0,0,-0.13333333,0,666.66667)" />
        <path
           id="path792"
           d="m 3541.35,2870.47 c -6.35,-6.37 -6.35,-16.67 0,-23.03 6.36,-6.36 16.67,-6.36 23.03,0 6.36,6.36 6.36,16.66 0,23.03 -6.36,6.35 -16.67,6.35 -23.03,0"
           style="fill:#6d4136;fill-opacity:1;fill-rule:nonzero;stroke:none"
           transform="matrix(0.13333333,0,0,-0.13333333,0,666.66667)" />
        <path
           id="path793"
           d="m 3620.3,2791.52 c -6.36,-6.36 -6.36,-16.67 0,-23.03 6.36,-6.36 16.67,-6.36 23.03,0 6.35,6.36 6.35,16.67 0,23.03 -6.36,6.35 -16.67,6.35 -23.03,0"
           style="fill:#6d4136;fill-opacity:1;fill-rule:nonzero;stroke:none"
           transform="matrix(0.13333333,0,0,-0.13333333,0,666.66667)" />
        <path
           id="path794"
           d="m 3699.25,2712.57 c -6.36,-6.36 -6.36,-16.67 0,-23.03 6.36,-6.36 16.66,-6.36 23.03,0 6.35,6.36 6.35,16.67 0,23.03 -6.37,6.36 -16.67,6.36 -23.03,0"
           style="fill:#6d4136;fill-opacity:1;fill-rule:nonzero;stroke:none"
           transform="matrix(0.13333333,0,0,-0.13333333,0,666.66667)" />
        <path
           id="path795"
           d="m 3778.2,2610.59 c 6.36,-6.35 16.66,-6.35 23.03,0 6.35,6.36 6.35,16.67 0,23.03 -6.37,6.36 -16.67,6.36 -23.03,0 -6.36,-6.36 -6.36,-16.67 0,-23.03"
           style="fill:#6d4136;fill-opacity:1;fill-rule:nonzero;stroke:none"
           transform="matrix(0.13333333,0,0,-0.13333333,0,666.66667)" />
        <path
           id="path796"
           d="m 3880.17,2554.67 c -6.36,6.36 -16.67,6.36 -23.03,0 -6.35,-6.36 -6.35,-16.67 0,-23.02 6.36,-6.36 16.67,-6.36 23.03,0 6.36,6.35 6.36,16.66 0,23.02"
           style="fill:#6d4136;fill-opacity:1;fill-rule:nonzero;stroke:none"
           transform="matrix(0.13333333,0,0,-0.13333333,0,666.66667)" />
        <path
           id="path797"
           d="m 3959.12,2452.7 c 6.35,6.36 6.35,16.66 0,23.02 -6.36,6.37 -16.67,6.37 -23.03,0 -6.36,-6.36 -6.36,-16.66 0,-23.02 6.36,-6.37 16.67,-6.37 23.03,0"
           style="fill:#6d4136;fill-opacity:1;fill-rule:nonzero;stroke:none"
           transform="matrix(0.13333333,0,0,-0.13333333,0,666.66667)" />
        <path
           id="path798"
           d="m 4038.06,2373.75 c 6.36,6.35 6.36,16.67 0,23.02 -6.35,6.36 -16.66,6.36 -23.01,0 -6.37,-6.35 -6.37,-16.67 0,-23.02 6.35,-6.36 16.66,-6.36 23.01,0"
           style="fill:#6d4136;fill-opacity:1;fill-rule:nonzero;stroke:none"
           transform="matrix(0.13333333,0,0,-0.13333333,0,666.66667)" />
        <path
           id="path799"
           d="m 2931.15,3365.53 c -6.36,-6.35 -6.36,-16.67 0,-23.02 6.36,-6.36 16.67,-6.36 23.03,0 6.35,6.35 6.35,16.67 0,23.02 -6.36,6.36 -16.67,6.36 -23.03,0"
           style="fill:#6d4136;fill-opacity:1;fill-rule:nonzero;stroke:none"
           transform="matrix(0.13333333,0,0,-0.13333333,0,666.66667)" />
        <path
           id="path800"
           d="m 3010.1,3286.58 c -6.36,-6.35 -6.36,-16.66 0,-23.02 6.36,-6.36 16.66,-6.36 23.03,0 6.35,6.36 6.35,16.67 0,23.02 -6.37,6.37 -16.67,6.37 -23.03,0"
           style="fill:#6d4136;fill-opacity:1;fill-rule:nonzero;stroke:none"
           transform="matrix(0.13333333,0,0,-0.13333333,0,666.66667)" />
        <path
           id="path801"
           d="m 3089.04,3207.64 c -6.35,-6.36 -6.35,-16.67 0,-23.03 6.37,-6.36 16.67,-6.36 23.03,0 6.36,6.36 6.36,16.67 0,23.03 -6.36,6.36 -16.66,6.36 -23.03,0"
           style="fill:#6d4136;fill-opacity:1;fill-rule:nonzero;stroke:none"
           transform="matrix(0.13333333,0,0,-0.13333333,0,666.66667)" />
        <path
           id="path802"
           d="m 3167.99,3105.66 c 6.36,-6.36 16.67,-6.36 23.03,0 6.36,6.36 6.36,16.67 0,23.03 -6.36,6.36 -16.67,6.36 -23.03,0 -6.35,-6.36 -6.35,-16.67 0,-23.03"
           style="fill:#6d4136;fill-opacity:1;fill-rule:nonzero;stroke:none"
           transform="matrix(0.13333333,0,0,-0.13333333,0,666.66667)" />
        <path
           id="path803"
           d="m 3246.94,3049.74 c -6.36,-6.36 -6.36,-16.67 0,-23.02 6.36,-6.36 16.67,-6.36 23.03,0 6.36,6.35 6.36,16.66 0,23.02 -6.36,6.36 -16.67,6.36 -23.03,0"
           style="fill:#6d4136;fill-opacity:1;fill-rule:nonzero;stroke:none"
           transform="matrix(0.13333333,0,0,-0.13333333,0,666.66667)" />
        <path
           id="path804"
           d="m 3325.89,2970.79 c -6.36,-6.35 -6.36,-16.67 0,-23.02 6.36,-6.36 16.67,-6.36 23.03,0 6.35,6.35 6.35,16.67 0,23.02 -6.36,6.36 -16.67,6.36 -23.03,0"
           style="fill:#6d4136;fill-opacity:1;fill-rule:nonzero;stroke:none"
           transform="matrix(0.13333333,0,0,-0.13333333,0,666.66667)" />
        <path
           id="path805"
           d="m 3404.84,2891.85 c -6.36,-6.36 -6.36,-16.67 0,-23.03 6.36,-6.36 16.67,-6.36 23.02,0 6.36,6.36 6.36,16.67 0,23.03 -6.35,6.35 -16.66,6.35 -23.02,0"
           style="fill:#6d4136;fill-opacity:1;fill-rule:nonzero;stroke:none"
           transform="matrix(0.13333333,0,0,-0.13333333,0,666.66667)" />
        <path
           id="path806"
           d="m 3483.79,2812.9 c -6.36,-6.36 -6.36,-16.67 0,-23.03 6.35,-6.36 16.67,-6.36 23.02,0 6.36,6.36 6.36,16.67 0,23.03 -6.35,6.35 -16.67,6.35 -23.02,0"
           style="fill:#6d4136;fill-opacity:1;fill-rule:nonzero;stroke:none"
           transform="matrix(0.13333333,0,0,-0.13333333,0,666.66667)" />
        <path
           id="path807"
           d="m 3562.74,2733.95 c -6.37,-6.36 -6.37,-16.67 0,-23.03 6.35,-6.36 16.66,-6.36 23.02,0 6.36,6.36 6.36,16.67 0,23.03 -6.36,6.36 -16.67,6.36 -23.02,0"
           style="fill:#6d4136;fill-opacity:1;fill-rule:nonzero;stroke:none"
           transform="matrix(0.13333333,0,0,-0.13333333,0,666.66667)" />
        <path
           id="path808"
           d="m 3641.68,2631.97 c 6.36,-6.35 16.67,-6.35 23.03,0 6.36,6.36 6.36,16.67 0,23.03 -6.36,6.36 -16.67,6.36 -23.03,0 -6.36,-6.36 -6.36,-16.67 0,-23.03"
           style="fill:#6d4136;fill-opacity:1;fill-rule:nonzero;stroke:none"
           transform="matrix(0.13333333,0,0,-0.13333333,0,666.66667)" />
        <path
           id="path809"
           d="m 3720.63,2553.03 c 6.36,-6.36 16.67,-6.36 23.03,0 6.36,6.36 6.36,16.66 0,23.02 -6.36,6.36 -16.67,6.36 -23.03,0 -6.36,-6.36 -6.36,-16.66 0,-23.02"
           style="fill:#6d4136;fill-opacity:1;fill-rule:nonzero;stroke:none"
           transform="matrix(0.13333333,0,0,-0.13333333,0,666.66667)" />
        <path
           id="path810"
           d="m 3822.6,2497.11 c -6.35,6.35 -16.67,6.35 -23.02,0 -6.36,-6.36 -6.36,-16.67 0,-23.03 6.35,-6.36 16.67,-6.36 23.02,0 6.36,6.36 6.36,16.67 0,23.03"
           style="fill:#6d4136;fill-opacity:1;fill-rule:nonzero;stroke:none"
           transform="matrix(0.13333333,0,0,-0.13333333,0,666.66667)" />
        <path
           id="path811"
           d="m 3901.55,2395.13 c 6.36,6.36 6.36,16.67 0,23.03 -6.36,6.36 -16.66,6.36 -23.03,0 -6.36,-6.36 -6.36,-16.67 0,-23.03 6.37,-6.35 16.67,-6.35 23.03,0"
           style="fill:#6d4136;fill-opacity:1;fill-rule:nonzero;stroke:none"
           transform="matrix(0.13333333,0,0,-0.13333333,0,666.66667)" />
        <path
           id="path812"
           d="m 3980.5,2316.18 c 6.36,6.37 6.36,16.67 0,23.03 -6.36,6.36 -16.67,6.36 -23.02,0 -6.36,-6.36 -6.36,-16.66 0,-23.03 6.35,-6.36 16.66,-6.36 23.02,0"
           style="fill:#6d4136;fill-opacity:1;fill-rule:nonzero;stroke:none"
           transform="matrix(0.13333333,0,0,-0.13333333,0,666.66667)" />
        <path
           id="path813"
           d="m 4036.42,2260.26 c -6.36,-6.36 -6.36,-16.67 0,-23.03 0.74,-0.74 1.68,-1.1 2.52,-1.67 6.23,8.63 12.37,17.32 18.27,26.18 -6.35,4.52 -15.08,4.22 -20.79,-1.48"
           style="fill:#6d4136;fill-opacity:1;fill-rule:nonzero;stroke:none"
           transform="matrix(0.13333333,0,0,-0.13333333,0,666.66667)" />
        <path
           id="path814"
           d="m 2873.59,3307.97 c -6.37,-6.36 -6.37,-16.67 0,-23.03 6.35,-6.36 16.66,-6.36 23.02,0 6.36,6.36 6.36,16.67 0,23.03 -6.36,6.36 -16.67,6.36 -23.02,0"
           style="fill:#6d4136;fill-opacity:1;fill-rule:nonzero;stroke:none"
           transform="matrix(0.13333333,0,0,-0.13333333,0,666.66667)" />
        <path
           id="path815"
           d="m 2952.53,3229.02 c -6.36,-6.36 -6.36,-16.67 0,-23.03 6.36,-6.35 16.67,-6.35 23.03,0 6.36,6.36 6.36,16.67 0,23.03 -6.36,6.36 -16.67,6.36 -23.03,0"
           style="fill:#6d4136;fill-opacity:1;fill-rule:nonzero;stroke:none"
           transform="matrix(0.13333333,0,0,-0.13333333,0,666.66667)" />
        <path
           id="path816"
           d="m 3031.48,3150.07 c -6.36,-6.36 -6.36,-16.66 0,-23.03 6.36,-6.35 16.67,-6.35 23.03,0 6.36,6.37 6.36,16.67 0,23.03 -6.36,6.36 -16.67,6.36 -23.03,0"
           style="fill:#6d4136;fill-opacity:1;fill-rule:nonzero;stroke:none"
           transform="matrix(0.13333333,0,0,-0.13333333,0,666.66667)" />
        <path
           id="path817"
           d="m 3110.43,3048.1 c 6.36,-6.36 16.67,-6.36 23.02,0 6.37,6.35 6.37,16.66 0,23.02 -6.35,6.36 -16.66,6.36 -23.02,0 -6.36,-6.36 -6.36,-16.67 0,-23.02"
           style="fill:#6d4136;fill-opacity:1;fill-rule:nonzero;stroke:none"
           transform="matrix(0.13333333,0,0,-0.13333333,0,666.66667)" />
        <path
           id="path818"
           d="m 3189.38,2992.17 c -6.36,-6.35 -6.36,-16.66 0,-23.02 6.35,-6.36 16.66,-6.36 23.02,0 6.36,6.36 6.36,16.67 0,23.02 -6.36,6.36 -16.67,6.36 -23.02,0"
           style="fill:#6d4136;fill-opacity:1;fill-rule:nonzero;stroke:none"
           transform="matrix(0.13333333,0,0,-0.13333333,0,666.66667)" />
        <path
           id="path819"
           d="m 3268.32,2913.23 c -6.36,-6.36 -6.36,-16.67 0,-23.03 6.36,-6.36 16.67,-6.36 23.03,0 6.36,6.36 6.36,16.67 0,23.03 -6.36,6.36 -16.67,6.36 -23.03,0"
           style="fill:#6d4136;fill-opacity:1;fill-rule:nonzero;stroke:none"
           transform="matrix(0.13333333,0,0,-0.13333333,0,666.66667)" />
        <path
           id="path820"
           d="m 3347.27,2834.28 c -6.36,-6.36 -6.36,-16.67 0,-23.03 6.36,-6.36 16.67,-6.36 23.03,0 6.36,6.36 6.36,16.67 0,23.03 -6.36,6.36 -16.67,6.36 -23.03,0"
           style="fill:#6d4136;fill-opacity:1;fill-rule:nonzero;stroke:none"
           transform="matrix(0.13333333,0,0,-0.13333333,0,666.66667)" />
        <path
           id="path821"
           d="m 3426.22,2755.33 c -6.36,-6.36 -6.36,-16.67 0,-23.02 6.36,-6.37 16.67,-6.37 23.02,0 6.37,6.35 6.37,16.66 0,23.02 -6.35,6.36 -16.66,6.36 -23.02,0"
           style="fill:#6d4136;fill-opacity:1;fill-rule:nonzero;stroke:none"
           transform="matrix(0.13333333,0,0,-0.13333333,0,666.66667)" />
        <path
           id="path822"
           d="m 3505.17,2653.36 c 6.35,-6.36 16.67,-6.36 23.02,0 6.36,6.35 6.36,16.67 0,23.02 -6.35,6.36 -16.67,6.36 -23.02,0 -6.36,-6.35 -6.36,-16.67 0,-23.02"
           style="fill:#6d4136;fill-opacity:1;fill-rule:nonzero;stroke:none"
           transform="matrix(0.13333333,0,0,-0.13333333,0,666.66667)" />
        <path
           id="path823"
           d="m 3584.12,2574.41 c 6.35,-6.36 16.66,-6.36 23.02,0 6.36,6.36 6.36,16.67 0,23.02 -6.36,6.37 -16.67,6.37 -23.02,0 -6.36,-6.35 -6.36,-16.66 0,-23.02"
           style="fill:#6d4136;fill-opacity:1;fill-rule:nonzero;stroke:none"
           transform="matrix(0.13333333,0,0,-0.13333333,0,666.66667)" />
        <path
           id="path824"
           d="m 3663.06,2518.49 c -6.35,-6.36 -6.35,-16.67 0,-23.03 6.36,-6.36 16.67,-6.36 23.03,0 6.36,6.36 6.36,16.67 0,23.03 -6.36,6.36 -16.67,6.36 -23.03,0"
           style="fill:#6d4136;fill-opacity:1;fill-rule:nonzero;stroke:none"
           transform="matrix(0.13333333,0,0,-0.13333333,0,666.66667)" />
        <path
           id="path825"
           d="m 3765.04,2439.54 c -6.36,6.36 -16.67,6.36 -23.03,0 -6.35,-6.36 -6.35,-16.67 0,-23.03 6.36,-6.36 16.67,-6.36 23.03,0 6.35,6.36 6.35,16.67 0,23.03"
           style="fill:#6d4136;fill-opacity:1;fill-rule:nonzero;stroke:none"
           transform="matrix(0.13333333,0,0,-0.13333333,0,666.66667)" />
        <path
           id="path826"
           d="m 3843.99,2337.57 c 6.36,6.35 6.36,16.67 0,23.02 -6.37,6.36 -16.67,6.36 -23.03,0 -6.35,-6.35 -6.35,-16.67 0,-23.02 6.36,-6.36 16.66,-6.36 23.03,0"
           style="fill:#6d4136;fill-opacity:1;fill-rule:nonzero;stroke:none"
           transform="matrix(0.13333333,0,0,-0.13333333,0,666.66667)" />
        <path
           id="path827"
           d="m 3922.94,2258.62 c 6.35,6.36 6.35,16.66 0,23.03 -6.36,6.35 -16.67,6.35 -23.03,0 -6.36,-6.37 -6.36,-16.67 0,-23.03 6.36,-6.36 16.67,-6.36 23.03,0"
           style="fill:#6d4136;fill-opacity:1;fill-rule:nonzero;stroke:none"
           transform="matrix(0.13333333,0,0,-0.13333333,0,666.66667)" />
        <path
           id="path828"
           d="m 3978.85,2202.69 c -6.35,-6.36 -6.35,-16.66 0,-23.03 3.25,-3.23 7.51,-4.78 11.76,-4.71 5.27,5.99 10.59,11.94 15.68,18.09 -0.41,3.52 -1.71,6.96 -4.41,9.65 -6.36,6.36 -16.67,6.36 -23.03,0"
           style="fill:#6d4136;fill-opacity:1;fill-rule:nonzero;stroke:none"
           transform="matrix(0.13333333,0,0,-0.13333333,0,666.66667)" />
        <path
           id="path829"
           d="m 2816.02,3250.4 c -6.36,-6.36 -6.36,-16.67 0,-23.03 6.35,-6.35 16.67,-6.35 23.02,0 6.36,6.36 6.36,16.67 0,23.03 -6.35,6.36 -16.67,6.36 -23.02,0"
           style="fill:#6d4136;fill-opacity:1;fill-rule:nonzero;stroke:none"
           transform="matrix(0.13333333,0,0,-0.13333333,0,666.66667)" />
        <path
           id="path830"
           d="m 2894.97,3171.45 c -6.36,-6.36 -6.36,-16.66 0,-23.03 6.35,-6.35 16.66,-6.35 23.02,0 6.36,6.37 6.36,16.67 0,23.03 -6.36,6.36 -16.67,6.36 -23.02,0"
           style="fill:#6d4136;fill-opacity:1;fill-rule:nonzero;stroke:none"
           transform="matrix(0.13333333,0,0,-0.13333333,0,666.66667)" />
        <path
           id="path831"
           d="m 2973.91,3069.48 c 6.36,-6.36 16.67,-6.36 23.03,0 6.36,6.36 6.36,16.66 0,23.03 -6.36,6.35 -16.67,6.35 -23.03,0 -6.36,-6.37 -6.36,-16.67 0,-23.03"
           style="fill:#6d4136;fill-opacity:1;fill-rule:nonzero;stroke:none"
           transform="matrix(0.13333333,0,0,-0.13333333,0,666.66667)" />
        <path
           id="path832"
           d="m 3052.86,2990.53 c 6.36,-6.36 16.67,-6.36 23.03,0 6.36,6.36 6.36,16.67 0,23.03 -6.36,6.35 -16.67,6.35 -23.03,0 -6.35,-6.36 -6.35,-16.67 0,-23.03"
           style="fill:#6d4136;fill-opacity:1;fill-rule:nonzero;stroke:none"
           transform="matrix(0.13333333,0,0,-0.13333333,0,666.66667)" />
        <path
           id="path833"
           d="m 3131.81,2934.61 c -6.36,-6.36 -6.36,-16.67 0,-23.03 6.36,-6.36 16.67,-6.36 23.03,0 6.35,6.36 6.35,16.67 0,23.03 -6.36,6.36 -16.67,6.36 -23.03,0"
           style="fill:#6d4136;fill-opacity:1;fill-rule:nonzero;stroke:none"
           transform="matrix(0.13333333,0,0,-0.13333333,0,666.66667)" />
        <path
           id="path834"
           d="m 3210.76,2855.66 c -6.36,-6.36 -6.36,-16.67 0,-23.03 6.36,-6.35 16.67,-6.35 23.03,0 6.35,6.36 6.35,16.67 0,23.03 -6.36,6.36 -16.67,6.36 -23.03,0"
           style="fill:#6d4136;fill-opacity:1;fill-rule:nonzero;stroke:none"
           transform="matrix(0.13333333,0,0,-0.13333333,0,666.66667)" />
        <path
           id="path835"
           d="m 3289.7,2776.71 c -6.35,-6.36 -6.35,-16.66 0,-23.02 6.37,-6.36 16.67,-6.36 23.03,0 6.36,6.36 6.36,16.66 0,23.02 -6.36,6.36 -16.66,6.36 -23.03,0"
           style="fill:#6d4136;fill-opacity:1;fill-rule:nonzero;stroke:none"
           transform="matrix(0.13333333,0,0,-0.13333333,0,666.66667)" />
        <path
           id="path836"
           d="m 3368.65,2674.74 c 6.36,-6.36 16.67,-6.36 23.03,0 6.36,6.36 6.36,16.67 0,23.03 -6.36,6.35 -16.67,6.35 -23.03,0 -6.35,-6.36 -6.35,-16.67 0,-23.03"
           style="fill:#6d4136;fill-opacity:1;fill-rule:nonzero;stroke:none"
           transform="matrix(0.13333333,0,0,-0.13333333,0,666.66667)" />
        <path
           id="path837"
           d="m 3447.6,2595.79 c 6.36,-6.36 16.67,-6.36 23.03,0 6.36,6.36 6.36,16.67 0,23.03 -6.36,6.36 -16.67,6.36 -23.03,0 -6.36,-6.36 -6.36,-16.67 0,-23.03"
           style="fill:#6d4136;fill-opacity:1;fill-rule:nonzero;stroke:none"
           transform="matrix(0.13333333,0,0,-0.13333333,0,666.66667)" />
        <path
           id="path838"
           d="m 3549.58,2539.87 c -6.36,6.36 -16.67,6.36 -23.03,0 -6.36,-6.36 -6.36,-16.67 0,-23.03 6.36,-6.35 16.67,-6.35 23.03,0 6.35,6.36 6.35,16.67 0,23.03"
           style="fill:#6d4136;fill-opacity:1;fill-rule:nonzero;stroke:none"
           transform="matrix(0.13333333,0,0,-0.13333333,0,666.66667)" />
        <path
           id="path839"
           d="m 3605.5,2460.92 c -6.36,-6.35 -6.36,-16.67 0,-23.02 6.36,-6.36 16.66,-6.36 23.02,0 6.36,6.35 6.36,16.67 0,23.02 -6.36,6.36 -16.66,6.36 -23.02,0"
           style="fill:#6d4136;fill-opacity:1;fill-rule:nonzero;stroke:none"
           transform="matrix(0.13333333,0,0,-0.13333333,0,666.66667)" />
        <path
           id="path840"
           d="m 3707.47,2381.97 c -6.36,6.36 -16.67,6.36 -23.03,0 -6.35,-6.36 -6.35,-16.66 0,-23.03 6.36,-6.36 16.67,-6.36 23.03,0 6.36,6.37 6.36,16.67 0,23.03"
           style="fill:#6d4136;fill-opacity:1;fill-rule:nonzero;stroke:none"
           transform="matrix(0.13333333,0,0,-0.13333333,0,666.66667)" />
        <path
           id="path841"
           d="m 3786.42,2280 c 6.36,6.35 6.36,16.67 0,23.02 -6.36,6.36 -16.67,6.36 -23.03,0 -6.36,-6.35 -6.36,-16.67 0,-23.02 6.36,-6.36 16.67,-6.36 23.03,0"
           style="fill:#6d4136;fill-opacity:1;fill-rule:nonzero;stroke:none"
           transform="matrix(0.13333333,0,0,-0.13333333,0,666.66667)" />
        <path
           id="path842"
           d="m 3865.37,2201.05 c 6.35,6.36 6.35,16.67 0,23.03 -6.36,6.36 -16.67,6.36 -23.03,0 -6.36,-6.36 -6.36,-16.67 0,-23.03 6.36,-6.36 16.67,-6.36 23.03,0"
           style="fill:#6d4136;fill-opacity:1;fill-rule:nonzero;stroke:none"
           transform="matrix(0.13333333,0,0,-0.13333333,0,666.66667)" />
        <path
           id="path843"
           d="m 3944.31,2145.13 c -6.35,6.36 -16.66,6.36 -23.02,0 -6.36,-6.36 -6.36,-16.67 0,-23.02 3.86,-3.87 9.15,-5.09 14.16,-4.26 4.35,4.09 8.71,8.18 12.97,12.37 1.13,5.23 -0.04,10.85 -4.11,14.91"
           style="fill:#6d4136;fill-opacity:1;fill-rule:nonzero;stroke:none"
           transform="matrix(0.13333333,0,0,-0.13333333,0,666.66667)" />
        <path
           id="path844"
           d="m 2758.45,3192.83 c -6.36,-6.35 -6.36,-16.66 0,-23.02 6.36,-6.36 16.67,-6.36 23.03,0 6.36,6.36 6.36,16.67 0,23.02 -6.36,6.36 -16.67,6.36 -23.03,0"
           style="fill:#6d4136;fill-opacity:1;fill-rule:nonzero;stroke:none"
           transform="matrix(0.13333333,0,0,-0.13333333,0,666.66667)" />
        <path
           id="path845"
           d="m 2837.4,3113.89 c -6.36,-6.36 -6.36,-16.67 0,-23.03 6.36,-6.36 16.67,-6.36 23.03,0 6.35,6.36 6.35,16.67 0,23.03 -6.36,6.36 -16.67,6.36 -23.03,0"
           style="fill:#6d4136;fill-opacity:1;fill-rule:nonzero;stroke:none"
           transform="matrix(0.13333333,0,0,-0.13333333,0,666.66667)" />
        <path
           id="path846"
           d="m 2916.35,3011.91 c 6.36,-6.36 16.66,-6.36 23.03,0 6.35,6.36 6.35,16.67 0,23.03 -6.37,6.36 -16.67,6.36 -23.03,0 -6.36,-6.36 -6.36,-16.67 0,-23.03"
           style="fill:#6d4136;fill-opacity:1;fill-rule:nonzero;stroke:none"
           transform="matrix(0.13333333,0,0,-0.13333333,0,666.66667)" />
        <path
           id="path847"
           d="m 2995.29,2955.99 c -6.35,-6.36 -6.35,-16.67 0,-23.02 6.36,-6.37 16.67,-6.37 23.03,0 6.36,6.35 6.36,16.66 0,23.02 -6.36,6.36 -16.67,6.36 -23.03,0"
           style="fill:#6d4136;fill-opacity:1;fill-rule:nonzero;stroke:none"
           transform="matrix(0.13333333,0,0,-0.13333333,0,666.66667)" />
        <path
           id="path848"
           d="m 3074.24,2877.04 c -6.35,-6.35 -6.35,-16.67 0,-23.02 6.36,-6.36 16.67,-6.36 23.03,0 6.36,6.35 6.36,16.67 0,23.02 -6.36,6.36 -16.67,6.36 -23.03,0"
           style="fill:#6d4136;fill-opacity:1;fill-rule:nonzero;stroke:none"
           transform="matrix(0.13333333,0,0,-0.13333333,0,666.66667)" />
        <path
           id="path849"
           d="m 3153.19,2798.09 c -6.36,-6.35 -6.36,-16.66 0,-23.02 6.36,-6.36 16.67,-6.36 23.03,0 6.35,6.36 6.35,16.67 0,23.02 -6.36,6.36 -16.67,6.36 -23.03,0"
           style="fill:#6d4136;fill-opacity:1;fill-rule:nonzero;stroke:none"
           transform="matrix(0.13333333,0,0,-0.13333333,0,666.66667)" />
        <path
           id="path850"
           d="m 3232.14,2696.12 c 6.36,-6.36 16.66,-6.36 23.03,0 6.35,6.36 6.35,16.67 0,23.03 -6.37,6.35 -16.67,6.35 -23.03,0 -6.36,-6.36 -6.36,-16.67 0,-23.03"
           style="fill:#6d4136;fill-opacity:1;fill-rule:nonzero;stroke:none"
           transform="matrix(0.13333333,0,0,-0.13333333,0,666.66667)" />
        <path
           id="path851"
           d="m 3311.09,2617.17 c 6.36,-6.36 16.67,-6.36 23.02,0 6.36,6.36 6.36,16.67 0,23.03 -6.35,6.36 -16.66,6.36 -23.02,0 -6.36,-6.36 -6.36,-16.67 0,-23.03"
           style="fill:#6d4136;fill-opacity:1;fill-rule:nonzero;stroke:none"
           transform="matrix(0.13333333,0,0,-0.13333333,0,666.66667)" />
        <path
           id="path852"
           d="m 3390.04,2561.25 c -6.36,-6.36 -6.36,-16.67 0,-23.03 6.35,-6.35 16.67,-6.35 23.02,0 6.36,6.36 6.36,16.67 0,23.03 -6.35,6.36 -16.67,6.36 -23.02,0"
           style="fill:#6d4136;fill-opacity:1;fill-rule:nonzero;stroke:none"
           transform="matrix(0.13333333,0,0,-0.13333333,0,666.66667)" />
        <path
           id="path853"
           d="m 3492.01,2459.27 c 6.36,6.36 6.36,16.67 0,23.03 -6.36,6.36 -16.67,6.36 -23.03,0 -6.36,-6.36 -6.36,-16.67 0,-23.03 6.36,-6.35 16.67,-6.35 23.03,0"
           style="fill:#6d4136;fill-opacity:1;fill-rule:nonzero;stroke:none"
           transform="matrix(0.13333333,0,0,-0.13333333,0,666.66667)" />
        <path
           id="path854"
           d="m 3570.96,2403.36 c -6.36,6.35 -16.67,6.35 -23.03,0 -6.36,-6.36 -6.36,-16.67 0,-23.03 6.36,-6.36 16.67,-6.36 23.03,0 6.36,6.36 6.36,16.67 0,23.03"
           style="fill:#6d4136;fill-opacity:1;fill-rule:nonzero;stroke:none"
           transform="matrix(0.13333333,0,0,-0.13333333,0,666.66667)" />
        <path
           id="path855"
           d="m 3649.9,2324.41 c -6.35,6.36 -16.66,6.36 -23.02,0 -6.36,-6.37 -6.36,-16.67 0,-23.03 6.36,-6.35 16.67,-6.35 23.02,0 6.37,6.36 6.37,16.66 0,23.03"
           style="fill:#6d4136;fill-opacity:1;fill-rule:nonzero;stroke:none"
           transform="matrix(0.13333333,0,0,-0.13333333,0,666.66667)" />
        <path
           id="path856"
           d="m 3728.85,2222.43 c 6.36,6.36 6.36,16.67 0,23.03 -6.35,6.35 -16.67,6.35 -23.02,0 -6.36,-6.36 -6.36,-16.67 0,-23.03 6.35,-6.36 16.67,-6.36 23.02,0"
           style="fill:#6d4136;fill-opacity:1;fill-rule:nonzero;stroke:none"
           transform="matrix(0.13333333,0,0,-0.13333333,0,666.66667)" />
        <path
           id="path857"
           d="m 3807.8,2143.48 c 6.36,6.36 6.36,16.67 0,23.03 -6.36,6.36 -16.67,6.36 -23.03,0 -6.36,-6.36 -6.36,-16.67 0,-23.03 6.36,-6.35 16.67,-6.35 23.03,0"
           style="fill:#6d4136;fill-opacity:1;fill-rule:nonzero;stroke:none"
           transform="matrix(0.13333333,0,0,-0.13333333,0,666.66667)" />
        <path
           id="path858"
           d="m 3863.73,2087.57 c -6.36,-6.36 -6.36,-16.67 0,-23.03 1.44,-1.45 3.13,-2.47 4.9,-3.26 7.55,5.72 15,11.59 22.34,17.56 -0.55,3.18 -1.76,6.26 -4.22,8.73 -6.36,6.35 -16.67,6.35 -23.02,0"
           style="fill:#6d4136;fill-opacity:1;fill-rule:nonzero;stroke:none"
           transform="matrix(0.13333333,0,0,-0.13333333,0,666.66667)" />
        <path
           id="path859"
           d="m 2700.89,3135.27 c -6.36,-6.36 -6.36,-16.67 0,-23.03 6.35,-6.36 16.66,-6.36 23.02,0 6.36,6.36 6.36,16.67 0,23.03 -6.36,6.36 -16.67,6.36 -23.02,0"
           style="fill:#6d4136;fill-opacity:1;fill-rule:nonzero;stroke:none"
           transform="matrix(0.13333333,0,0,-0.13333333,0,666.66667)" />
        <path
           id="path860"
           d="m 2779.84,3056.32 c -6.37,-6.36 -6.37,-16.67 0,-23.03 6.35,-6.35 16.66,-6.35 23.02,0 6.36,6.36 6.36,16.67 0,23.03 -6.36,6.36 -16.67,6.36 -23.02,0"
           style="fill:#6d4136;fill-opacity:1;fill-rule:nonzero;stroke:none"
           transform="matrix(0.13333333,0,0,-0.13333333,0,666.66667)" />
        <path
           id="path861"
           d="m 2858.78,2954.35 c 6.36,-6.36 16.67,-6.36 23.03,0 6.36,6.35 6.36,16.66 0,23.02 -6.36,6.36 -16.67,6.36 -23.03,0 -6.36,-6.36 -6.36,-16.67 0,-23.02"
           style="fill:#6d4136;fill-opacity:1;fill-rule:nonzero;stroke:none"
           transform="matrix(0.13333333,0,0,-0.13333333,0,666.66667)" />
        <path
           id="path862"
           d="m 2937.73,2898.42 c -6.36,-6.35 -6.36,-16.67 0,-23.02 6.36,-6.36 16.67,-6.36 23.02,0 6.37,6.35 6.37,16.67 0,23.02 -6.35,6.36 -16.66,6.36 -23.02,0"
           style="fill:#6d4136;fill-opacity:1;fill-rule:nonzero;stroke:none"
           transform="matrix(0.13333333,0,0,-0.13333333,0,666.66667)" />
        <path
           id="path863"
           d="m 3016.68,2819.47 c -6.36,-6.35 -6.36,-16.66 0,-23.02 6.35,-6.36 16.67,-6.36 23.02,0 6.36,6.36 6.36,16.67 0,23.02 -6.35,6.37 -16.67,6.37 -23.02,0"
           style="fill:#6d4136;fill-opacity:1;fill-rule:nonzero;stroke:none"
           transform="matrix(0.13333333,0,0,-0.13333333,0,666.66667)" />
        <path
           id="path864"
           d="m 3095.63,2740.53 c -6.36,-6.36 -6.36,-16.67 0,-23.03 6.35,-6.36 16.66,-6.36 23.02,0 6.36,6.36 6.36,16.67 0,23.03 -6.36,6.36 -16.67,6.36 -23.02,0"
           style="fill:#6d4136;fill-opacity:1;fill-rule:nonzero;stroke:none"
           transform="matrix(0.13333333,0,0,-0.13333333,0,666.66667)" />
        <path
           id="path865"
           d="m 3174.57,2638.55 c 6.36,-6.36 16.67,-6.36 23.03,0 6.36,6.36 6.36,16.67 0,23.03 -6.36,6.36 -16.67,6.36 -23.03,0 -6.36,-6.36 -6.36,-16.67 0,-23.03"
           style="fill:#6d4136;fill-opacity:1;fill-rule:nonzero;stroke:none"
           transform="matrix(0.13333333,0,0,-0.13333333,0,666.66667)" />
        <path
           id="path866"
           d="m 3276.55,2582.63 c -6.36,6.36 -16.67,6.36 -23.03,0 -6.36,-6.35 -6.36,-16.67 0,-23.02 6.36,-6.36 16.67,-6.36 23.03,0 6.36,6.35 6.36,16.67 0,23.02"
           style="fill:#6d4136;fill-opacity:1;fill-rule:nonzero;stroke:none"
           transform="matrix(0.13333333,0,0,-0.13333333,0,666.66667)" />
        <path
           id="path867"
           d="m 3355.49,2480.66 c 6.36,6.36 6.36,16.67 0,23.02 -6.35,6.36 -16.66,6.36 -23.02,0 -6.36,-6.35 -6.36,-16.66 0,-23.02 6.36,-6.36 16.67,-6.36 23.02,0"
           style="fill:#6d4136;fill-opacity:1;fill-rule:nonzero;stroke:none"
           transform="matrix(0.13333333,0,0,-0.13333333,0,666.66667)" />
        <path
           id="path868"
           d="m 3411.42,2401.71 c 6.35,-6.36 16.67,-6.36 23.02,0 6.36,6.36 6.36,16.67 0,23.02 -6.35,6.36 -16.67,6.36 -23.02,0 -6.36,-6.35 -6.36,-16.66 0,-23.02"
           style="fill:#6d4136;fill-opacity:1;fill-rule:nonzero;stroke:none"
           transform="matrix(0.13333333,0,0,-0.13333333,0,666.66667)" />
        <path
           id="path869"
           d="m 3513.39,2345.79 c -6.36,6.36 -16.67,6.36 -23.02,0 -6.36,-6.36 -6.36,-16.67 0,-23.03 6.35,-6.36 16.66,-6.36 23.02,0 6.36,6.36 6.36,16.67 0,23.03"
           style="fill:#6d4136;fill-opacity:1;fill-rule:nonzero;stroke:none"
           transform="matrix(0.13333333,0,0,-0.13333333,0,666.66667)" />
        <path
           id="path870"
           d="m 3592.34,2243.82 c 6.36,6.35 6.36,16.67 0,23.02 -6.36,6.36 -16.67,6.36 -23.03,0 -6.35,-6.35 -6.35,-16.67 0,-23.02 6.36,-6.36 16.67,-6.36 23.03,0"
           style="fill:#6d4136;fill-opacity:1;fill-rule:nonzero;stroke:none"
           transform="matrix(0.13333333,0,0,-0.13333333,0,666.66667)" />
        <path
           id="path871"
           d="m 3671.29,2164.87 c 6.36,6.36 6.36,16.66 0,23.03 -6.36,6.35 -16.67,6.35 -23.03,0 -6.36,-6.37 -6.36,-16.67 0,-23.03 6.36,-6.37 16.67,-6.37 23.03,0"
           style="fill:#6d4136;fill-opacity:1;fill-rule:nonzero;stroke:none"
           transform="matrix(0.13333333,0,0,-0.13333333,0,666.66667)" />
        <path
           id="path872"
           d="m 3750.24,2085.91 c 6.35,6.36 6.35,16.67 0,23.03 -6.36,6.36 -16.67,6.36 -23.03,0 -6.36,-6.36 -6.36,-16.67 0,-23.03 6.36,-6.35 16.67,-6.35 23.03,0"
           style="fill:#6d4136;fill-opacity:1;fill-rule:nonzero;stroke:none"
           transform="matrix(0.13333333,0,0,-0.13333333,0,666.66667)" />
        <path
           id="path873"
           d="m 3806.16,2030 c -3.9,-3.9 -5.12,-9.24 -4.23,-14.29 8.38,5.14 16.63,10.48 24.81,15.91 -6.34,4.35 -14.95,4.01 -20.58,-1.62"
           style="fill:#6d4136;fill-opacity:1;fill-rule:nonzero;stroke:none"
           transform="matrix(0.13333333,0,0,-0.13333333,0,666.66667)" />
        <path
           id="path874"
           d="m 2643.32,3077.7 c -6.36,-6.36 -6.36,-16.67 0,-23.03 6.36,-6.35 16.67,-6.35 23.02,0 6.37,6.36 6.37,16.67 0,23.03 -6.35,6.36 -16.66,6.36 -23.02,0"
           style="fill:#6d4136;fill-opacity:1;fill-rule:nonzero;stroke:none"
           transform="matrix(0.13333333,0,0,-0.13333333,0,666.66667)" />
        <path
           id="path875"
           d="m 2722.27,2998.75 c -6.36,-6.36 -6.36,-16.66 0,-23.02 6.35,-6.36 16.67,-6.36 23.02,0 6.36,6.36 6.36,16.66 0,23.02 -6.35,6.36 -16.67,6.36 -23.02,0"
           style="fill:#6d4136;fill-opacity:1;fill-rule:nonzero;stroke:none"
           transform="matrix(0.13333333,0,0,-0.13333333,0,666.66667)" />
        <path
           id="path876"
           d="m 2801.22,2896.78 c 6.35,-6.36 16.66,-6.36 23.02,0 6.36,6.36 6.36,16.67 0,23.03 -6.36,6.35 -16.67,6.35 -23.02,0 -6.37,-6.36 -6.37,-16.67 0,-23.03"
           style="fill:#6d4136;fill-opacity:1;fill-rule:nonzero;stroke:none"
           transform="matrix(0.13333333,0,0,-0.13333333,0,666.66667)" />
        <path
           id="path877"
           d="m 2880.16,2840.86 c -6.36,-6.36 -6.36,-16.67 0,-23.03 6.36,-6.36 16.67,-6.36 23.03,0 6.36,6.36 6.36,16.67 0,23.03 -6.36,6.36 -16.67,6.36 -23.03,0"
           style="fill:#6d4136;fill-opacity:1;fill-rule:nonzero;stroke:none"
           transform="matrix(0.13333333,0,0,-0.13333333,0,666.66667)" />
        <path
           id="path878"
           d="m 2959.11,2761.91 c -6.36,-6.36 -6.36,-16.67 0,-23.03 6.36,-6.35 16.67,-6.35 23.03,0 6.36,6.36 6.36,16.67 0,23.03 -6.36,6.36 -16.67,6.36 -23.03,0"
           style="fill:#6d4136;fill-opacity:1;fill-rule:nonzero;stroke:none"
           transform="matrix(0.13333333,0,0,-0.13333333,0,666.66667)" />
        <path
           id="path879"
           d="m 3038.06,2682.96 c -6.36,-6.36 -6.36,-16.66 0,-23.03 6.36,-6.35 16.67,-6.35 23.03,0 6.35,6.37 6.35,16.67 0,23.03 -6.36,6.36 -16.67,6.36 -23.03,0"
           style="fill:#6d4136;fill-opacity:1;fill-rule:nonzero;stroke:none"
           transform="matrix(0.13333333,0,0,-0.13333333,0,666.66667)" />
        <path
           id="path880"
           d="m 3117.01,2580.99 c 6.36,-6.36 16.66,-6.36 23.03,0 6.35,6.36 6.35,16.66 0,23.03 -6.37,6.35 -16.67,6.35 -23.03,0 -6.36,-6.37 -6.36,-16.67 0,-23.03"
           style="fill:#6d4136;fill-opacity:1;fill-rule:nonzero;stroke:none"
           transform="matrix(0.13333333,0,0,-0.13333333,0,666.66667)" />
        <path
           id="path881"
           d="m 3195.95,2525.07 c -6.35,-6.36 -6.35,-16.67 0,-23.03 6.37,-6.36 16.67,-6.36 23.03,0 6.36,6.36 6.36,16.67 0,23.03 -6.36,6.35 -16.66,6.35 -23.03,0"
           style="fill:#6d4136;fill-opacity:1;fill-rule:nonzero;stroke:none"
           transform="matrix(0.13333333,0,0,-0.13333333,0,666.66667)" />
        <path
           id="path882"
           d="m 3297.93,2423.09 c 6.36,6.36 6.36,16.67 0,23.03 -6.36,6.36 -16.67,6.36 -23.03,0 -6.35,-6.36 -6.35,-16.67 0,-23.03 6.36,-6.35 16.67,-6.35 23.03,0"
           style="fill:#6d4136;fill-opacity:1;fill-rule:nonzero;stroke:none"
           transform="matrix(0.13333333,0,0,-0.13333333,0,666.66667)" />
        <path
           id="path883"
           d="m 3376.88,2367.17 c -6.36,6.36 -16.67,6.36 -23.03,0 -6.36,-6.36 -6.36,-16.67 0,-23.02 6.36,-6.36 16.67,-6.36 23.03,0 6.35,6.35 6.35,16.66 0,23.02"
           style="fill:#6d4136;fill-opacity:1;fill-rule:nonzero;stroke:none"
           transform="matrix(0.13333333,0,0,-0.13333333,0,666.66667)" />
        <path
           id="path884"
           d="m 3455.83,2288.22 c -6.36,6.36 -16.67,6.36 -23.03,0 -6.36,-6.36 -6.36,-16.67 0,-23.03 6.36,-6.36 16.67,-6.36 23.03,0 6.35,6.36 6.35,16.67 0,23.03"
           style="fill:#6d4136;fill-opacity:1;fill-rule:nonzero;stroke:none"
           transform="matrix(0.13333333,0,0,-0.13333333,0,666.66667)" />
        <path
           id="path885"
           d="m 3534.77,2186.25 c 6.36,6.35 6.36,16.67 0,23.02 -6.36,6.36 -16.66,6.36 -23.03,0 -6.35,-6.35 -6.35,-16.67 0,-23.02 6.37,-6.36 16.67,-6.36 23.03,0"
           style="fill:#6d4136;fill-opacity:1;fill-rule:nonzero;stroke:none"
           transform="matrix(0.13333333,0,0,-0.13333333,0,666.66667)" />
        <path
           id="path886"
           d="m 3613.72,2107.3 c 6.36,6.36 6.36,16.67 0,23.03 -6.36,6.36 -16.67,6.36 -23.03,0 -6.35,-6.36 -6.35,-16.67 0,-23.03 6.36,-6.36 16.67,-6.36 23.03,0"
           style="fill:#6d4136;fill-opacity:1;fill-rule:nonzero;stroke:none"
           transform="matrix(0.13333333,0,0,-0.13333333,0,666.66667)" />
        <path
           id="path887"
           d="m 3692.67,2028.36 c 6.36,6.35 6.36,16.66 0,23.01 -6.36,6.37 -16.67,6.37 -23.03,0 -6.36,-6.35 -6.36,-16.66 0,-23.01 6.36,-6.37 16.67,-6.37 23.03,0"
           style="fill:#6d4136;fill-opacity:1;fill-rule:nonzero;stroke:none"
           transform="matrix(0.13333333,0,0,-0.13333333,0,666.66667)" />
        <path
           id="path888"
           d="m 2608.78,2997.11 c 5.07,5.06 5.91,12.56 2.91,18.65 -2.92,-7.4 -5.88,-14.78 -8.59,-22.29 2.06,0.8 4.01,1.97 5.68,3.64"
           style="fill:#6d4136;fill-opacity:1;fill-rule:nonzero;stroke:none"
           transform="matrix(0.13333333,0,0,-0.13333333,0,666.66667)" />
        <path
           id="path889"
           d="m 2664.7,2941.19 c -6.36,-6.36 -6.36,-16.67 0,-23.03 6.36,-6.36 16.67,-6.36 23.03,0 6.36,6.36 6.36,16.67 0,23.03 -6.36,6.36 -16.67,6.36 -23.03,0"
           style="fill:#6d4136;fill-opacity:1;fill-rule:nonzero;stroke:none"
           transform="matrix(0.13333333,0,0,-0.13333333,0,666.66667)" />
        <path
           id="path890"
           d="m 2743.65,2839.22 c 6.36,-6.37 16.67,-6.37 23.03,0 6.35,6.35 6.35,16.66 0,23.02 -6.36,6.36 -16.67,6.36 -23.03,0 -6.36,-6.36 -6.36,-16.67 0,-23.02"
           style="fill:#6d4136;fill-opacity:1;fill-rule:nonzero;stroke:none"
           transform="matrix(0.13333333,0,0,-0.13333333,0,666.66667)" />
        <path
           id="path891"
           d="m 2822.6,2783.29 c -6.36,-6.35 -6.36,-16.67 0,-23.02 6.36,-6.36 16.66,-6.36 23.02,0 6.36,6.35 6.36,16.67 0,23.02 -6.36,6.36 -16.66,6.36 -23.02,0"
           style="fill:#6d4136;fill-opacity:1;fill-rule:nonzero;stroke:none"
           transform="matrix(0.13333333,0,0,-0.13333333,0,666.66667)" />
        <path
           id="path892"
           d="m 2901.54,2704.34 c -6.35,-6.35 -6.35,-16.66 0,-23.02 6.36,-6.36 16.67,-6.36 23.03,0 6.36,6.36 6.36,16.67 0,23.02 -6.36,6.36 -16.67,6.36 -23.03,0"
           style="fill:#6d4136;fill-opacity:1;fill-rule:nonzero;stroke:none"
           transform="matrix(0.13333333,0,0,-0.13333333,0,666.66667)" />
        <path
           id="path893"
           d="m 2980.49,2602.37 c 6.36,-6.36 16.67,-6.36 23.03,0 6.36,6.36 6.36,16.67 0,23.03 -6.36,6.35 -16.67,6.35 -23.03,0 -6.36,-6.36 -6.36,-16.67 0,-23.03"
           style="fill:#6d4136;fill-opacity:1;fill-rule:nonzero;stroke:none"
           transform="matrix(0.13333333,0,0,-0.13333333,0,666.66667)" />
        <path
           id="path894"
           d="m 3059.44,2523.42 c 6.36,-6.36 16.67,-6.36 23.03,0 6.35,6.36 6.35,16.67 0,23.03 -6.36,6.35 -16.67,6.35 -23.03,0 -6.36,-6.36 -6.36,-16.67 0,-23.03"
           style="fill:#6d4136;fill-opacity:1;fill-rule:nonzero;stroke:none"
           transform="matrix(0.13333333,0,0,-0.13333333,0,666.66667)" />
        <path
           id="path895"
           d="m 3138.39,2467.5 c -6.36,-6.36 -6.36,-16.66 0,-23.03 6.36,-6.36 16.66,-6.36 23.02,0 6.36,6.37 6.36,16.67 0,23.03 -6.36,6.35 -16.66,6.35 -23.02,0"
           style="fill:#6d4136;fill-opacity:1;fill-rule:nonzero;stroke:none"
           transform="matrix(0.13333333,0,0,-0.13333333,0,666.66667)" />
        <path
           id="path896"
           d="m 3240.36,2388.55 c -6.35,6.36 -16.67,6.36 -23.02,0 -6.36,-6.36 -6.36,-16.67 0,-23.03 6.35,-6.35 16.67,-6.35 23.02,0 6.36,6.36 6.36,16.67 0,23.03"
           style="fill:#6d4136;fill-opacity:1;fill-rule:nonzero;stroke:none"
           transform="matrix(0.13333333,0,0,-0.13333333,0,666.66667)" />
        <path
           id="path897"
           d="m 3319.31,2309.61 c -6.36,6.35 -16.67,6.35 -23.02,0 -6.36,-6.36 -6.36,-16.67 0,-23.03 6.35,-6.36 16.66,-6.36 23.02,0 6.36,6.36 6.36,16.67 0,23.03"
           style="fill:#6d4136;fill-opacity:1;fill-rule:nonzero;stroke:none"
           transform="matrix(0.13333333,0,0,-0.13333333,0,666.66667)" />
        <path
           id="path898"
           d="m 3398.26,2207.63 c 6.36,6.36 6.36,16.66 0,23.02 -6.36,6.37 -16.67,6.37 -23.03,0 -6.36,-6.36 -6.36,-16.66 0,-23.02 6.36,-6.36 16.67,-6.36 23.03,0"
           style="fill:#6d4136;fill-opacity:1;fill-rule:nonzero;stroke:none"
           transform="matrix(0.13333333,0,0,-0.13333333,0,666.66667)" />
        <path
           id="path899"
           d="m 3477.21,2128.68 c 6.36,6.36 6.36,16.67 0,23.03 -6.36,6.35 -16.67,6.35 -23.03,0 -6.36,-6.36 -6.36,-16.67 0,-23.03 6.36,-6.36 16.67,-6.36 23.03,0"
           style="fill:#6d4136;fill-opacity:1;fill-rule:nonzero;stroke:none"
           transform="matrix(0.13333333,0,0,-0.13333333,0,666.66667)" />
        <path
           id="path900"
           d="m 3556.15,2072.76 c -6.35,6.36 -16.66,6.36 -23.02,0 -6.36,-6.36 -6.36,-16.67 0,-23.03 6.36,-6.35 16.67,-6.35 23.02,0 6.36,6.36 6.36,16.67 0,23.03"
           style="fill:#6d4136;fill-opacity:1;fill-rule:nonzero;stroke:none"
           transform="matrix(0.13333333,0,0,-0.13333333,0,666.66667)" />
        <path
           id="path901"
           d="m 3635.1,1970.79 c 6.36,6.36 6.36,16.67 0,23.03 -6.35,6.35 -16.67,6.35 -23.02,0 -6.36,-6.36 -6.36,-16.67 0,-23.03 6.35,-6.36 16.67,-6.36 23.02,0"
           style="fill:#6d4136;fill-opacity:1;fill-rule:nonzero;stroke:none"
           transform="matrix(0.13333333,0,0,-0.13333333,0,666.66667)" />
        <path
           id="path902"
           d="m 2607.14,2883.62 c -6.36,-6.36 -6.36,-16.67 0,-23.02 6.35,-6.36 16.66,-6.36 23.02,0 6.36,6.35 6.36,16.66 0,23.02 -6.36,6.36 -16.67,6.36 -23.02,0"
           style="fill:#6d4136;fill-opacity:1;fill-rule:nonzero;stroke:none"
           transform="matrix(0.13333333,0,0,-0.13333333,0,666.66667)" />
        <path
           id="path903"
           d="m 2686.09,2781.65 c 6.35,-6.36 16.66,-6.36 23.02,0 6.36,6.35 6.36,16.66 0,23.02 -6.36,6.36 -16.67,6.36 -23.02,0 -6.37,-6.36 -6.37,-16.67 0,-23.02"
           style="fill:#6d4136;fill-opacity:1;fill-rule:nonzero;stroke:none"
           transform="matrix(0.13333333,0,0,-0.13333333,0,666.66667)" />
        <path
           id="path904"
           d="m 2765.03,2725.72 c -6.36,-6.35 -6.36,-16.66 0,-23.02 6.36,-6.36 16.67,-6.36 23.03,0 6.36,6.36 6.36,16.67 0,23.02 -6.36,6.37 -16.67,6.37 -23.03,0"
           style="fill:#6d4136;fill-opacity:1;fill-rule:nonzero;stroke:none"
           transform="matrix(0.13333333,0,0,-0.13333333,0,666.66667)" />
        <path
           id="path905"
           d="m 2843.98,2623.75 c 6.36,-6.36 16.67,-6.36 23.02,0 6.37,6.36 6.37,16.67 0,23.03 -6.35,6.36 -16.66,6.36 -23.02,0 -6.36,-6.36 -6.36,-16.67 0,-23.03"
           style="fill:#6d4136;fill-opacity:1;fill-rule:nonzero;stroke:none"
           transform="matrix(0.13333333,0,0,-0.13333333,0,666.66667)" />
        <path
           id="path906"
           d="m 2922.93,2544.8 c 6.35,-6.36 16.67,-6.36 23.02,0 6.36,6.36 6.36,16.67 0,23.03 -6.35,6.36 -16.67,6.36 -23.02,0 -6.36,-6.36 -6.36,-16.67 0,-23.03"
           style="fill:#6d4136;fill-opacity:1;fill-rule:nonzero;stroke:none"
           transform="matrix(0.13333333,0,0,-0.13333333,0,666.66667)" />
        <path
           id="path907"
           d="m 3001.88,2488.88 c -6.37,-6.35 -6.37,-16.67 0,-23.02 6.35,-6.36 16.66,-6.36 23.02,0 6.36,6.35 6.36,16.67 0,23.02 -6.36,6.36 -16.67,6.36 -23.02,0"
           style="fill:#6d4136;fill-opacity:1;fill-rule:nonzero;stroke:none"
           transform="matrix(0.13333333,0,0,-0.13333333,0,666.66667)" />
        <path
           id="path908"
           d="m 3103.85,2409.94 c -6.36,6.36 -16.67,6.36 -23.03,0 -6.36,-6.37 -6.36,-16.67 0,-23.03 6.36,-6.36 16.67,-6.36 23.03,0 6.36,6.36 6.36,16.66 0,23.03"
           style="fill:#6d4136;fill-opacity:1;fill-rule:nonzero;stroke:none"
           transform="matrix(0.13333333,0,0,-0.13333333,0,666.66667)" />
        <path
           id="path909"
           d="m 3182.8,2330.98 c -6.36,6.36 -16.67,6.36 -23.03,0 -6.36,-6.35 -6.36,-16.67 0,-23.02 6.36,-6.36 16.67,-6.36 23.03,0 6.36,6.35 6.36,16.67 0,23.02"
           style="fill:#6d4136;fill-opacity:1;fill-rule:nonzero;stroke:none"
           transform="matrix(0.13333333,0,0,-0.13333333,0,666.66667)" />
        <path
           id="path910"
           d="m 3261.74,2229.01 c 6.36,6.36 6.36,16.67 0,23.03 -6.35,6.36 -16.66,6.36 -23.02,0 -6.36,-6.36 -6.36,-16.67 0,-23.03 6.36,-6.36 16.67,-6.36 23.02,0"
           style="fill:#6d4136;fill-opacity:1;fill-rule:nonzero;stroke:none"
           transform="matrix(0.13333333,0,0,-0.13333333,0,666.66667)" />
        <path
           id="path911"
           d="m 3340.69,2150.07 c 6.36,6.35 6.36,16.67 0,23.02 -6.36,6.36 -16.67,6.36 -23.02,0 -6.37,-6.35 -6.37,-16.67 0,-23.02 6.35,-6.36 16.66,-6.36 23.02,0"
           style="fill:#6d4136;fill-opacity:1;fill-rule:nonzero;stroke:none"
           transform="matrix(0.13333333,0,0,-0.13333333,0,666.66667)" />
        <path
           id="path912"
           d="m 3419.64,2071.12 c 6.36,6.36 6.36,16.66 0,23.02 -6.36,6.36 -16.67,6.36 -23.03,0 -6.35,-6.36 -6.35,-16.66 0,-23.02 6.36,-6.37 16.67,-6.37 23.03,0"
           style="fill:#6d4136;fill-opacity:1;fill-rule:nonzero;stroke:none"
           transform="matrix(0.13333333,0,0,-0.13333333,0,666.66667)" />
        <path
           id="path913"
           d="m 3498.59,1992.16 c 6.36,6.36 6.36,16.67 0,23.03 -6.36,6.36 -16.67,6.36 -23.03,0 -6.35,-6.36 -6.35,-16.67 0,-23.03 6.36,-6.35 16.67,-6.35 23.03,0"
           style="fill:#6d4136;fill-opacity:1;fill-rule:nonzero;stroke:none"
           transform="matrix(0.13333333,0,0,-0.13333333,0,666.66667)" />
        <path
           id="path914"
           d="m 3577.54,1936.25 c -6.36,6.35 -16.67,6.35 -23.03,0 -5.77,-5.77 -6.03,-14.67 -1.32,-21.05 9.57,2.14 19.13,4.28 28.57,6.74 0.89,5.05 -0.32,10.4 -4.22,14.31"
           style="fill:#6d4136;fill-opacity:1;fill-rule:nonzero;stroke:none"
           transform="matrix(0.13333333,0,0,-0.13333333,0,666.66667)" />
        <path
           id="path915"
           d="m 2572.59,2803.03 c 6.36,6.36 6.36,16.67 0,23.03 -2.73,2.73 -6.23,4.05 -9.81,4.43 -1.48,-10.55 -2.94,-21.1 -4.02,-31.78 4.91,-0.72 10.05,0.54 13.83,4.32"
           style="fill:#6d4136;fill-opacity:1;fill-rule:nonzero;stroke:none"
           transform="matrix(0.13333333,0,0,-0.13333333,0,666.66667)" />
        <path
           id="path916"
           d="m 2628.52,2724.08 c 6.35,-6.36 16.66,-6.36 23.02,0 6.36,6.36 6.36,16.67 0,23.03 -6.36,6.35 -16.67,6.35 -23.02,0 -6.36,-6.36 -6.36,-16.67 0,-23.03"
           style="fill:#6d4136;fill-opacity:1;fill-rule:nonzero;stroke:none"
           transform="matrix(0.13333333,0,0,-0.13333333,0,666.66667)" />
        <path
           id="path917"
           d="m 2730.49,2668.16 c -6.36,6.36 -16.67,6.36 -23.03,0 -6.36,-6.36 -6.36,-16.67 0,-23.03 6.36,-6.35 16.67,-6.35 23.03,0 6.36,6.36 6.36,16.67 0,23.03"
           style="fill:#6d4136;fill-opacity:1;fill-rule:nonzero;stroke:none"
           transform="matrix(0.13333333,0,0,-0.13333333,0,666.66667)" />
        <path
           id="path918"
           d="m 2786.41,2566.18 c 6.36,-6.35 16.67,-6.35 23.03,0 6.36,6.37 6.36,16.67 0,23.03 -6.36,6.36 -16.67,6.36 -23.03,0 -6.36,-6.36 -6.36,-16.66 0,-23.03"
           style="fill:#6d4136;fill-opacity:1;fill-rule:nonzero;stroke:none"
           transform="matrix(0.13333333,0,0,-0.13333333,0,666.66667)" />
        <path
           id="path919"
           d="m 2888.39,2510.27 c -6.36,6.35 -16.67,6.35 -23.03,0 -6.36,-6.37 -6.36,-16.67 0,-23.04 6.36,-6.35 16.67,-6.35 23.03,0 6.36,6.37 6.36,16.67 0,23.04"
           style="fill:#6d4136;fill-opacity:1;fill-rule:nonzero;stroke:none"
           transform="matrix(0.13333333,0,0,-0.13333333,0,666.66667)" />
        <path
           id="path920"
           d="m 2967.34,2431.32 c -6.36,6.35 -16.67,6.35 -23.03,0 -6.36,-6.36 -6.36,-16.67 0,-23.03 6.36,-6.36 16.67,-6.36 23.03,0 6.35,6.36 6.35,16.67 0,23.03"
           style="fill:#6d4136;fill-opacity:1;fill-rule:nonzero;stroke:none"
           transform="matrix(0.13333333,0,0,-0.13333333,0,666.66667)" />
        <path
           id="path921"
           d="m 3046.28,2352.37 c -6.36,6.36 -16.66,6.36 -23.02,0 -6.36,-6.36 -6.36,-16.67 0,-23.03 6.36,-6.35 16.66,-6.35 23.02,0 6.36,6.36 6.36,16.67 0,23.03"
           style="fill:#6d4136;fill-opacity:1;fill-rule:nonzero;stroke:none"
           transform="matrix(0.13333333,0,0,-0.13333333,0,666.66667)" />
        <path
           id="path922"
           d="m 3125.23,2250.4 c 6.36,6.35 6.36,16.66 0,23.01 -6.36,6.37 -16.67,6.37 -23.03,0 -6.35,-6.35 -6.35,-16.66 0,-23.01 6.36,-6.37 16.67,-6.37 23.03,0"
           style="fill:#6d4136;fill-opacity:1;fill-rule:nonzero;stroke:none"
           transform="matrix(0.13333333,0,0,-0.13333333,0,666.66667)" />
        <path
           id="path923"
           d="m 3204.18,2171.44 c 6.36,6.36 6.36,16.67 0,23.03 -6.36,6.36 -16.67,6.36 -23.03,0 -6.36,-6.36 -6.36,-16.67 0,-23.03 6.36,-6.36 16.67,-6.36 23.03,0"
           style="fill:#6d4136;fill-opacity:1;fill-rule:nonzero;stroke:none"
           transform="matrix(0.13333333,0,0,-0.13333333,0,666.66667)" />
        <path
           id="path924"
           d="m 3283.13,2092.5 c 6.35,6.35 6.35,16.67 0,23.02 -6.36,6.36 -16.67,6.36 -23.03,0 -6.36,-6.35 -6.36,-16.67 0,-23.02 6.36,-6.36 16.67,-6.36 23.03,0"
           style="fill:#6d4136;fill-opacity:1;fill-rule:nonzero;stroke:none"
           transform="matrix(0.13333333,0,0,-0.13333333,0,666.66667)" />
        <path
           id="path925"
           d="m 3362.08,2013.55 c 6.35,6.36 6.35,16.67 0,23.03 -6.37,6.36 -16.67,6.36 -23.03,0 -6.36,-6.36 -6.36,-16.67 0,-23.03 6.36,-6.36 16.66,-6.36 23.03,0"
           style="fill:#6d4136;fill-opacity:1;fill-rule:nonzero;stroke:none"
           transform="matrix(0.13333333,0,0,-0.13333333,0,666.66667)" />
        <path
           id="path926"
           d="m 3441.02,1934.6 c 6.36,6.36 6.36,16.67 0,23.02 -6.36,6.37 -16.66,6.37 -23.03,0 -6.35,-6.35 -6.35,-16.66 0,-23.02 6.37,-6.36 16.67,-6.36 23.03,0"
           style="fill:#6d4136;fill-opacity:1;fill-rule:nonzero;stroke:none"
           transform="matrix(0.13333333,0,0,-0.13333333,0,666.66667)" />
        <path
           id="path927"
           d="m 2593.98,2689.54 c -6.36,6.36 -16.67,6.36 -23.03,0 -6.36,-6.36 -6.36,-16.67 0,-23.02 6.36,-6.36 16.67,-6.36 23.03,0 6.35,6.35 6.35,16.66 0,23.02"
           style="fill:#6d4136;fill-opacity:1;fill-rule:nonzero;stroke:none"
           transform="matrix(0.13333333,0,0,-0.13333333,0,666.66667)" />
        <path
           id="path928"
           d="m 2672.93,2610.59 c -6.37,6.36 -16.67,6.36 -23.03,0 -6.36,-6.35 -6.36,-16.66 0,-23.02 6.36,-6.36 16.66,-6.36 23.03,0 6.35,6.36 6.35,16.67 0,23.02"
           style="fill:#6d4136;fill-opacity:1;fill-rule:nonzero;stroke:none"
           transform="matrix(0.13333333,0,0,-0.13333333,0,666.66667)" />
        <path
           id="path929"
           d="m 2751.87,2508.62 c 6.36,6.36 6.36,16.67 0,23.03 -6.36,6.35 -16.66,6.35 -23.03,0 -6.35,-6.36 -6.35,-16.67 0,-23.03 6.37,-6.36 16.67,-6.36 23.03,0"
           style="fill:#6d4136;fill-opacity:1;fill-rule:nonzero;stroke:none"
           transform="matrix(0.13333333,0,0,-0.13333333,0,666.66667)" />
        <path
           id="path930"
           d="m 2830.82,2429.67 c 6.36,6.36 6.36,16.66 0,23.03 -6.36,6.36 -16.67,6.36 -23.03,0 -6.35,-6.37 -6.35,-16.67 0,-23.03 6.36,-6.36 16.67,-6.36 23.03,0"
           style="fill:#6d4136;fill-opacity:1;fill-rule:nonzero;stroke:none"
           transform="matrix(0.13333333,0,0,-0.13333333,0,666.66667)" />
        <path
           id="path931"
           d="m 2909.77,2350.72 c 6.35,6.36 6.35,16.67 0,23.03 -6.36,6.35 -16.67,6.35 -23.03,0 -6.36,-6.36 -6.36,-16.67 0,-23.03 6.36,-6.36 16.67,-6.36 23.03,0"
           style="fill:#6d4136;fill-opacity:1;fill-rule:nonzero;stroke:none"
           transform="matrix(0.13333333,0,0,-0.13333333,0,666.66667)" />
        <path
           id="path932"
           d="m 2988.72,2271.77 c 6.35,6.36 6.35,16.67 0,23.03 -6.36,6.36 -16.67,6.36 -23.03,0 -6.36,-6.36 -6.36,-16.67 0,-23.03 6.36,-6.35 16.67,-6.35 23.03,0"
           style="fill:#6d4136;fill-opacity:1;fill-rule:nonzero;stroke:none"
           transform="matrix(0.13333333,0,0,-0.13333333,0,666.66667)" />
        <path
           id="path933"
           d="m 3067.66,2192.83 c 6.36,6.36 6.36,16.67 0,23.03 -6.36,6.35 -16.66,6.35 -23.02,0 -6.36,-6.36 -6.36,-16.67 0,-23.03 6.36,-6.36 16.66,-6.36 23.02,0"
           style="fill:#6d4136;fill-opacity:1;fill-rule:nonzero;stroke:none"
           transform="matrix(0.13333333,0,0,-0.13333333,0,666.66667)" />
        <path
           id="path934"
           d="m 3146.61,2113.88 c 6.36,6.36 6.36,16.66 0,23.02 -6.35,6.37 -16.67,6.37 -23.02,0 -6.36,-6.36 -6.36,-16.66 0,-23.02 6.35,-6.36 16.67,-6.36 23.02,0"
           style="fill:#6d4136;fill-opacity:1;fill-rule:nonzero;stroke:none"
           transform="matrix(0.13333333,0,0,-0.13333333,0,666.66667)" />
        <path
           id="path935"
           d="m 3225.56,2034.93 c 6.36,6.36 6.36,16.67 0,23.03 -6.36,6.35 -16.67,6.35 -23.02,0 -6.37,-6.36 -6.37,-16.67 0,-23.03 6.35,-6.36 16.66,-6.36 23.02,0"
           style="fill:#6d4136;fill-opacity:1;fill-rule:nonzero;stroke:none"
           transform="matrix(0.13333333,0,0,-0.13333333,0,666.66667)" />
        <path
           id="path936"
           d="m 3281.48,1979.01 c -6.36,-6.36 -6.36,-16.67 0,-23.03 6.36,-6.35 16.67,-6.35 23.03,0 6.36,6.36 6.36,16.67 0,23.03 -6.36,6.36 -16.67,6.36 -23.03,0"
           style="fill:#6d4136;fill-opacity:1;fill-rule:nonzero;stroke:none"
           transform="matrix(0.13333333,0,0,-0.13333333,0,666.66667)" />
        <path
           id="path937"
           d="m 3360.43,1900.07 c -1.25,-1.26 -2.06,-2.76 -2.82,-4.25 5.57,-0.12 11.09,-0.42 16.69,-0.42 4.04,0 8.03,0.24 12.05,0.3 -0.76,1.54 -1.61,3.08 -2.89,4.37 -6.36,6.35 -16.67,6.35 -23.03,0"
           style="fill:#6d4136;fill-opacity:1;fill-rule:nonzero;stroke:none"
           transform="matrix(0.13333333,0,0,-0.13333333,0,666.66667)" />
        <path
           id="path938"
           d="m 2615.36,2530 c 6.36,6.36 6.36,16.67 0,23.03 -6.36,6.36 -16.67,6.36 -23.03,0 -6.36,-6.36 -6.36,-16.67 0,-23.03 6.36,-6.36 16.67,-6.36 23.03,0"
           style="fill:#6d4136;fill-opacity:1;fill-rule:nonzero;stroke:none"
           transform="matrix(0.13333333,0,0,-0.13333333,0,666.66667)" />
        <path
           id="path939"
           d="m 2694.31,2451.05 c 6.36,6.36 6.36,16.67 0,23.03 -6.36,6.36 -16.67,6.36 -23.03,0 -6.36,-6.36 -6.36,-16.67 0,-23.03 6.36,-6.36 16.67,-6.36 23.03,0"
           style="fill:#6d4136;fill-opacity:1;fill-rule:nonzero;stroke:none"
           transform="matrix(0.13333333,0,0,-0.13333333,0,666.66667)" />
        <path
           id="path940"
           d="m 2773.25,2372.11 c 6.36,6.35 6.36,16.67 0,23.02 -6.35,6.36 -16.66,6.36 -23.02,0 -6.36,-6.35 -6.36,-16.67 0,-23.02 6.36,-6.36 16.67,-6.36 23.02,0"
           style="fill:#6d4136;fill-opacity:1;fill-rule:nonzero;stroke:none"
           transform="matrix(0.13333333,0,0,-0.13333333,0,666.66667)" />
        <path
           id="path941"
           d="m 2852.2,2293.16 c 6.36,6.36 6.36,16.66 0,23.02 -6.35,6.37 -16.67,6.37 -23.02,0 -6.36,-6.36 -6.36,-16.66 0,-23.02 6.35,-6.37 16.67,-6.37 23.02,0"
           style="fill:#6d4136;fill-opacity:1;fill-rule:nonzero;stroke:none"
           transform="matrix(0.13333333,0,0,-0.13333333,0,666.66667)" />
        <path
           id="path942"
           d="m 2931.15,2214.21 c 6.36,6.35 6.36,16.67 0,23.02 -6.36,6.36 -16.67,6.36 -23.03,0 -6.36,-6.35 -6.36,-16.67 0,-23.02 6.36,-6.36 16.67,-6.36 23.03,0"
           style="fill:#6d4136;fill-opacity:1;fill-rule:nonzero;stroke:none"
           transform="matrix(0.13333333,0,0,-0.13333333,0,666.66667)" />
        <path
           id="path943"
           d="m 3010.1,2135.26 c 6.36,6.36 6.36,16.67 0,23.03 -6.36,6.36 -16.67,6.36 -23.03,0 -6.36,-6.36 -6.36,-16.67 0,-23.03 6.36,-6.36 16.67,-6.36 23.03,0"
           style="fill:#6d4136;fill-opacity:1;fill-rule:nonzero;stroke:none"
           transform="matrix(0.13333333,0,0,-0.13333333,0,666.66667)" />
        <path
           id="path944"
           d="m 3089.04,2056.32 c 6.37,6.35 6.37,16.67 0,23.02 -6.35,6.36 -16.66,6.36 -23.02,0 -6.36,-6.35 -6.36,-16.67 0,-23.02 6.36,-6.36 16.67,-6.36 23.02,0"
           style="fill:#6d4136;fill-opacity:1;fill-rule:nonzero;stroke:none"
           transform="matrix(0.13333333,0,0,-0.13333333,0,666.66667)" />
        <path
           id="path945"
           d="m 3167.99,1977.36 c 6.36,6.37 6.36,16.67 0,23.03 -6.35,6.36 -16.67,6.36 -23.02,0 -6.36,-6.36 -6.36,-16.66 0,-23.03 6.35,-6.36 16.67,-6.36 23.02,0"
           style="fill:#6d4136;fill-opacity:1;fill-rule:nonzero;stroke:none"
           transform="matrix(0.13333333,0,0,-0.13333333,0,666.66667)" />
        <path
           id="path946"
           d="m 3246.94,1921.44 c -6.36,6.36 -16.67,6.36 -23.02,0 -3.1,-3.09 -4.63,-7.14 -4.71,-11.2 10.44,-2 20.9,-3.95 31.48,-5.56 1.94,5.7 0.79,12.22 -3.75,16.76"
           style="fill:#6d4136;fill-opacity:1;fill-rule:nonzero;stroke:none"
           transform="matrix(0.13333333,0,0,-0.13333333,0,666.66667)" />
        <path
           id="path947"
           d="m 2636.74,2393.48 c 6.36,6.36 6.36,16.67 0,23.03 -6.36,6.36 -16.67,6.36 -23.03,0 -0.78,-0.78 -1.17,-1.77 -1.76,-2.66 3.26,-8.22 6.55,-16.41 10.05,-24.51 5.18,-1.05 10.73,0.13 14.74,4.14"
           style="fill:#6d4136;fill-opacity:1;fill-rule:nonzero;stroke:none"
           transform="matrix(0.13333333,0,0,-0.13333333,0,666.66667)" />
        <path
           id="path948"
           d="m 2715.69,2314.54 c 6.36,6.36 6.36,16.67 0,23.03 -6.36,6.35 -16.67,6.35 -23.03,0 -6.36,-6.36 -6.36,-16.67 0,-23.03 6.36,-6.36 16.67,-6.36 23.03,0"
           style="fill:#6d4136;fill-opacity:1;fill-rule:nonzero;stroke:none"
           transform="matrix(0.13333333,0,0,-0.13333333,0,666.66667)" />
        <path
           id="path949"
           d="m 2794.64,2235.59 c 6.35,6.36 6.35,16.67 0,23.03 -6.36,6.36 -16.67,6.36 -23.03,0 -6.36,-6.36 -6.36,-16.67 0,-23.03 6.36,-6.35 16.67,-6.35 23.03,0"
           style="fill:#6d4136;fill-opacity:1;fill-rule:nonzero;stroke:none"
           transform="matrix(0.13333333,0,0,-0.13333333,0,666.66667)" />
        <path
           id="path950"
           d="m 2873.59,2156.65 c 6.35,6.35 6.35,16.66 0,23.01 -6.37,6.37 -16.67,6.37 -23.03,0 -6.36,-6.35 -6.36,-16.66 0,-23.01 6.36,-6.37 16.66,-6.37 23.03,0"
           style="fill:#6d4136;fill-opacity:1;fill-rule:nonzero;stroke:none"
           transform="matrix(0.13333333,0,0,-0.13333333,0,666.66667)" />
        <path
           id="path951"
           d="m 2952.53,2077.69 c 6.36,6.36 6.36,16.67 0,23.03 -6.36,6.36 -16.66,6.36 -23.03,0 -6.35,-6.36 -6.35,-16.67 0,-23.03 6.37,-6.36 16.67,-6.36 23.03,0"
           style="fill:#6d4136;fill-opacity:1;fill-rule:nonzero;stroke:none"
           transform="matrix(0.13333333,0,0,-0.13333333,0,666.66667)" />
        <path
           id="path952"
           d="m 3031.48,1998.75 c 6.36,6.35 6.36,16.67 0,23.02 -6.36,6.36 -16.67,6.36 -23.03,0 -6.35,-6.35 -6.35,-16.67 0,-23.02 6.36,-6.36 16.67,-6.36 23.03,0"
           style="fill:#6d4136;fill-opacity:1;fill-rule:nonzero;stroke:none"
           transform="matrix(0.13333333,0,0,-0.13333333,0,666.66667)" />
        <path
           id="path953"
           d="m 3091.46,1945.52 c 7.32,-2.69 14.78,-5.07 22.2,-7.56 -0.79,1.74 -1.79,3.42 -3.23,4.87 -5.16,5.16 -12.83,5.91 -18.97,2.69"
           style="fill:#6d4136;fill-opacity:1;fill-rule:nonzero;stroke:none"
           transform="matrix(0.13333333,0,0,-0.13333333,0,666.66667)" />
        <path
           id="path954"
           d="m 2734.77,2202.58 c 2.03,-2.53 3.96,-5.16 6.02,-7.67 -0.78,2.24 -1.94,4.35 -3.72,6.14 -0.68,0.68 -1.54,1 -2.3,1.53"
           style="fill:#6d4136;fill-opacity:1;fill-rule:nonzero;stroke:none"
           transform="matrix(0.13333333,0,0,-0.13333333,0,666.66667)" />
        <path
           id="path955"
           d="m 2816.02,2122.11 c -3.36,3.35 -7.8,4.81 -12.19,4.63 5.6,-5.43 11.2,-10.89 16.95,-16.17 0.01,4.17 -1.58,8.35 -4.76,11.54"
           style="fill:#6d4136;fill-opacity:1;fill-rule:nonzero;stroke:none"
           transform="matrix(0.13333333,0,0,-0.13333333,0,666.66667)" />
      </g>
    </g>
  </g>
</svg>
