<?xml version="1.0" encoding="UTF-8" standalone="no"?>
<!-- Created with Inkscape (http://www.inkscape.org/) -->

<svg
   version="1.1"
   id="svg1"
   width="253.64975"
   height="18.501953"
   viewBox="0 0 253.64975 18.501953"
   xmlns="http://www.w3.org/2000/svg"
   xmlns:svg="http://www.w3.org/2000/svg">
  <defs
     id="defs1" />
  <g
     id="g1"
     transform="translate(-253.64941,-452.3663)">
    <g
       id="group-R5">
      <path
         id="path10"
         d="m 506.22192,461.13601 c -6.196,5.56 -16.82133,5.97866 -24.83066,6.328 -4.796,0.208 -9.61467,-0.176 -14.40667,0.23466 -5.36933,0.46134 -10.31333,1.92667 -15.756,1.9 -10.21733,-0.048 -20.424,-0.34666 -30.56133,0.87334 -10.736,1.29333 -22.18134,-0.91467 -32.924,-1.83867 -11.12667,-0.95867 -22.03467,0.844 -33.228,-0.43333 -11.532,-1.316 -22.976,-1.64933 -34.57467,-1.78267 -10.804,-0.12533 -21.88933,0.16134 -32.612,-0.72133 -4.74533,-0.39067 -8.528,-1.23867 -13.38,-0.86533 -5.816,0.44933 -11.49866,-0.66534 -17.30666,-0.18134 -4.288,0.35734 -3.93067,-7.16933 0.83333,-6.15733 6.01067,1.27467 11.68933,2.35733 17.86133,2.504 5.23867,0.12533 9.60267,2.084 14.76934,2.548 4.61333,0.416 9.28666,-0.6 13.88933,-0.76 5.30667,-0.184 10.63467,-0.124 15.94533,-0.18533 23.38667,-0.27067 46.16,-3.20534 69.36133,-5.34134 20.77867,-1.912 41.068,-3.82933 61.92667,-3.53333 10.12667,0.144 19.88133,-1.85067 30.16267,-1.21067 8.18,0.50934 18.04533,-1.988 24.83066,3.39334 1.51067,1.19733 1.36,4.00933 0,5.22933"
         style="fill:#6d4136;fill-opacity:1;fill-rule:nonzero;stroke:none;stroke-width:0.133;stroke-dasharray:none" />
    </g>
  </g>
</svg>
