<?xml version="1.0" encoding="UTF-8" standalone="no"?>
<!-- Created with Inkscape (http://www.inkscape.org/) -->

<svg
   width="158.93074mm"
   height="150.01505mm"
   viewBox="0 0 158.93074 150.01505"
   version="1.1"
   id="svg1"
   xml:space="preserve"
   sodipodi:docname="path1.svg"
   inkscape:version="1.3.2 (091e20ef0f, 2023-11-25, custom)"
   xmlns:inkscape="http://www.inkscape.org/namespaces/inkscape"
   xmlns:sodipodi="http://sodipodi.sourceforge.net/DTD/sodipodi-0.dtd"
   xmlns="http://www.w3.org/2000/svg"
   xmlns:svg="http://www.w3.org/2000/svg"><sodipodi:namedview
     id="namedview1"
     pagecolor="#505050"
     bordercolor="#eeeeee"
     borderopacity="1"
     inkscape:showpageshadow="0"
     inkscape:pageopacity="0"
     inkscape:pagecheckerboard="0"
     inkscape:deskcolor="#505050"
     inkscape:document-units="mm"
     inkscape:zoom="0.90730035"
     inkscape:cx="299.79047"
     inkscape:cy="283.80899"
     inkscape:window-width="1366"
     inkscape:window-height="740"
     inkscape:window-x="0"
     inkscape:window-y="0"
     inkscape:window-maximized="1"
     inkscape:current-layer="svg1" /><defs
     id="defs1" /><g
     id="layer1"
     transform="translate(-25.534629,-73.492475)"
     style="opacity:0.05;mix-blend-mode:lighten"><path
       style="fill:#241c1c"
       d="m 65.812157,222.92751 c -0.666351,-0.79192 -0.617352,-1.19884 0.285232,-2.36875 0.425554,-0.5516 0.975461,-1.49347 1.222015,-2.09303 l 0.448281,-1.09013 0.0045,-10.96296 0.0045,-10.96296 0.538688,-0.7359 c 0.296279,-0.40475 1.788227,-2.17399 3.315441,-3.93166 1.527214,-1.75766 2.914321,-3.45588 3.082461,-3.77382 0.169919,-0.32131 0.310665,-1.04487 0.316868,-1.62898 0.009,-0.84847 -0.09144,-1.20608 -0.521455,-1.85643 -0.62107,-0.93928 -1.933233,-1.63023 -2.73908,-1.44232 -1.226495,0.286 -1.759739,0.75443 -5.371242,4.71837 -6.347065,6.96647 -16.705039,17.97641 -17.028801,18.10064 -1.40488,0.53911 -2.867553,-1.0449 -2.077822,-2.25018 0.167453,-0.25556 1.68213,-1.93266 3.365948,-3.72686 4.974783,-5.30092 14.63338,-15.82542 16.533994,-18.01628 0.667557,-0.7695 1.369842,-1.34618 2.036724,-1.67245 l 1.017847,-0.49799 -0.0397,-4.50239 c -0.02183,-2.47632 -0.103448,-4.50239 -0.181367,-4.50239 -0.07792,0 -2.462526,2.44091 -5.299126,5.42424 -2.836601,2.98334 -6.304679,6.61329 -7.70684,8.06656 -4.493165,4.65694 -11.810078,12.41817 -12.8086,13.5864 -0.532223,0.62269 -1.179088,1.55215 -1.437476,2.06548 l -0.469798,0.93334 v 7.33789 7.3379 l -1.934086,2.10634 c -3.434309,3.74017 -5.67778,5.97542 -5.997384,5.97542 -0.171684,0 -0.665026,-0.3564 -1.096316,-0.792 -1.043949,-1.05439 -1.02551,-1.49873 0.112315,-2.70652 2.586144,-2.74518 5.261989,-5.65191 5.457155,-5.92802 0.155907,-0.22056 0.242666,-2.34186 0.294031,-7.18921 0.0685,-6.46405 0.09709,-6.9415 0.476989,-7.9634 0.786315,-2.11517 0.870443,-2.21348 10.695345,-12.49867 6.780942,-7.09862 7.53066,-7.88908 10.201026,-10.75543 1.450265,-1.55671 3.698178,-3.93422 4.995363,-5.28336 1.297184,-1.34914 2.850526,-2.96747 3.451871,-3.59628 0.795161,-0.83149 1.124177,-1.33324 1.206371,-1.83975 l 0.113017,-0.69644 h -1.79181 c -1.506094,0 -1.868312,0.0602 -2.271574,0.37738 -0.316787,0.24919 -0.76548,0.37739 -1.32084,0.37739 -0.555359,0 -1.004052,-0.1282 -1.320839,-0.37739 -0.426068,-0.33514 -0.76548,-0.37738 -3.032549,-0.37738 h -2.552785 l -0.05913,4.67011 -0.05913,4.67011 -0.58195,1.0378 c -0.632418,1.12781 -1.868301,2.11474 -3.064075,2.44686 -0.435725,0.12102 -4.765532,0.19242 -11.637974,0.19193 l -10.944098,-7.9e-4 -0.943457,-0.44129 c -1.139773,-0.5331 -2.026319,-1.4088 -2.595511,-2.56377 -0.420173,-0.85258 -0.423978,-0.93756 -0.477257,-10.65927 -0.06013,-10.97198 -0.06495,-10.92337 1.256527,-12.67181 0.47694,-0.63104 1.052249,-1.1014 1.822654,-1.49016 l 1.125735,-0.56807 5.99095,-0.0632 5.990951,-0.0632 v -5.7391 -5.73909 h -4.044581 c -2.224519,0 -4.252047,-0.0789 -4.505617,-0.17529 -0.42306,-0.16085 -1.975045,-2.65987 -4.344138,-6.99498 -0.311932,-0.5708 -1.189492,-2.13866 -1.950133,-3.48416 -0.760643,-1.34549 -1.382986,-2.51761 -1.382986,-2.6047 0,-0.19937 1.331249,-2.60854 4.716086,-8.53472 0.592758,-1.03781 1.36093,-2.43884 1.70705,-3.11341 1.053999,-2.05419 0.01793,-1.87792 11.065701,-1.88272 5.742984,-0.002 9.851809,0.0694 10.135882,0.17744 0.316958,0.12051 0.678297,0.58089 1.073696,1.36801 0.643071,1.28016 4.187682,7.73424 5.670569,10.32506 l 0.910645,1.59103 -0.822197,1.52238 c -0.452209,0.83731 -1.156876,2.11676 -1.565928,2.84322 -0.409052,0.72646 -1.61798,2.89169 -2.686506,4.81163 -1.068527,1.91993 -2.063678,3.61815 -2.211449,3.77382 -0.220154,0.23193 -1.05125,0.29386 -4.602198,0.34297 l -4.333526,0.0599 v 5.72232 5.72231 l 3.632308,0.0771 c 4.18297,0.0888 4.840587,0.279 6.164193,1.7827 1.40626,1.5976 1.42373,1.67958 1.489492,6.98993 0.05116,4.13156 0.09747,4.76056 0.354214,4.81163 0.162445,0.0323 1.345942,0.0327 2.629993,8e-4 1.861527,-0.0462 2.334638,-0.11214 2.334638,-0.32536 0,-0.37901 0.989635,-0.84317 1.797713,-0.84317 0.50875,0 0.829528,0.14522 1.250378,0.56607 0.544454,0.54446 0.630433,0.56608 2.251148,0.56608 h 1.685074 l -0.04854,-12.31211 -0.04854,-12.31211 -1.426929,-0.0545 c -1.298601,-0.0496 -1.472539,-0.0122 -1.934086,0.41554 l -0.507158,0.47002 v 3.89459 c 0,3.60888 0.02769,3.92979 0.377383,4.37436 0.232425,0.29548 0.377382,0.76548 0.377382,1.2236 0,1.60648 -1.916127,2.45294 -3.150058,1.39156 -0.700922,-0.60291 -0.753769,-1.91708 -0.104867,-2.60781 0.412699,-0.43929 0.424555,-0.56355 0.424555,-4.44945 0,-2.46898 -0.0703,-3.99752 -0.183846,-3.99752 -0.290477,0 -0.759611,-1.05468 -0.759611,-1.70772 0,-0.42852 0.185702,-0.78002 0.665689,-1.26 0.5999,-0.5999 0.741841,-0.65548 1.436239,-0.56234 0.465898,0.0625 0.971468,0.29584 1.278723,0.59021 0.461775,0.44241 0.649359,0.48686 2.054551,0.48686 h 1.546378 v -10.90435 c 0,-9.24635 0.04453,-11.07546 0.292849,-12.02907 0.810144,-3.11117 3.582037,-5.67276 7.066114,-6.53001 1.547347,-0.38072 53.947487,-0.37751 55.475267,0.003 2.42067,0.60353 5.23372,2.78431 6.29623,4.88108 1.05003,2.07213 1.06273,2.23777 1.06273,13.8633 v 10.71576 h 1.60387 c 0.88214,0 1.60388,-0.078 1.60388,-0.1733 0,-0.31495 1.26016,-0.95885 1.87653,-0.95885 0.91635,0 1.70861,0.87493 1.70861,1.88691 0,1.67572 -1.98611,2.53139 -3.28428,1.41496 -0.48396,-0.41621 -0.72183,-0.4715 -2.02843,-0.4715 h -1.48018 v 13.8474 13.8474 l 1.89968,1.9555 c 1.04483,1.07552 3.99549,4.0804 6.55703,6.67751 2.56153,2.59711 5.49753,5.59022 6.52444,6.65137 l 1.8671,1.92936 h 4.17855 c 4.48718,0 5.51424,0.14459 7.24047,1.01934 1.08024,0.5474 2.39211,1.92013 2.87119,3.00438 0.82247,1.86141 0.64056,4.03281 -0.48916,5.83891 -0.56835,0.90862 -1.82503,2.00864 -2.58355,2.26149 -0.11181,0.0373 0.17845,0.53643 0.64502,1.10925 0.46657,0.57282 1.04068,1.43887 1.27579,1.92456 0.89131,1.8412 0.9542,2.45858 0.95658,9.39113 l 0.002,6.52903 1.08497,1.22391 c 0.59674,0.67315 2.02907,2.24133 3.18295,3.48484 2.36766,2.55155 2.62342,2.92442 2.35281,3.43006 -0.33716,0.63 -1.7295,1.75382 -2.09794,1.69335 -0.19627,-0.0322 -1.97146,-1.79925 -3.94487,-3.92675 l -3.58802,-3.86817 -0.0516,-2.45299 c -0.0284,-1.34914 -0.0565,-3.42946 -0.0624,-4.62293 -0.006,-1.19348 -0.0271,-3.49874 -0.0472,-5.12281 l -0.0364,-2.95285 -0.7076,-1.03465 c -0.38917,-0.56906 -1.43139,-1.8101 -2.31602,-2.75787 l -1.60844,-1.72322 -3.81657,-0.0444 c -2.09911,-0.0244 -3.81651,0.002 -3.81644,0.0587 1.8e-4,0.14751 1.56507,1.94369 4.76458,5.46881 3.10399,3.41986 3.256,3.74353 2.2947,4.88598 -0.39292,0.46696 -0.63362,0.58055 -1.23022,0.58055 -0.68107,0 -0.85326,-0.11896 -2.106,-1.45491 -7.85041,-8.37187 -14.29336,-15.31655 -16.66493,-17.96269 -2.96562,-3.30894 -3.18982,-3.48663 -4.3994,-3.48663 -1.13431,0 -2.0741,0.58018 -2.67679,1.65252 -0.4978,0.88571 -0.55439,2.407 -0.12037,3.2361 0.16171,0.3089 1.29067,1.6655 2.50881,3.01464 1.21814,1.34915 2.71591,3.07999 3.32838,3.84634 l 1.11359,1.39333 -0.032,11.06029 c -0.036,12.46567 -0.11765,11.68501 1.45622,13.92446 0.96384,1.37147 1.05694,2.10447 0.35627,2.80514 -0.33551,0.33551 -0.6687,0.46315 -1.20901,0.46315 -0.65379,0 -0.84815,-0.11378 -1.5746,-0.92177 -0.45581,-0.50697 -1.1046,-1.4393 -1.44175,-2.07186 -0.9464,-1.77565 -1.15391,-3.14956 -1.15765,-7.66491 l -0.003,-3.96 -0.63603,0.94094 c -1.45891,2.15829 -3.70937,3.7104 -6.11898,4.22018 -0.7111,0.15044 -8.5613,0.21154 -27.17909,0.21154 -28.464651,0 -27.055221,0.05 -29.361076,-1.04087 -1.282816,-0.60687 -3.304322,-2.45999 -3.892033,-3.56783 -0.2519,-0.47483 -0.5006,-0.86326 -0.552669,-0.86317 -0.05207,1e-4 -0.09467,1.93183 -0.09467,4.29272 0,3.09277 -0.0735,4.55626 -0.262955,5.23602 -0.399589,1.43369 -1.458687,3.34925 -2.388026,4.31916 -0.713748,0.74491 -0.939916,0.86985 -1.574626,0.86985 -0.595983,0 -0.836858,-0.11372 -1.229669,-0.58055 z m 41.152203,-14.15396 c 3.30333,-1.59912 3.30495,-6.30075 0.003,-8.02912 -0.76625,-0.40105 -2.17562,-0.52 -3.12553,-0.26379 -1.71699,0.46311 -3.24667,2.51893 -3.22437,4.33342 0.0386,3.13966 3.53501,5.32082 6.34714,3.95949 z m 27.79772,-15.36176 v -2.16995 l -11.84038,-0.007 -11.8404,-0.007 -6.54638,-1.66274 c -3.60051,-0.91451 -6.763449,-1.80497 -7.028751,-1.9788 -0.378092,-0.24774 -0.482367,-0.47196 -0.482367,-1.03723 0,-0.45013 0.124102,-0.83058 0.33021,-1.01228 0.181615,-0.16011 1.603876,-0.63437 3.160578,-1.05391 1.5567,-0.41953 4.52859,-1.23854 6.60419,-1.82001 l 3.77383,-1.05722 11.1328,-0.0409 11.13279,-0.0409 0.84911,-0.84911 0.84911,-0.84911 -0.004,-30.00192 -0.004,-30.00193 H 105.22791 75.607334 l -0.04729,29.6923 -0.04729,29.6923 0.896404,0.98353 c 0.493022,0.54094 1.108682,1.40202 1.368132,1.9135 0.41418,0.81652 0.471729,1.17168 0.471729,2.91123 0,1.7748 -0.05507,2.09924 -0.528478,3.11341 -0.290662,0.62268 -0.856866,1.47179 -1.25823,1.88692 -0.825792,0.85409 -0.811783,0.79074 -0.782354,3.53796 l 0.02173,2.02843 h 29.530193 29.5302 z M 100.3259,175.88707 c -1.660484,-0.95902 -5.969722,-3.41996 -9.576086,-5.46875 l -6.557024,-3.72508 v -7.26639 c 0,-3.99651 0.06368,-7.22895 0.141519,-7.18318 0.07783,0.0457 1.967107,1.12138 4.198382,2.39029 4.465573,2.53955 7.694795,4.39233 11.963919,6.86437 1.54682,0.89567 2.88417,1.62851 2.97189,1.62851 0.0877,0 0.15949,3.26907 0.15949,7.26461 0,3.99554 -0.0637,7.25892 -0.14151,7.25196 -0.0778,-0.007 -1.5001,-0.79732 -3.16058,-1.75634 z m 5.51482,-5.42832 c 0.0235,-3.95853 0.066,-7.21321 0.0944,-7.23262 0.0284,-0.0194 1.02804,-0.58846 2.22152,-1.26455 1.19347,-0.67611 5.45531,-3.11124 9.47074,-5.41142 4.01545,-2.30017 7.43414,-4.2333 7.5971,-4.29583 0.26661,-0.10231 0.29134,0.61064 0.24686,7.11631 l -0.0494,7.23002 -7.54767,4.30421 c -8.15229,4.64901 -11.89012,6.7512 -12.00409,6.75121 -0.0397,0 -0.0529,-3.2388 -0.0294,-7.19733 z m -2.92737,-10.19277 c -0.34116,-0.21609 -4.671622,-2.7092 -9.623252,-5.54026 l -9.002962,-5.1474 -0.05065,-4.35852 c -0.02786,-2.3972 -0.0057,-4.35854 0.0493,-4.35854 0.127543,0 18.568794,10.51322 19.015544,10.84062 0.30516,0.22364 0.3294,0.61775 0.28304,4.60078 l -0.0507,4.3562 z m 2.88103,-3.9792 0.0879,-4.38709 1.27869,-0.77033 c 1.65356,-0.99619 4.23003,-2.47958 9.48677,-5.46199 2.33505,-1.32477 4.54275,-2.59423 4.90598,-2.82099 0.36323,-0.22674 1.40339,-0.8155 2.31147,-1.30833 l 1.65105,-0.89605 -0.006,4.40235 -0.006,4.40236 -5.87014,3.30209 c -3.22858,1.81616 -7.65322,4.34227 -9.83254,5.61357 -2.17931,1.27132 -3.99215,2.31147 -4.02851,2.31147 -0.0364,0 -0.0266,-1.97418 0.0217,-4.38707 z m -2.8268,-7.47886 c -1.29659,-0.7817 -8.11479,-4.65003 -13.774469,-7.81497 -0.934022,-0.52232 -1.936366,-1.11435 -2.227429,-1.31563 l -0.529208,-0.36597 6.284294,-3.57751 c 3.456361,-1.96763 7.565612,-4.29207 9.131652,-5.16542 l 2.84737,-1.58792 2.81337,1.56548 c 1.54736,0.86102 3.91722,2.187 5.26637,2.94663 1.34914,0.75963 4.1512,2.31707 6.22681,3.46099 2.07561,1.14391 3.84465,2.14161 3.93121,2.2171 0.0866,0.0755 -3.26744,2.08847 -7.45332,4.47329 -10.31715,5.878 -10.68973,6.08661 -10.85906,6.07989 -0.0814,-0.003 -0.82735,-0.41542 -1.65759,-0.91596 z m 64.44002,41.82068 c 1.4193,-0.96597 1.81282,-2.22225 1.13482,-3.62282 -0.3941,-0.81411 -1.62121,-1.80205 -2.23829,-1.80205 -0.15716,0 -0.21929,0.82866 -0.21929,2.92471 0,2.72108 0.0243,2.92472 0.34948,2.92472 0.19221,0 0.63019,-0.19105 0.97328,-0.42456 z m -55.85457,-2.28552 c 0,-0.0376 -0.25473,-0.38894 -0.56607,-0.78071 -0.31134,-0.39177 -0.56608,-0.93949 -0.56608,-1.21714 0,-0.3146 0.2133,-0.70918 0.56608,-1.04716 0.63128,-0.6048 0.75903,-1.1242 0.23586,-0.9589 -0.18161,0.0574 -1.73124,0.49644 -3.44362,0.97568 -1.71237,0.47923 -3.262,0.91492 -3.44361,0.96819 -0.18162,0.0533 -0.33021,0.15329 -0.33021,0.22226 0,0.069 1.42226,0.4525 3.16058,0.85226 1.73832,0.39976 3.3304,0.79505 3.53796,0.87842 0.40504,0.16269 0.84911,0.2187 0.84911,0.1071 z m 40.37996,-6.9278 c 0,-0.21022 -1.66002,-1.95543 -7.87271,-8.27672 l -3.62716,-3.69056 -0.002,4.62294 -0.002,4.62293 1.00321,0.43403 c 0.59409,0.25702 1.41736,0.85339 2.01876,1.46236 l 1.01556,1.02833 h 3.7331 c 2.54184,0 3.7331,-0.0649 3.7331,-0.20331 z m -98.392228,-8.39969 c 0.410768,-0.19492 0.769008,-0.58066 1.019146,-1.09737 0.371683,-0.7678 0.385723,-1.11871 0.385723,-9.64049 0,-8.55904 -0.01258,-8.86968 -0.390771,-9.65092 -0.214923,-0.44397 -0.670729,-0.98025 -1.012901,-1.19172 -0.605667,-0.37432 -0.889212,-0.3845 -10.714115,-0.3845 H 32.735861 l -0.623802,0.42456 c -0.343091,0.2335 -0.801431,0.66429 -1.018534,0.95729 -0.387813,0.5234 -0.394732,0.69374 -0.394732,9.71761 0,10.2168 -0.02595,9.99837 1.282827,10.79638 0.579355,0.35325 1.020079,0.36836 10.764902,0.36904 8.905476,6.1e-4 10.239074,-0.0364 10.79424,-0.29988 z m -16.259463,-5.69453 c -3.716868,-0.0558 -3.953239,-0.12459 -4.038612,-1.17516 -0.06214,-0.76471 -0.0163,-0.92372 0.380822,-1.32084 0.366424,-0.36642 0.628971,-0.37738 9.041752,-0.37738 4.765403,0 8.801821,0.0527 8.969818,0.11721 0.335576,0.12877 0.857565,1.02158 0.857565,1.46677 0,0.15504 -0.19105,0.49075 -0.424556,0.74603 l -0.424555,0.46415 -5.47205,0.0653 c -3.009627,0.0359 -7.01021,0.0422 -8.890184,0.0139 z m -3.652991,-6.07634 c -0.587807,-0.5878 -0.678864,-1.27968 -0.24492,-1.86096 l 0.37511,-0.50248 8.974563,-0.049 8.974563,-0.049 0.39251,0.49899 c 0.516729,0.65692 0.495114,1.05198 -0.09599,1.75447 l -0.488502,0.58055 h -8.757374 c -8.468182,0 -8.769678,-0.0123 -9.129958,-0.37259 z m 20.172326,-28.47914 c 0.214628,-0.30142 0.390232,-0.58838 0.390232,-0.63769 0,-0.0493 0.580964,-1.0976 1.291031,-2.32952 2.374177,-4.11904 3.614944,-6.42376 3.614944,-6.71475 0,-0.30063 -3.557674,-6.77781 -5.03127,-9.16004 l -0.847456,-1.37001 -8.12361,0.0492 -8.12361,0.0492 -2.90042,5.14765 -2.900421,5.14765 0.496735,0.98026 c 0.492398,0.9717 3.407511,6.21432 4.615794,8.30117 l 0.628199,1.08497 h 8.249811 8.24981 z m -14.719591,-2.26783 c -0.655582,-0.65558 -0.677157,-0.9155 -0.160116,-1.92899 0.387191,-0.75896 0.387483,-0.77169 0.02687,-1.1718 -0.200517,-0.22248 -0.588944,-0.74264 -0.863171,-1.15591 -0.471292,-0.71025 -0.498596,-0.87857 -0.498596,-3.07375 0,-2.51446 0.162441,-3.08396 1.247451,-4.37342 l 0.510724,-0.60696 -0.407359,-0.83847 c -0.536794,-1.10489 -0.516491,-1.32979 0.17867,-1.97916 0.794842,-0.7425 1.442501,-0.71431 2.228863,0.097 l 0.624627,0.64445 0.780401,-0.27886 c 1.341705,-0.47942 3.143755,-0.53803 4.636718,-0.15081 l 1.333435,0.34585 0.638326,-0.69689 c 0.351079,-0.38328 0.749676,-0.69688 0.885771,-0.69688 0.397533,0 1.66069,0.95355 1.785949,1.34821 0.07019,0.22116 -0.08041,0.69457 -0.387845,1.21917 -0.452092,0.77144 -0.473943,0.88937 -0.217443,1.17355 0.156836,0.17376 0.546281,0.81279 0.865434,1.42007 0.556527,1.05894 0.580277,1.19904 0.580277,3.42285 v 2.31873 l -0.81964,1.1134 -0.819641,1.1134 0.488707,0.99813 0.488708,0.99812 -0.704099,0.64526 c -0.888991,0.81469 -1.371287,0.81277 -2.212691,-0.009 l -0.669852,-0.6541 -0.847635,0.31781 c -1.174355,0.44031 -4.156553,0.43191 -5.174733,-0.0146 l -0.741963,-0.32536 -0.681178,0.66516 c -0.829727,0.8102 -1.369106,0.83945 -2.094966,0.11359 z m 7.635033,-3.30071 c 1.243063,-0.3741 2.071135,-1.06873 2.643653,-2.21763 0.86479,-1.7354 0.630183,-3.49202 -0.663107,-4.96499 -1.380736,-1.57258 -3.586895,-2.02871 -5.412359,-1.11905 -2.476851,1.23427 -3.349717,3.95585 -2.0048,6.25094 1.093952,1.86682 3.292336,2.69607 5.436613,2.05073 z m 44.760256,-12.70829 c 0.283408,-0.18923 0.641495,-0.89645 0.641495,-1.26694 0,-0.16721 -0.208419,-0.51244 -0.463152,-0.76717 l -0.463151,-0.46316 -5.339108,0.003 c -2.936509,0.001 -5.533558,0.0547 -5.771219,0.11833 -0.518438,0.13888 -1.028529,1.04071 -0.858711,1.51819 0.363332,1.02159 0.2437,1.00281 6.367561,0.9997 3.123268,-0.002 5.772096,-0.0653 5.886285,-0.14152 z m 18.752508,105.8588 c -0.80677,-1.02565 -0.0854,-2.50023 1.2232,-2.50023 0.72228,0 1.61052,0.72868 1.61052,1.3212 0,0.54208 -0.48614,1.43813 -0.85756,1.58065 -0.74521,0.28596 -1.56661,0.11902 -1.97616,-0.40162 z m 7.0552,0.0369 c -1.04984,-1.60226 0.9568,-3.41407 2.29696,-2.07392 1.009,1.009 0.26932,2.55591 -1.22215,2.55591 -0.60569,0 -0.82279,-0.0974 -1.07481,-0.48199 z m 7.29605,0.069 c -0.54108,-0.58079 -0.50528,-1.55925 0.0784,-2.14295 1.10708,-1.10708 3.02055,-0.0244 2.63957,1.4935 -0.26704,1.06401 -1.95582,1.46753 -2.71799,0.64945 z m 7.35162,0.0356 c -0.58712,-0.58713 -0.51447,-1.75169 0.14146,-2.26765 1.03133,-0.81125 2.50022,-0.0845 2.50022,1.23705 0,1.20599 -1.77415,1.89813 -2.64168,1.0306 z M 75.366282,220.384 c -0.544976,-0.38171 -0.562634,-1.36824 -0.03463,-1.93498 l 0.384733,-0.41296 h 14.813498 14.813497 l 0.46315,0.46315 c 0.56098,0.56097 0.59575,1.29115 0.0858,1.80115 -0.37099,0.37099 -0.62897,0.37738 -15.242014,0.37738 -13.148261,0 -14.913055,-0.0339 -15.283999,-0.29374 z M 36.308588,190.09846 c -1.452127,-0.73772 -2.496388,-2.39664 -2.496388,-3.96578 0,-1.35692 1.131636,-3.08522 2.465745,-3.76584 0.891332,-0.45473 2.541918,-0.4911 3.531266,-0.0778 2.344302,0.97928 3.326833,3.91994 2.017383,6.03792 -1.171698,1.89518 -3.685829,2.70233 -5.518006,1.77154 z m 2.556294,-2.92418 c 0.870298,-0.60958 0.347583,-2.15926 -0.72833,-2.15926 -0.524196,0 -1.30529,0.73395 -1.30529,1.2265 0,0.42963 0.778481,1.22649 1.198204,1.22649 0.228826,0 0.604763,-0.13218 0.835416,-0.29373 z m 135.186978,-1.50954 c -0.29237,-0.20478 -0.41937,-0.4864 -0.41937,-0.92996 0,-1.12151 1.01785,-1.71668 1.86242,-1.08902 1.38192,1.02699 -0.033,3.00662 -1.44305,2.01898 z m 3.85541,-5.1968 c -0.69091,-0.18939 -1.05348,-0.67751 -1.06102,-1.42843 -0.009,-0.85859 0.15525,-1.17086 0.7854,-1.49674 1.4508,-0.75023 2.93715,0.77729 2.11335,2.17188 -0.3985,0.6746 -1.0903,0.95817 -1.83773,0.75329 z m -8.01571,-0.41821 c -0.57891,-0.61624 -0.55406,-1.70096 0.0529,-2.30789 1.26343,-1.26344 3.31039,0.34837 2.48051,1.9532 -0.32601,0.63042 -0.63337,0.7914 -1.51102,0.7914 -0.39585,0 -0.75704,-0.15429 -1.02237,-0.43671 z m -8.62693,-0.40382 c -0.56601,-0.56603 -0.59085,-1.21053 -0.0721,-1.87005 0.52526,-0.66775 1.51554,-0.68331 2.16483,-0.034 0.51322,0.51322 0.57147,0.86783 0.24364,1.48334 -0.52412,0.98407 -1.58247,1.17465 -2.3364,0.42073 z m -5.65216,-6.33889 c -2.30264,-0.18043 -3.97389,-1.42739 -4.88521,-3.64497 -0.38894,-0.94641 -0.39815,-1.21541 -0.39815,-11.62988 0,-9.79665 0.0277,-10.74034 0.3411,-11.63881 0.43186,-1.23793 1.4105,-2.52559 2.47731,-3.25957 1.42679,-0.98167 2.48447,-1.14038 7.59926,-1.14038 h 4.5833 v -2.45582 -2.45581 l -5.94496,0.0111 c -5.43062,0.0102 -6.01423,-0.0196 -6.74571,-0.34471 -1.20155,-0.53395 -1.94944,-1.25711 -2.53652,-2.45263 l -0.52854,-1.07632 v -12.54797 -12.54798 l 0.5304,-1.08011 c 0.29172,-0.59407 0.86423,-1.36586 1.27224,-1.7151 1.38384,-1.18452 1.2156,-1.17061 13.29267,-1.09899 10.50944,0.0623 10.97997,0.0802 11.84749,0.44915 0.51575,0.21936 1.21813,0.74179 1.63688,1.21752 1.36514,1.55089 1.3279,1.13643 1.3279,14.77551 0,13.57095 0.0324,13.19601 -1.27342,14.7216 -0.37777,0.44134 -1.11613,1.00233 -1.64081,1.24665 -0.90242,0.42021 -1.16033,0.44431 -4.77495,0.44605 l -3.821,0.002 v 2.43704 2.43704 l 4.10404,0.0719 c 3.66667,0.0643 4.19453,0.11373 4.95315,0.46427 1.35067,0.62411 2.55529,1.8213 3.24799,3.22796 l 0.62018,1.2594 0.0607,10.19367 c 0.0435,7.30315 -0.002,10.48795 -0.16105,11.23148 -0.46535,2.17813 -1.89379,3.94333 -3.69395,4.56479 -0.8096,0.27949 -2.10496,0.3258 -10.54622,0.37708 -5.29279,0.0321 -10.21764,0.0119 -10.9441,-0.0451 z m 20.22486,-3.21062 c 0.75958,-0.28699 1.52172,-1.07382 1.80049,-1.85886 0.18548,-0.52228 0.22846,-2.92759 0.18858,-10.55361 -0.0556,-10.63855 -0.0324,-10.38544 -1.0554,-11.51008 -0.9994,-1.09871 -0.70176,-1.0706 -10.87485,-1.02704 -5.13712,0.022 -9.61368,0.0891 -9.94791,0.14902 -0.7817,0.14026 -1.66847,0.89083 -2.13661,1.80845 -0.3526,0.69117 -0.36911,1.17059 -0.36911,10.7194 0,6.62228 0.0679,10.17514 0.20126,10.52706 0.26788,0.707 0.89736,1.37158 1.59131,1.68 0.73087,0.32484 19.75579,0.38549 20.60224,0.0657 z m -11.78092,-0.92591 c -0.41241,-0.17685 -0.46891,-0.35752 -0.50334,-1.6094 -0.0135,-0.49124 -0.10781,-0.58888 -0.71329,-0.73847 -0.64712,-0.15988 -0.75323,-0.12225 -1.4629,0.5189 -0.42085,0.38021 -0.81297,0.69129 -0.87138,0.69129 -0.43157,0 -2.60475,-1.69063 -2.91261,-2.26587 -0.1337,-0.24981 -0.0602,-0.51127 0.28804,-1.02441 0.25716,-0.37895 0.46757,-0.76034 0.46757,-0.84754 0,-0.0872 -0.27597,-0.59583 -0.61325,-1.13028 -0.63021,-0.99862 -0.83787,-1.07478 -1.85582,-0.68063 -0.16634,0.0644 -0.50137,-0.048 -0.75476,-0.25315 -0.40073,-0.32448 -0.45566,-0.5233 -0.45566,-1.64929 0,-1.23766 0.0208,-1.29444 0.62331,-1.70288 0.58832,-0.39882 0.60238,-0.43374 0.25058,-0.62202 -0.76046,-0.407 -0.96823,-0.77915 -0.96823,-1.73433 0,-0.51664 0.12735,-1.18564 0.28301,-1.48664 0.25507,-0.49325 0.38871,-0.55288 1.35369,-0.60387 l 1.07068,-0.0566 0.57508,-1.05946 0.57508,-1.05946 -0.52036,-0.68224 c -0.48373,-0.63419 -0.50026,-0.7129 -0.23488,-1.11793 0.48476,-0.73984 2.32183,-2.21339 2.75943,-2.21339 0.22967,0 0.6928,0.29469 1.03748,0.66015 0.57478,0.60946 0.67795,0.64869 1.34312,0.51085 0.70895,-0.14693 0.72119,-0.16424 0.76324,-1.07858 0.0235,-0.5111 0.0804,-1.02753 0.12654,-1.14765 0.10958,-0.28557 2.00743,-0.51821 2.9409,-0.3605 0.59751,0.10096 0.76799,0.22946 0.93322,0.70344 0.11119,0.31896 0.20216,0.85332 0.20216,1.1875 0,0.5555 0.0604,0.61737 0.70515,0.722 0.63926,0.10374 0.77828,0.0426 1.488,-0.65389 0.70986,-0.69668 0.82446,-0.74702 1.22894,-0.53985 0.69132,0.35408 2.42734,2.11689 2.42734,2.46481 0,0.17115 -0.18428,0.54549 -0.40952,0.83183 l -0.40952,0.52063 0.59292,1.06152 0.59293,1.06153 0.93189,-0.0512 c 1.24332,-0.0683 1.72037,0.47618 1.72037,1.96355 0,1.00824 -0.29765,1.56736 -0.96705,1.81652 -0.18118,0.0674 -0.0602,0.26761 0.40097,0.66356 0.59181,0.50808 0.65909,0.66238 0.64761,1.48509 -0.008,0.54658 -0.15003,1.12752 -0.35191,1.43563 -0.29934,0.45685 -0.45675,0.51753 -1.34249,0.51753 -0.82452,0 -1.02393,0.0647 -1.11863,0.36311 -0.0634,0.19972 -0.32458,0.67158 -0.58042,1.04859 l -0.46518,0.68547 0.49308,0.84137 c 0.45224,0.77169 0.46979,0.87689 0.21193,1.27043 -0.40222,0.61386 -2.27559,2.01784 -2.69247,2.01784 -0.1936,0 -0.65277,-0.29181 -1.02038,-0.64847 -0.59327,-0.57559 -0.74258,-0.63312 -1.32879,-0.51192 -0.64483,0.13331 -0.66267,0.16165 -0.75582,1.19987 -0.0525,0.58484 -0.1585,1.12643 -0.23561,1.20354 -0.21946,0.21946 -3.01679,0.28627 -3.48999,0.0834 z m 3.65675,-5.47023 c 1.32343,-0.46515 2.1569,-1.09684 2.93022,-2.22082 0.83391,-1.21206 1.12898,-2.17467 1.12426,-3.66773 -0.005,-1.71124 -0.52824,-2.88615 -1.83381,-4.12089 -1.44075,-1.36261 -2.45205,-1.78075 -4.32072,-1.78649 -1.24226,-0.004 -1.69327,0.0825 -2.54733,0.48773 -1.28578,0.61001 -2.30151,1.59044 -2.97205,2.86872 -0.44147,0.84159 -0.51356,1.20366 -0.51425,2.58269 -9.6e-4,1.90684 0.37735,2.89795 1.62126,4.24744 1.66928,1.81095 4.1762,2.43047 6.51242,1.60935 z m 7.55676,-29.92834 c 0.29289,-0.21494 0.68235,-0.68195 0.86546,-1.0378 0.30917,-0.60081 0.32938,-1.47555 0.28304,-12.25153 -0.0475,-11.04067 -0.0673,-11.63019 -0.40813,-12.13306 -0.74301,-1.09626 -0.52025,-1.07533 -11.44427,-1.07533 -8.76558,0 -10.1081,0.0377 -10.65938,0.29929 -1.24889,0.59264 -1.18792,-0.0503 -1.2356,13.02724 -0.0441,12.10332 -0.0334,12.3119 0.66505,12.89153 0.87373,0.72514 1.40272,0.7578 11.5558,0.71346 9.62625,-0.042 9.85736,-0.0517 10.37803,-0.4338 z m -20.12351,-1.63386 c -0.25634,-0.13482 -0.66658,-0.54109 -0.91165,-0.90281 -1.13445,-1.67444 0.64066,-3.85303 2.6099,-3.20312 0.66777,0.22038 0.78787,0.21019 1.12568,-0.0955 0.49627,-0.44912 0.48683,-0.50657 -0.25592,-1.55697 -0.82099,-1.16105 -1.25284,-2.48563 -1.25284,-3.84277 0,-2.37844 0.95349,-3.10869 2.34521,-1.79613 0.60364,0.56931 0.67385,0.73706 0.67385,1.60994 0,1.15845 0.31338,1.98219 1.09106,2.86792 1.68764,1.92211 4.79084,2.10595 6.68362,0.39594 0.99996,-0.90341 1.47533,-1.90248 1.5724,-3.3047 0.0716,-1.03465 0.14982,-1.2256 0.69025,-1.68572 2.38729,-2.03251 3.24753,2.10723 1.16548,5.6086 l -0.67027,1.12719 0.51537,0.44331 c 0.40153,0.34537 0.62414,0.41025 1.00772,0.29368 0.27079,-0.0823 0.86244,-0.14966 1.31477,-0.14971 0.689,-6e-5 0.91094,0.099 1.36802,0.61055 0.44365,0.49653 0.54558,0.7826 0.54558,1.53114 0,1.60508 -1.30492,2.57191 -2.8475,2.10974 -0.56818,-0.17023 -0.825,-0.39215 -1.11759,-0.96567 -0.25453,-0.49891 -0.64368,-0.87814 -1.17929,-1.1492 -0.43966,-0.22251 -1.03319,-0.56929 -1.31895,-0.77062 -0.51629,-0.36376 -0.52637,-0.36346 -1.60387,0.0467 -1.50617,0.57331 -3.76061,0.59014 -4.99665,0.0373 l -0.89326,-0.39953 -1.0769,0.64848 c -0.59229,0.35666 -1.14444,0.64847 -1.22698,0.64847 -0.0825,0 -0.2715,0.29058 -0.4199,0.64574 -0.46341,1.10911 -1.95192,1.71609 -2.93734,1.19778 z m 4.55689,-12.89666 c -1.03764,-0.88819 -1.06097,-1.49974 -0.0898,-2.35249 0.38444,-0.33754 1.16987,-0.83458 1.7454,-1.10452 0.89703,-0.42074 1.30231,-0.49081 2.83898,-0.49081 1.56581,0 1.92384,0.0645 2.83037,0.50974 0.57079,0.28036 1.37099,0.85099 1.77823,1.26808 0.64267,0.65821 0.71438,0.81513 0.54316,1.18848 -0.1085,0.23658 -0.58535,0.70784 -1.05968,1.04725 l -0.86242,0.6171 -0.6242,-0.54376 c -0.92264,-0.80374 -1.73404,-1.16217 -2.63086,-1.16217 -0.96652,0 -2.2852,0.60369 -2.69935,1.23576 -0.4145,0.63261 -0.84245,0.58118 -1.76988,-0.21266 z m -3.16624,-3.55157 c -1.08779,-1.08778 -0.82425,-1.85496 1.08184,-3.14936 3.92144,-2.66301 8.38148,-2.88965 12.2498,-0.62249 1.51683,0.88899 2.63165,1.96907 2.63165,2.54964 0,0.47704 -0.43107,1.22495 -0.9348,1.6219 -0.53584,0.42225 -1.08336,0.24937 -2.29608,-0.72498 -1.39971,-1.12459 -2.35252,-1.57577 -3.93293,-1.86235 -2.12413,-0.38518 -4.38108,0.29522 -6.49185,1.95709 -0.60922,0.47966 -1.23332,0.8721 -1.38688,0.8721 -0.15356,0 -0.5679,-0.28869 -0.92075,-0.64155 z m -12.59772,47.50562 c -0.66996,-0.66995 -0.68528,-1.81633 -0.036,-2.69634 0.40314,-0.54642 0.45678,-0.80325 0.42456,-2.03288 -0.0315,-1.20098 0.0169,-1.44677 0.32939,-1.67552 0.94053,-0.68835 1.4263,-0.0935 1.4263,1.7466 0,1.24113 0.0599,1.49283 0.47173,1.98226 1.07055,1.27228 0.24686,3.17334 -1.37494,3.17334 -0.55179,0 -0.87185,-0.12829 -1.24101,-0.49746 z m 0.20752,-14.45633 c -0.91234,-0.6928 -0.75768,-2.36241 0.26796,-2.89279 1.6576,-0.85717 3.21753,1.23839 1.94414,2.61168 -0.53037,0.57199 -1.64288,0.71336 -2.2121,0.28111 z m -86.367829,-2.35047 c -0.469927,-0.59742 -0.387206,-1.29151 0.214612,-1.80074 0.512632,-0.43377 0.942091,-0.4169 1.549479,0.0609 0.599473,0.47155 0.636256,1.07944 0.106098,1.75343 -0.530137,0.67396 -1.333971,0.66813 -1.870189,-0.0136 z m -30.934714,-1.87337 c -0.467334,-0.59411 -0.491392,-0.97385 -0.09734,-1.53644 0.217864,-0.31104 0.483167,-0.41936 1.027103,-0.41936 0.543936,0 0.809239,0.10832 1.027103,0.41936 0.962709,1.37446 -0.920934,2.85342 -1.956864,1.53644 z m 26.591783,-0.0689 c -0.733662,-0.73366 -0.207689,-2.0756 0.813531,-2.0756 0.582879,0 1.262074,0.66005 1.262074,1.22649 0,0.56645 -0.679195,1.2265 -1.262074,1.2265 -0.239881,0 -0.60597,-0.16982 -0.813531,-0.37739 z m -20.345774,-0.43671 c -0.9386,-0.9991 -0.2803,-2.58235 1.073716,-2.58235 1.355665,0 2.00381,1.42881 1.143994,2.52189 -0.52237,0.66409 -1.622457,0.69409 -2.21771,0.0605 z m -7.189466,-5.53251 c -0.837962,-1.06529 -0.152115,-2.52189 1.187448,-2.52189 0.898972,0 1.713905,0.9351 1.55103,1.77974 -0.242226,1.25615 -1.966579,1.72346 -2.738478,0.74215 z m 156.26153,-0.27122 c -0.23811,-0.093 -0.55767,-0.46763 -0.71012,-0.8325 -0.23978,-0.57388 -0.24139,-0.74907 -0.0119,-1.29829 0.71257,-1.70543 3.34097,-0.89856 2.99353,0.91896 -0.17277,0.90377 -1.39322,1.55487 -2.2715,1.21183 z M 64.607679,124.62481 c -0.503953,-0.20224 -1.033145,-1.32502 -0.857908,-1.82021 0.567494,-1.60362 2.784955,-1.59561 3.188316,0.0115 0.152565,0.60787 -0.376406,1.59809 -0.975333,1.82579 -0.566516,0.2154 -0.7826,0.21266 -1.355075,-0.0171 z m 79.491561,-0.22882 c -0.99064,-0.85211 -0.49606,-2.40387 0.76617,-2.40387 1.78517,0 1.99975,2.31232 0.25407,2.73791 -0.36413,0.0888 -0.62981,0.002 -1.02024,-0.33404 z M 64.088585,113.60393 c -0.699466,-0.69946 -0.646522,-1.80199 0.1174,-2.44479 0.66157,-0.55668 1.097034,-0.60644 1.85894,-0.21245 0.610196,0.31555 0.768261,0.62729 0.768261,1.51518 0,0.46985 -0.146346,0.75136 -0.580551,1.11671 -0.744876,0.62677 -1.553161,0.63624 -2.16405,0.0254 z m 80.296755,0.32929 c -0.63952,-0.23514 -0.94346,-0.69175 -0.94346,-1.41731 0,-0.95393 0.22976,-1.36095 0.93258,-1.65207 1.72872,-0.71606 3.0534,1.3219 1.72361,2.65169 -0.52397,0.52397 -1.06492,0.65589 -1.71273,0.41769 z M 60.270974,112.8299 c -0.286783,-0.20089 -0.419368,-0.48722 -0.419368,-0.90572 0,-0.76936 0.290341,-1.06484 1.046296,-1.06484 1.09449,0 1.597789,1.12974 0.840618,1.88691 -0.453353,0.45335 -0.903117,0.47899 -1.467546,0.0837 z m -22.970188,-7.06767 c -0.428533,-0.47352 -0.445056,-1.42374 -0.03194,-1.83685 0.487487,-0.48749 1.602332,-0.4048 2.029103,0.1505 0.459708,0.59816 0.45343,0.95773 -0.02739,1.569 -0.489316,0.62206 -1.460641,0.67993 -1.969768,0.11734 z M 60.126843,104.7566 C 59.0254,104.39593 45.869622,97.691655 45.393532,97.248395 c -0.352089,-0.3278 -0.797348,-1.1796 -1.071833,-2.05045 -0.04907,-0.15567 -1.973603,-1.25951 -4.276749,-2.45298 -4.463559,-2.31299 -5.278294,-2.92974 -5.653067,-4.27938 -0.257076,-0.92578 -0.253033,-1.26259 0.02634,-2.19507 0.323944,-1.08123 1.264364,-1.94647 2.508816,-2.30824 0.950424,-0.27629 1.123053,-0.27608 2.081725,0.003 1.007351,0.29285 1.065057,0.28987 1.587121,-0.0819 1.06368,-0.75741 2.54016,-1.32367 3.456247,-1.32554 0.730971,-10e-4 1.297207,0.20467 3.019062,1.09924 l 2.119346,1.10108 1.603876,-0.0842 1.603877,-0.0842 1.698222,0.89558 c 0.934022,0.49256 3.948367,2.08013 6.698543,3.52793 2.750176,1.4478 5.297509,2.86623 5.66074,3.15207 3.140749,2.47155 3.48411,7.65275 0.708421,10.689795 -1.326494,1.4514 -2.605467,2.02741 -4.655685,2.09677 -0.982369,0.0332 -1.919027,-0.0434 -2.381696,-0.19491 z m 3.454903,-3.0578 c 1.498621,-0.62616 2.296981,-1.917065 2.303839,-3.725175 0.0047,-1.24385 -0.398454,-2.1979 -1.302221,-3.0815 -0.502411,-0.4912 -8.284922,-4.69502 -8.427645,-4.5523 -0.02869,0.0287 0.08056,0.52901 0.242783,1.11183 0.385945,1.38662 0.210227,2.53054 -0.567372,3.69356 -0.658908,0.98551 -2.123561,1.92772 -3.008277,1.93524 -0.285395,0.002 -0.518901,0.078 -0.518901,0.16791 0,0.1665 7.741823,4.148375 8.774148,4.512835 0.82596,0.2916 1.70908,0.26959 2.503646,-0.0624 z M 52.996734,93.802785 c 0.41358,-0.35574 0.525135,-0.61403 0.525135,-1.21585 0,-1.43349 -1.495329,-2.33236 -2.698094,-1.62187 -1.091612,0.64484 -1.281318,1.8778 -0.421251,2.73787 0.722035,0.72203 1.821677,0.76436 2.59421,0.0999 z m -8.340994,-2.51543 c 0.08249,-0.32868 0.04924,-0.54076 -0.09217,-0.5879 -0.121671,-0.0406 -0.51018,-0.32745 -0.863354,-0.63754 -1.616778,-1.41955 -0.02951,-3.56308 1.826553,-2.46668 0.522281,0.30852 0.557626,0.3065 0.825051,-0.0472 0.153667,-0.20322 0.282095,-0.47148 0.285396,-0.59613 0.0071,-0.2671 -2.242349,-1.56593 -2.712024,-1.56593 -0.177714,0 -1.068433,0.3821 -1.979375,0.84911 -1.854945,0.95097 -2.022272,0.97865 -3.251822,0.538 -0.480314,-0.17214 -1.000082,-0.26433 -1.155041,-0.20487 -0.401781,0.15418 -0.599974,1.08388 -0.294118,1.37968 0.135768,0.1313 1.690339,0.97973 3.454603,1.8854 1.764264,0.90567 3.288419,1.71901 3.38701,1.80743 0.299319,0.26842 0.434251,0.18466 0.569296,-0.3534 z m 97.74179,12.975175 c -1.22702,-0.49174 -1.16691,-1.38375 0.26307,-3.90359 l 1.16198,-2.047585 -1.37641,-0.10114 c -1.58376,-0.11637 -2.47473,-0.56369 -3.06115,-1.53688 -0.35981,-0.59711 -0.37739,-0.96083 -0.37739,-7.81037 v -7.1841 l 0.46311,-0.67585 c 0.97557,-1.42375 0.59167,-1.3721 10.19795,-1.3721 9.63554,0 9.3434,-0.0395 10.29098,1.39236 l 0.47741,0.72143 -0.0537,7.24552 -0.0537,7.24553 -0.45306,0.63523 c -0.86138,1.20774 -1.4663,1.33722 -6.26918,1.34188 l -4.26927,0.004 -2.49603,2.688855 c -3.17517,3.42047 -3.5601,3.71117 -4.44468,3.35666 z m 14.91316,-12.272335 v -2.92472 l -3.06623,-0.0519 -3.06624,-0.0519 v 0.60307 c 0,0.87355 -0.46435,1.2932 -1.43095,1.2932 -0.98482,0 -1.39942,-0.36736 -1.39942,-1.23998 v -0.64694 h -3.1134 -3.11341 v 3.02121 3.0212 l 7.59483,-0.0493 7.59482,-0.0493 z m 0.0944,-7.35254 c 0,-2.09412 0.82256,-1.89334 -7.75653,-1.89334 h -7.52747 v 1.60856 1.60855 l 3.05792,-0.0519 3.05791,-0.0519 0.11082,-0.47022 c 0.31347,-1.33017 2.67234,-1.1784 2.90932,0.18718 0.045,0.25945 0.088,0.47173 0.0956,0.47173 0.008,0 1.37246,-0.0253 3.03309,-0.0562 l 3.01932,-0.0562 z M 33.279018,100.79936 c -0.957871,-1.019615 -0.279398,-2.582345 1.121141,-2.582345 1.37304,0 1.963919,1.5487 0.95842,2.512035 -0.67126,0.6431 -1.514659,0.67162 -2.079561,0.0703 z m 7.600531,-0.0264 c -0.95858,-0.958585 -0.271593,-2.555915 1.099256,-2.555915 0.851627,0 1.456654,0.64594 1.456654,1.55517 0,1.311535 -1.613409,1.943245 -2.55591,1.000745 z m 34.789285,-2.344055 -2.891871,-2.8072 -0.05589,-8.08972 -0.0559,-8.08973 2.993927,-2.97189 2.993927,-2.97189 9.326906,-0.003 9.326907,-0.003 2.87754,2.93238 2.87755,2.93238 v 8.06951 8.06951 l -2.89127,2.86964 -2.891268,2.869635 h -9.359343 -9.359343 z m 22.233052,-2.3242 2.140974,-2.11234 v -6.61785 -6.61786 l -2.068511,-2.0621 -2.068514,-2.0621 -8.073646,0.0509 -8.073646,0.0509 -2.028432,2.02496 -2.028432,2.02495 v 6.51287 6.51287 l 2.071865,2.06208 2.071865,2.06208 7.598567,0.0976 c 4.179211,0.0537 7.760199,0.11734 7.95775,0.14151 0.236865,0.029 1.088281,-0.67539 2.50016,-2.06838 z m -19.600716,-2.38017 -0.702609,-0.0583 0.366449,-0.96442 c 0.201547,-0.53043 0.637807,-1.24438 0.969468,-1.58657 0.644433,-0.66489 2.000188,-1.38935 2.600026,-1.38935 0.336311,0 0.357103,-0.10714 0.265488,-1.36801 -0.135712,-1.86775 0.382789,-3.25079 1.720072,-4.58807 1.316752,-1.31675 2.715291,-1.84868 4.56067,-1.73462 2.233818,0.13806 3.957458,1.27302 4.983054,3.28116 0.388723,0.76113 0.473326,1.21011 0.493132,2.61698 0.02115,1.50266 0.06461,1.70507 0.377383,1.75769 1.473566,0.24791 2.98539,1.36289 3.671477,2.70773 0.764838,1.4992 1.523957,1.38401 -9.120368,1.38401 -5.214899,0 -9.797808,-0.0262 -10.184242,-0.0583 z m 11.303628,-3.64488 c 1.023911,-0.94387 1.272458,-2.37669 0.613344,-3.53578 -0.554454,-0.97505 -1.223909,-1.40327 -2.332717,-1.49216 -1.045951,-0.0838 -1.894239,0.33526 -2.595236,1.2822 -0.812532,1.0976 -0.454917,3.12753 0.682245,3.87263 1.098928,0.72005 2.777209,0.66142 3.632364,-0.12689 z m 71.882552,10.807195 c -0.45273,-0.50027 -0.4632,-1.523945 -0.0189,-1.848825 1.16678,-0.85316 2.6786,0.47162 1.83445,1.607515 -0.47111,0.63392 -1.35404,0.75127 -1.81555,0.24131 z m 14.30652,-0.11389 c -0.58134,-0.58134 -0.59115,-1.237745 -0.0264,-1.768265 0.54574,-0.51269 1.33361,-0.52687 1.82758,-0.0329 0.50999,0.50999 0.47522,1.240175 -0.0858,1.801155 -0.5877,0.5877 -1.12767,0.5877 -1.71537,0 z m -65.25505,-0.0894 c -0.78812,-0.40337 -1.21644,-0.895525 -1.56594,-1.799315 -0.15989,-0.41345 -0.2255,-3.64565 -0.23586,-11.61844 l -0.0144,-11.04564 0.42456,-0.84039 c 0.2335,-0.46222 0.71307,-1.03214 1.0657,-1.26648 0.62885,-0.4179 0.75739,-0.42682 6.69855,-0.46473 3.33157,-0.0213 7.79808,-0.0117 9.92557,0.0212 4.43604,0.0687 4.83723,0.17136 5.57283,1.42657 l 0.46529,0.79397 v 11.35813 c 0,12.59114 0.0381,12.18674 -1.23877,13.160875 l -0.71274,0.54378 -9.82682,0.0523 c -9.48289,0.0505 -9.85243,0.0392 -10.55801,-0.32189 z m 19.31728,-4.447725 v -1.60388 h -9.05718 -9.0572 v 1.60388 1.60387 h 9.0572 9.05718 z m -7.78352,-4.72266 7.78352,-0.13333 v -2.71567 -2.71568 l -9.01001,0.049 -9.01002,0.049 -0.0529,2.53781 c -0.0291,1.3958 -0.0186,2.62713 0.0233,2.73629 0.11697,0.30483 1.83317,0.33703 10.26617,0.19258 z m -7.3118,-4.05149 v -1.13215 h 1.13215 1.13215 v 1.13215 1.13215 h -1.13215 -1.13215 z m 4.28525,1.01459 c -0.0737,-0.0737 -0.13404,-0.58689 -0.13404,-1.14038 v -1.00636 h 1.23592 1.23591 l -0.0566,1.08498 -0.0566,1.08497 -1.0453,0.0554 c -0.57491,0.0305 -1.1056,-0.005 -1.17932,-0.0786 z m 10.81007,-8.65842 v -3.11524 l -9.01001,0.049 -9.01002,0.049 -0.0519,3.06624 -0.0518,3.06623 h 9.06187 9.06186 z m -15.09532,0.83136 v -1.11257 h 1.1236 1.1236 l 0.11926,0.63571 c 0.0656,0.34963 0.0907,0.83787 0.0557,1.08497 -0.0587,0.41499 -0.15354,0.45138 -1.24285,0.47686 l -1.17933,0.0276 z m 4.15121,0.0286 v -1.14115 h 1.23592 1.23591 l -0.0566,1.08497 -0.0566,1.08498 -1.17933,0.0562 -1.17933,0.0562 z m 49.53149,19.626665 c -2.01891,-0.489755 -3.34927,-2.179815 -3.34927,-4.254845 0,-3.02234 2.84307,-5.02142 5.72693,-4.02683 2.05072,0.70726 3.3146,3.24861 2.63687,5.30213 -0.63993,1.93902 -3.15165,3.431435 -5.01453,2.979545 z m 1.77888,-3.528005 c 0.21509,-0.27345 0.39107,-0.61695 0.39107,-0.76334 0,-0.39077 -0.86818,-1.19247 -1.29136,-1.19247 -0.57817,0 -1.2088,0.62445 -1.2088,1.19697 0,1.19252 1.37797,1.68831 2.10909,0.75884 z M 65.337351,85.832285 c -1.115893,-1.41863 0.36435,-3.32643 1.932795,-2.49107 0.615303,0.32771 0.871194,0.74749 0.877878,1.44011 0.01364,1.41322 -1.948586,2.14692 -2.810673,1.05096 z m -6.154741,-3.17373 c -0.851893,-0.8519 -0.349625,-2.17853 0.824796,-2.17853 0.633112,0 1.353731,0.68904 1.353731,1.2944 0,0.53107 -0.800189,1.34728 -1.320839,1.34728 -0.216996,0 -0.602955,-0.20842 -0.857688,-0.46315 z"
       id="path1" /></g></svg>
