<?xml version="1.0" encoding="UTF-8" standalone="no"?>
<!-- Created with Inkscape (http://www.inkscape.org/) -->

<svg
   version="1.1"
   id="svg1"
   width="131.57819"
   height="97.79921"
   viewBox="0 0 131.57819 97.79921"
   xmlns="http://www.w3.org/2000/svg"
   xmlns:svg="http://www.w3.org/2000/svg">
  <defs
     id="defs1" />
  <g
     id="g1"
     transform="translate(-552.22528,-234.71867)">
    <g
       id="group-R5">
      <path
         id="path14"
         d="m 4679.44,3239.61 c -63.41,-2.2 -128.97,-27.94 -191.76,-38.61 -73.06,-12.43 -206.11,-18.02 -263.06,-74.17 -63.03,-62.18 -71.24,-217.18 -77.11,-299.15 -1.56,-21.71 -11.83,-64.49 -0.72,-84.63 27.49,-49.81 139.9,-83.07 187.16,-105.01 81.21,-37.7 167.44,-74.05 253.91,-97.74 42.37,-11.6 105.62,-36.29 149.8,-34.04 80.88,4.13 204.22,106.34 266.26,157.61 54.74,45.22 151.97,90.42 117.32,162.02 -57.95,119.72 -185.75,212.66 -278.36,303.97 -46.79,46.14 -97.14,105.16 -163.44,109.75"
         style="fill:#beaedd;fill-opacity:1;fill-rule:nonzero;stroke:none"
         transform="matrix(0.13333333,0,0,-0.13333333,0,666.66667)" />
    </g>
  </g>
</svg>
