<?xml version="1.0" encoding="UTF-8" standalone="no"?>
<!-- Created with Inkscape (http://www.inkscape.org/) -->

<svg
   width="635.47327"
   height="724.42993"
   viewBox="0 0 635.47327 724.42993"
   version="1.1"
   id="svg1"
   xml:space="preserve"
   sodipodi:docname="skills.svg"
   inkscape:version="1.3.2 (091e20ef0f, 2023-11-25, custom)"
   xmlns:inkscape="http://www.inkscape.org/namespaces/inkscape"
   xmlns:sodipodi="http://sodipodi.sourceforge.net/DTD/sodipodi-0.dtd"
   xmlns="http://www.w3.org/2000/svg"
   xmlns:svg="http://www.w3.org/2000/svg"><sodipodi:namedview
     id="namedview1"
     pagecolor="#505050"
     bordercolor="#eeeeee"
     borderopacity="1"
     inkscape:showpageshadow="0"
     inkscape:pageopacity="0"
     inkscape:pagecheckerboard="0"
     inkscape:deskcolor="#505050"
     inkscape:zoom="0.77164123"
     inkscape:cx="317.50507"
     inkscape:cy="362.21497"
     inkscape:window-width="1366"
     inkscape:window-height="740"
     inkscape:window-x="1920"
     inkscape:window-y="0"
     inkscape:window-maximized="1"
     inkscape:current-layer="svg1" /><defs
     id="defs1" /><g
     id="layer1"
     transform="translate(-654.99817,-180.5)"
     style="opacity:0.15"><path
       style="fill:#6d4136;fill-opacity:1"
       d="m 747.5,903.59098 c -7.66431,-1.89912 -12.70978,-4.94593 -18.2762,-11.03649 -9.0024,-9.85006 -11.77986,-23.64779 -7.2158,-35.84632 5.25826,-14.05396 16.52572,-20.67091 35.242,-20.6963 L 766,836 v -57.3185 c 0,-63.0111 0.0163,-63.20372 6.15863,-72.87872 4.13667,-6.51578 9.93093,-11.475 17.71799,-15.16457 L 796.5,687.5 831,687 l 34.5,-0.5 0.14728,-19.25 0.14728,-19.25 h -52.23732 c -48.74756,0 -52.75332,0.13197 -59.96123,1.97544 -14.90416,3.81185 -27.24248,12.68379 -35.97742,25.86978 C 707.86792,690.56453 707,695.72308 707,738.95784 V 773 h -12 -12 v -34.86901 c 0,-38.85162 0.76819,-46.40823 6.13158,-60.31597 5.8267,-15.10915 18.86287,-31.52296 32.4735,-40.88732 6.62737,-4.55975 17.22561,-9.56388 25.68957,-12.12975 6.87948,-2.08553 9.3267,-2.20105 54.11043,-2.55427 l 46.90508,-0.36995 8.10505,-8.18687 c 4.45777,-4.50277 13.65158,-13.89102 20.43068,-20.86278 6.77909,-6.97176 12.96203,-12.92013 13.73987,-13.21861 0.88597,-0.33998 1.45733,-2.14195 1.52959,-4.82409 0.0634,-2.35476 0.17619,-4.95638 0.25056,-5.78138 0.0744,-0.825 -2.79372,-4.65 -6.3735,-8.5 -12.58665,-13.53672 -22.41906,-31.18383 -29.25131,-52.5 -2.20358,-6.875 -4.12195,-12.96944 -4.26306,-13.54319 -0.1411,-0.57376 -3.62819,-2.70955 -7.74909,-4.74621 -13.9205,-6.87988 -24.89523,-22.08635 -28.42221,-39.3815 -2.93005,-14.36799 1.03877,-29.9672 9.93935,-39.06599 l 4.1446,-4.2369 -1.68579,-12.7631 C 827.77772,387.2434 826.7675,377.9 826.45997,373.5 c -0.30752,-4.4 -0.78221,-9.4625 -1.05487,-11.25 L 824.90937,359 h -9.73218 c -11.23718,0 -13.53592,-1.02984 -15.13275,-6.77948 -1.31127,-4.72143 -1.34583,-16.68285 -0.0611,-21.16228 1.39266,-4.85594 6.69603,-9.9487 11.66238,-11.19924 l 4.1636,-1.04841 1.23465,-6.65529 c 3.84872,-20.74626 17.37122,-46.77773 33.12613,-63.76942 19.13561,-20.63779 36.48086,-32.65148 60.57994,-41.95896 l 7.25,-2.80008 v -3.84554 c 0,-2.11505 0.60621,-5.29358 1.34713,-7.06342 1.90245,-4.54437 8.80977,-10.45165 13.34321,-11.41137 C 934.78565,180.86293 951.35,180.5 969.5,180.5 c 32.2681,0 33.093,0.0497 37.1921,2.24077 5.841,3.12219 9.1776,7.90576 10.5094,15.06718 l 1.1175,6.00908 9.7797,4.1759 c 20.6618,8.82252 36.603,19.53642 51.4013,34.54621 19.4424,19.72024 34.1466,45.9797 38.8528,69.38525 1.2439,6.18665 1.4364,6.47447 5.2003,7.77757 5.067,1.75424 10.2162,6.79607 11.576,11.33458 0.5921,1.97632 0.9178,7.99108 0.7237,13.36614 -0.3346,9.2679 -0.4978,9.89746 -3.1586,12.18508 -2.5587,2.19984 -3.6813,2.41224 -12.75,2.41224 -5.4693,0 -9.9488,0.3375 -9.9545,0.75 -0.047,3.39193 -2.3351,26.97183 -3.4971,36.03429 l -1.4469,11.2843 2.7271,3.04458 c 8.2556,9.21643 11.5055,17.7688 11.5469,30.38683 0.043,12.95566 -4.6971,25.64189 -13.717,36.71478 -4.6991,5.76871 -14.9741,13.2686 -19.5572,14.27522 -2.3491,0.51594 -2.9963,1.85064 -6.8857,14.19861 -7.3567,23.35567 -16.8094,40.75984 -30.129,55.4732 -5.5085,6.08482 -6.0308,7.05459 -6.0308,11.19666 v 4.53485 l 22.1458,22.55334 22.1458,22.55334 42.1042,0.008 c 23.8266,0.004 44.9259,0.45263 48.6042,1.03283 31.6162,4.98698 58.1524,28.58933 69.0991,61.45962 2.2617,6.79132 2.3415,8.21483 2.677,47.75 L 1250.122,773 H 1238.061 1226 l -0.015,-35.75 c -0.016,-39.45054 -0.4449,-43.2748 -6.1078,-54.49292 -8.7582,-17.34977 -25.3404,-30.54371 -42.3111,-33.66555 C 1173.7799,648.39499 1153.2439,648 1120.8163,648 H 1070 v 19.45118 19.45118 l 34.25,0.29882 34.25,0.29882 5.7812,2.70897 c 8.0847,3.78833 16.7937,12.38172 20.3495,20.07943 l 2.8693,6.2116 0.2729,59.75 0.2728,59.75 h 8.7957 c 12.0828,0 17.7588,1.86794 24.5578,8.08185 7.995,7.30703 11.0982,14.15328 11.068,24.41815 -0.051,17.3228 -10.538,30.41826 -28.0022,34.96709 -5.2034,1.35532 -30.5661,1.52306 -218.9251,1.44786 C 799.71635,904.84876 751.39184,904.55532 747.5,903.59098 Z M 874.19999,873.1338 c -2.11558,-2.67642 -4.43064,-6.27642 -5.14457,-8 L 867.75736,862 h -60.37868 c -59.04535,0 -60.42285,0.0442 -62.37868,2 -2.87419,2.87419 -2.65523,8.43568 0.45455,11.54545 L 747.90909,878 h 65.06871 65.06871 z m 156.01751,2.04271 C 1034.7648,872.93686 1041,866.07079 1041,863.303 1041,862.24407 1027.134,862 966.97432,862 h -74.02568 l 1.49215,2.8855 c 2.02132,3.90881 9.74353,10.56339 13.77427,11.86993 2.19101,0.71019 22.26682,1.01147 60.28494,0.90468 l 57,-0.16011 z m 156.1476,0.75091 c 3.0942,-2.43385 3.6146,-8.0837 1.0782,-11.70491 L 1185.8866,862 h -59.744 -59.7441 l -2.1323,4.38896 c -1.1728,2.41392 -3.5591,6.01392 -5.3028,8 L 1055.7928,878 h 63.9687 c 63.2013,0 64.0004,-0.0249 66.6036,-2.07258 z M 1143.5,780 v -55.5 l -2.3465,-3.77424 C 1136.775,713.68325 1140.1765,714 1068.9257,714 h -64.1736 l -3.8873,4.41625 c -2.13803,2.42893 -6.01976,5.46643 -8.62606,6.75 -4.33702,2.13591 -6.2822,2.36297 -22.94575,2.6784 -22.37372,0.42352 -25.94032,-0.45896 -34.37657,-8.50578 L 929.31917,714 h -63.69942 c -60.67338,0 -63.87568,0.0905 -67.40959,1.90483 -2.04059,1.04765 -4.61016,3.41015 -5.71016,5.25 -1.92291,3.21622 -2.01132,5.40744 -2.29366,56.84517 -0.16151,29.425 -0.0401,54.51375 0.26975,55.75278 l 0.56341,2.25277 176.23025,-0.25277 L 1143.5,835.5 Z m -216.18793,-103.51315 9.81207,-10.40404 -7.31207,-7.76352 C 912.24142,639.66382 906.1013,633.0787 900.24134,626.60538 L 894,619.71075 V 653.35538 687 l 11.75,-0.0546 11.75,-0.0546 z m 113.91153,-22.583 c 0.152,-18.20289 0.051,-33.20448 -0.2236,-33.33688 -0.275,-0.13239 -6.3172,6.09837 -13.4271,13.84616 -7.1099,7.74778 -16.4802,17.81355 -20.8228,22.36837 -4.3427,4.55483 -7.71723,8.82983 -7.49901,9.5 0.21821,0.67018 4.41351,5.56311 9.32281,10.8732 l 8.9261,9.6547 11.7236,0.0953 11.7236,0.0953 z m -43.65142,-13.91757 c 11.03972,-11.81745 22.82602,-24.54024 26.19182,-28.27286 l 6.1195,-6.78658 0.3083,-11.96531 c 0.1695,-6.58092 0.1849,-11.96446 0.034,-11.96342 -0.1507,10e-4 -3.5257,2.47985 -7.5,5.50846 -19.3499,14.74542 -41.24078,21.00592 -64.415,18.42184 -17.38251,-1.93826 -31.93771,-7.74409 -46.0611,-18.37302 L 905,581.09921 v 11.4156 11.4156 l 3.24471,3.78479 c 1.78459,2.08164 12.95067,14.1348 24.81351,26.7848 11.86284,12.65 24.46522,26.20482 28.00529,30.12183 l 6.43649,7.12183 5,-5.13555 c 2.75,-2.82455 14.03248,-14.80437 25.07218,-26.62183 z m -7.73332,-65.47358 c 4.58637,-0.82747 8.74887,-1.7579 9.25,-2.06762 0.50113,-0.30971 0.91114,-5.2839 0.91114,-11.05376 0,-10.88728 -1.25184,-15.50651 -4.5448,-16.77014 C 994.56487,544.27953 981.70277,544 966.87276,544 h -26.96367 l -2.45454,2.45455 C 935.13613,548.77296 935,549.54011 935,560.28658 v 11.37748 l 9.43794,2.16797 C 958.67097,577.10147 958,577.36526 958,568.5 V 561 h 9.5 9.5 v 7.86133 c 0,7.59033 0.0776,7.84917 2.25,7.5086 1.2375,-0.194 6.00249,-1.02975 10.58886,-1.85723 z m -66.47961,-42.67889 c 6.51189,-6.32427 9.88066,-6.83506 45.00558,-6.82404 30.64546,0.01 31.21381,0.047 36.13517,2.37352 6.9279,3.27518 13.5,10.74263 13.5,15.33922 0,1.25262 0.5625,2.2815 1.25,2.2864 0.6875,0.005 5.8067,-4.67389 11.3759,-10.39733 18.0638,-18.56386 28.1718,-38.69335 34.2021,-68.11158 2.4356,-11.88196 6.7658,-40.09775 7.6905,-50.11214 l 0.6568,-7.11214 -25.3377,-0.54083 c -19.4847,-0.41589 -28.1096,-1.03078 -37.3376,-2.66189 -48.58536,-8.58777 -88.1723,-28.44686 -119.3204,-59.85799 -5.67621,-5.72416 -10.52469,-10.20325 -10.77439,-9.95356 -0.24969,0.2497 -1.78322,4.26541 -3.40784,8.9238 l -2.95384,8.4698 -0.0682,36.17247 C 873.93784,409.72239 873.64532,426 873.3253,426 c -0.32001,0 -3.02891,-1.40007 -6.01976,-3.11126 l -5.43791,-3.11126 0.56738,3.36126 c 0.31206,1.84869 1.71706,10.33626 3.12223,18.86126 5.00372,30.35708 9.93257,48.05934 17.66573,63.44747 6.29266,12.52167 11.24455,19.23965 22.08703,29.96436 l 10.02068,9.91184 2.19843,-4.98139 c 1.20913,-2.73976 3.8327,-6.56857 5.83014,-8.50847 z M 843.29337,447.12822 C 841.76244,438.8077 840.219,432 839.86351,432 c -0.35549,0 -1.40638,1.89951 -2.33531,4.22113 -1.86883,4.67065 -1.48923,10.2011 1.13713,16.56712 1.67853,4.06856 6.27814,10.60162 6.9741,9.90565 0.2406,-0.2406 -0.81513,-7.24515 -2.34606,-15.56568 z M 1097.0749,451 c 1.5035,-3.92378 1.9429,-6.72293 1.5331,-9.76723 -0.5465,-4.0598 -3.3343,-10.83977 -4.13,-10.04413 -0.3544,0.35446 -5.5081,30.29032 -5.4511,31.66356 0.08,1.92874 6.2481,-7.15479 8.048,-11.8522 z M 1093.55,310.25 c -1.4883,-6.13842 -11.7139,-25.54363 -17.9049,-33.97844 -8.2638,-11.25897 -22.9078,-25.34402 -33.8045,-32.51417 -9.2793,-6.10594 -22.7587,-13.17263 -23.573,-12.35836 -0.29,0.29007 -0.7605,13.90212 -1.0454,30.24901 l -0.518,29.7216 -2.4981,2.31518 c -3.3315,3.08749 -8.243,3.04735 -11.9003,-0.0973 L 999.5,291.17511 999,250.36028 998.5,209.54545 993,208.26536 c -12.64468,-2.94295 -51.99518,-1.00403 -56.56315,2.78705 C 935.23218,212.0522 935,218.61529 935,251.6679 v 39.42301 l -2.45455,2.45454 c -3.27682,3.27683 -8.45664,3.29475 -12.23969,0.0423 l -2.80576,-2.41219 -0.29231,-30.14177 -0.2923,-30.14176 -2.2077,0.65525 c -1.21423,0.36038 -5.58269,2.44907 -9.70769,4.64153 -29.50204,15.68051 -54.66159,45.24142 -63.45961,74.56114 l -0.67517,2.25 h 126.6758 126.67578 z M 663.63112,586.88373 c -1.14674,-1.6372 -1.23643,-2.65587 -0.39619,-4.5 0.85871,-1.88467 1.94228,-2.42553 5.17559,-2.58337 7.52825,-0.36752 9.99017,0.0271 11.29419,1.81048 3.33821,4.56527 0.19702,7.38916 -8.21943,7.38916 -5.35494,0 -6.60844,-0.33775 -7.85416,-2.11627 z m 43.41907,0.67674 c -0.65709,-0.79174 -1.04969,-2.70424 -0.87245,-4.25 L 706.5,580.5 l 11.38776,-0.71146 c 6.8349,-0.42701 12.10521,-0.32748 13.18228,0.24894 2.40395,1.28656 3.28788,4.42523 1.95018,6.92475 -1.00307,1.87425 -2.04087,2.03777 -12.93296,2.03777 -9.0855,0 -12.12049,-0.33512 -13.03707,-1.43953 z m 52.58146,-0.67597 c -2.68601,-3.83483 -0.71683,-6.31009 5.47694,-6.8845 7.15954,-0.66398 9.74084,-0.14986 10.99279,2.18943 0.78023,1.45786 0.6417,2.55373 -0.55336,4.37763 -1.41469,2.15909 -2.31678,2.43294 -8.01437,2.43294 -5.40347,0 -6.65491,-0.33503 -7.902,-2.1155 z m 358.92505,-0.10701 c -2.0033,-2.86015 -1.9642,-3.36998 0.4433,-5.77749 1.8717,-1.87166 3.3333,-2 22.7775,-2 17.1868,0 21.1616,0.26903 23,1.5567 2.6989,1.89038 2.8538,4.56196 0.3938,6.78831 -1.583,1.43254 -4.7341,1.65499 -23.4433,1.65499 -21.2023,0 -21.6443,-0.0424 -23.1713,-2.22251 z m 73.6757,1.05493 c -0.6778,-0.67783 -1.2255,-2.15492 -1.2171,-3.28242 0.032,-4.30292 1.4856,-5.03355 10.7242,-5.39116 7.616,-0.2948 9.1472,-0.0712 11.267,1.64533 2.1266,1.72202 2.3198,2.36656 1.4514,4.84116 -1.0016,2.85407 -1.0039,2.85473 -10.9974,3.13709 -6.9209,0.19554 -10.3748,-0.0967 -11.2281,-0.95 z M 708,548.26478 c -7.86889,-0.99098 -21,-5.60172 -21,-7.37374 0,-2.92966 14.44177,-8.85202 21.652,-8.87917 l 3.15201,-0.0119 -0.31916,8.08382 c -0.17554,4.44611 -0.46894,8.17652 -0.65201,8.28982 -0.18306,0.11329 -1.45784,0.0643 -2.83284,-0.10886 z m 11,-8.40246 v -8.13768 l 5.75,0.66203 c 5.07934,0.58481 20.25,6.60741 20.25,8.03905 C 745,542.18202 727.57783,548 722.3185,548 H 719 Z M 673.08629,529.81501 C 665.36751,520.27549 661.93345,512.24184 659.59352,498.25 L 659.05,495 h 8.45595 c 7.97787,0 8.47972,0.12721 8.87644,2.25 2.73865,14.65427 4.42891,19.34714 10.67226,29.63065 1.0678,1.75879 1.13576,2.49326 0.26018,2.81173 -0.65184,0.23708 -3.00002,1.74574 -5.21817,3.35256 l -4.03301,2.9215 z m 528.20161,5.53533 c -0.6667,-0.27047 -2.1891,-2.07244 -3.3831,-4.00437 -2.1685,-3.50869 -2.1687,-3.51556 -0.1993,-6.17928 1.0844,-1.46668 3.9568,-3.79169 6.3831,-5.16669 3.9716,-2.25076 5.5159,-2.5 15.4898,-2.5 10.5933,0 11.2935,0.13293 15.9885,3.03564 5.6708,3.50599 7.4999,7.10248 5.5065,10.82716 -2.4982,4.66798 -5.3316,5.26894 -12.654,2.68392 -7.2349,-2.55413 -13.8693,-2.41681 -19.316,0.3998 -2.9924,1.54744 -5.5111,1.83872 -7.8155,0.90382 z m -454.07829,-3.52996 -4.29039,-3.00683 2.74098,-4.65677 c 4.9088,-8.3398 6.23503,-11.76434 7.96419,-20.56491 l 1.70301,-8.66746 8.0863,0.28779 8.0863,0.2878 -0.35124,4 c -0.5314,6.05168 -4.77112,18.48425 -7.88318,23.11665 -3.39081,5.04733 -9.98877,12.41453 -11.01298,12.29695 -0.41393,-0.0475 -2.68328,-1.43947 -5.04299,-3.09322 z m -53.47496,-8.98424 c -3.68858,-4.92513 -5.42746,-8.75294 -7.69744,-16.94443 C 682.78874,494.16921 681.91889,495 697.44098,495 c 7.39254,0 13.58004,0.3375 13.75,0.75 0.16996,0.4125 0.17292,6.87832 0.007,14.36848 l -0.30245,13.61848 -5.19755,0.63468 c -2.85866,0.34907 -6.15759,0.89702 -7.33097,1.21766 -1.61948,0.44254 -2.73529,-0.22068 -4.63194,-2.75316 z M 724.75,524.69296 719,523.67629 V 509.33814 495 h 14.12883 14.12883 l -0.67775,5.10915 c -0.98365,7.41512 -3.26777,13.61041 -7.42243,20.1321 -4.03427,6.33272 -3.93773,6.30289 -14.40748,4.45171 z m 453.3226,-19.32782 c -3.1821,-4.04534 -2.618,-6.60772 2.4916,-11.31757 8.8364,-8.14511 25.3497,-14.01284 39.4358,-14.01284 12.8913,0 26.7327,4.62543 36.142,12.07775 4.3342,3.43272 7.3151,8.28179 6.2501,10.16689 -3.2806,5.8066 -7.6403,7.10422 -12.424,3.69791 -5.5629,-3.96114 -15.5792,-7.92158 -22.8647,-9.04065 -11.4604,-1.76038 -20.2961,-0.12357 -32.6399,6.04656 -5.52,2.75925 -10.9999,5.01681 -12.1774,5.01681 -1.1775,0 -3.0736,-1.18569 -4.2135,-2.63486 z M 659.65177,483.25 c 0.82462,-5.87853 3.33851,-14.30949 5.5818,-18.7199 2.54693,-5.00741 10.54057,-15.5062 12.32863,-16.19234 1.01851,-0.39084 6.9637,2.90509 11.28819,6.25801 0.19271,0.14942 -1.03153,1.99128 -2.72053,4.09302 -4.13186,5.14154 -8.02773,15.04071 -8.79016,22.33526 L 676.71509,487 h -8.79468 -8.79467 z m 25.45321,-1.35055 c 1.40221,-8.87031 4.30938,-15.6391 9.53644,-22.2037 l 2.14142,-2.68939 7.10858,1.60532 L 711,460.217 V 473.6085 487 H 697.64934 684.29869 Z M 719,473.5 c 0,-12.28303 0.16065,-13.5 1.78207,-13.5 0.98014,0 4.24264,-0.64296 7.25,-1.42881 5.37328,-1.40407 5.51347,-1.3855 8.09861,1.07278 3.63512,3.45673 7.5116,10.88508 9.33641,17.89099 C 748.10558,487.66481 748.98125,487 733,487 h -14 z m 35.47454,9.75 c -1.30543,-7.94591 -4.5416,-17.00843 -8.2791,-23.18467 l -3.8939,-6.43466 3.09923,-1.61367 c 1.70458,-0.88752 4.08502,-2.24599 5.28988,-3.01882 2.02112,-1.2964 2.43376,-1.13788 5.33196,2.04834 8.05614,8.85674 13.83999,20.99299 15.34741,32.20348 l 0.50424,3.75 h -8.39182 -8.39181 z m 399.97996,-1.70455 c -4.2976,-4.29761 -3.3813,-7.44916 4.238,-14.57666 9.689,-9.06356 19.5573,-15.13586 30.4885,-18.76058 13.1306,-4.35401 22.0979,-5.563 36.319,-4.89657 21.267,0.99662 36.0357,7.05595 53.1675,21.81367 8.8192,7.59704 10.1456,11.37279 5.6454,16.06997 -4.3109,4.49962 -6.6813,3.81282 -16.4202,-4.75767 -14.0058,-12.32552 -36.4916,-18.88631 -56.6008,-16.5147 -17.0145,2.00663 -28.9481,7.19314 -42.9406,18.66258 -7.3985,6.06443 -10.1964,6.66036 -13.8968,2.95996 z M 701.5,450.1283 C 694.50969,448.0711 687,444.37928 687,443 c 0,-2.28798 15.67949,-7.99998 21.9601,-8.00001 2.51605,-1e-5 2.53973,0.0775 2.52227,8.25 -0.0206,9.6428 -0.19064,9.75995 -9.98237,6.87831 z m 17.5,-6.70026 v -8.57195 l 5.75,0.69046 c 6.37675,0.76573 19.38768,5.35038 19.94343,7.02745 0.7358,2.2204 -17.73463,9.33189 -24.44343,9.41122 -0.90393,0.0107 -1.25,-2.35839 -1.25,-8.55718 z m 453.1421,-39.7986 c -2.5908,-6.25062 -7.1991,-10.9319 -12.3921,-12.58837 -4.9322,-1.57328 -4.7425,-3.39033 0.5658,-5.41758 5.3585,-2.04644 10.2028,-6.93052 11.9878,-12.08637 0.7473,-2.1585 1.7722,-4.04993 2.2775,-4.20318 0.5054,-0.15325 2.2689,2.52142 3.9189,5.94371 2.6552,5.5072 3.6702,6.57826 8.831,9.31898 3.2071,1.70315 5.8182,3.44158 5.8025,3.86317 -0.016,0.4216 -2.2754,1.80748 -5.0215,3.07975 -5.3892,2.49689 -10.5115,8.44973 -11.6222,13.5069 -1.0092,4.59488 -1.9882,4.27581 -4.3477,-1.41701 z M 1248,401.1243 c -10.7415,-3.53459 -18.934,-11.80419 -22.1353,-22.34372 -2.0283,-6.67802 -2.2056,-14.30495 -0.4365,-18.78058 0.4059,-1.02683 -4.6729,-6.5472 -16.1001,-17.5 l -16.6931,-16 -8.5675,-0.0505 c -7.0153,-0.0414 -9.58,-0.51621 -14.1563,-2.62088 -6.9363,-3.19009 -13.3706,-9.64613 -16.6781,-16.73447 -4.4147,-9.46127 -4.0597,-25.70499 0.5074,-23.21557 0.9677,0.52747 6.9223,5.32594 13.2324,10.66326 6.3102,5.33733 12.4632,10.15541 13.6735,10.70686 5.6155,2.55858 14.6433,-2.94569 15.9106,-9.70064 1.1729,-6.25223 -1.1255,-9.77161 -11.9119,-18.23965 -8.105,-6.36295 -14.6451,-12.36505 -14.6451,-13.44037 0,-0.39935 2.5875,-1.48201 5.75,-2.4059 16.0675,-4.69396 32.927,2.72735 39.564,17.41549 2.227,4.92833 2.8938,15.47655 1.3985,22.1224 -0.787,3.49793 -0.7777,3.50944 15.68,19.5 l 16.4675,16 h 8.32 c 10.5936,0 16.6009,2.23381 23.4647,8.72528 6.9862,6.60732 9.7624,13.04912 9.8148,22.77472 0.067,12.40762 0.3002,12.38765 -13.6951,1.17274 C 1262.3786,357.64489 1261.3033,357 1256.4657,357 c -2.8355,0 -4.4357,0.77001 -7.0657,3.4 -2.9086,2.90857 -3.4,4.0839 -3.4,8.13158 0,5.44079 1.2664,6.91656 17.9604,20.93046 l 9.4604,7.94158 -4.4604,1.95555 c -4.8405,2.1222 -16.8116,3.13032 -20.9604,1.76513 z m -11.2945,-59.08959 C 1234.7577,339.32612 1209.09,315 1208.1798,315 c -0.4571,0 -1.8107,1.04263 -3.0078,2.31695 l -2.1767,2.31695 14.7393,14.64308 14.7394,14.64309 2.7185,-2.60451 c 2.2605,-2.16565 2.5154,-2.88696 1.513,-4.28085 z M 655.04635,385.5 c 0.0265,-1.65 1.26439,-8.96772 2.7509,-16.2616 l 2.70275,-13.26161 54.41032,-54.40666 54.41032,-54.40667 14.42262,14.56517 14.42261,14.56516 -8.83293,9.0974 c -4.85812,5.00357 -23.71003,24.17497 -41.89314,42.60311 -18.1831,18.42813 -38.2081,38.9057 -44.5,45.5057 l -11.4398,12 -18.25091,1.5 -18.2509,1.5 z m 25.9009,-8.25 c -1.32076,-1.5125 -4.10127,-4.56915 -6.17892,-6.79255 l -3.77755,-4.04255 3.80277,-3.7133 3.80277,-3.71331 3.39801,3.50586 C 683.86323,364.42237 685.8511,366 686.41182,366 687.60709,366 697,356.943 697,355.79047 c 0,-0.43159 -1.55789,-2.5091 -3.46197,-4.6167 l -3.46198,-3.83199 4.34209,-4.26144 4.34208,-4.26143 3.30472,4.11227 c 1.81759,2.26175 3.56774,3.98999 3.88921,3.84055 0.32148,-0.14945 2.788,-2.64825 5.48116,-5.55288 l 4.89664,-5.28115 -3.16597,-3.26646 C 711.42469,330.87469 710,328.99763 710,328.5 c 0,-1.29481 6.18325,-7.5 7.47348,-7.5 0.59463,0 2.26576,1.35 3.71361,3 1.44785,1.65 3.02593,3 3.50684,3 0.48091,0 3.26731,-2.42302 6.19199,-5.38448 l 5.3176,-5.38449 -3.56374,-3.94463 -3.56373,-3.94462 4.45929,-4.37646 4.45929,-4.37646 3.79077,3.70159 3.79078,3.70159 5.41782,-5.48596 5.41782,-5.48597 -3.20591,-3.30766 C 751.44266,290.89323 750,288.99518 750,288.49456 c 0,-0.50063 1.6674,-2.61781 3.70533,-4.70484 l 3.70534,-3.79461 3.8039,3.71441 3.80389,3.7144 6.49077,-6.43307 c 3.56992,-3.53819 6.48033,-6.67107 6.46757,-6.96196 -0.0128,-0.29089 -1.60321,-2.28344 -3.53434,-4.42789 l -3.51113,-3.899 2.03434,-2.16545 c 1.11888,-1.191 2.03433,-2.77602 2.03433,-3.52226 0,-1.3926 -2.83959,-5.02708 -3.90499,-4.99811 -0.73393,0.02 -77.0368,75.73548 -93.86111,93.13861 -15.36736,15.89605 -15.50447,16.52058 -5.64383,25.70624 4.54605,4.23487 7.39161,6.13897 9.17431,6.13897 h 2.58425 z m 66.62418,8.17857 C 746.70714,384.56429 746,383.02143 746,382 c 0,-4.05788 2.55283,-5 13.54838,-5 9.99573,0 10.47002,0.0985 12.04358,2.5 1.51741,2.31587 1.51741,2.68413 0,5 -1.57356,2.40155 -2.04785,2.5 -12.04358,2.5 -8.12623,0 -10.74974,-0.34422 -11.97695,-1.57143 z"
       id="path1" /></g></svg>
